<svg width="46" height="47" viewBox="0 0 46 47" fill="none" xmlns="http://www.w3.org/2000/svg">
<path d="M16.1762 1.54595C11.68 3.17505 7.80251 6.26712 5.11322 10.368C2.42393 14.4689 1.06463 19.3624 1.23496 24.3298C1.4053 29.2972 3.0963 34.0766 6.05958 37.9661C9.02286 41.8555 13.1022 44.6499 17.6985 45.9389C21.4248 46.9432 25.3288 46.9873 29.075 46.0674C32.4687 45.2713 35.6063 43.5682 38.1805 41.1251C40.8597 38.5047 42.8044 35.1711 43.8055 31.4827C44.8937 27.4718 45.0873 23.2538 44.3715 19.1526H23.4465V28.2185H35.5649C35.3227 29.6644 34.8037 31.0444 34.0389 32.276C33.2742 33.5075 32.2794 34.5653 31.1141 35.386C29.6343 36.4083 27.9662 37.0962 26.2168 37.4055C24.4624 37.7462 22.6627 37.7462 20.9082 37.4055C19.13 37.0215 17.4478 36.2549 15.9688 35.1546C13.5928 33.398 11.8087 30.9023 10.8711 28.0238C9.91776 25.0915 9.91776 21.9124 10.8711 18.98C11.5385 16.9246 12.6417 15.0531 14.0985 13.5052C15.7656 11.7014 17.8761 10.412 20.1986 9.77857C22.5211 9.1451 24.9658 9.19201 27.2645 9.91416C29.0602 10.4899 30.7022 11.4958 32.0598 12.8517C33.4262 11.4319 34.7903 10.0084 36.152 8.58126C36.8551 7.81384 37.6215 7.08314 38.3141 6.29736C36.2419 4.28325 33.8095 2.71602 31.1563 1.68548C26.3248 -0.14682 21.0382 -0.196061 16.1762 1.54595Z" fill="white"/>
<path d="M16.1761 1.54578C21.0377 -0.197414 26.3242 -0.149469 31.1561 1.68164C33.8098 2.71918 36.2411 4.29395 38.3104 6.31555C37.6073 7.10133 36.8655 7.83571 36.1483 8.59946C34.7843 10.0217 33.4214 11.439 32.0597 12.8515C30.7021 11.4956 29.06 10.4897 27.2644 9.91399C24.9665 9.18931 22.5218 9.13969 20.1987 9.77057C17.8756 10.4015 15.7637 11.6885 14.0948 13.4904C12.6381 15.0382 11.5348 16.9097 10.8675 18.9652L3.57959 13.0718C6.18821 7.66886 10.7049 3.53603 16.1761 1.54578Z" fill="#E33629"/>
<path d="M1.64613 18.9101C2.03785 16.8824 2.68818 14.9188 3.57973 13.0718L10.8676 18.9798C9.91423 21.9122 9.91423 25.0913 10.8676 28.0237C8.43949 29.982 6.0102 31.9501 3.57973 33.928C1.34783 29.2879 0.667146 24.0011 1.64613 18.9101Z" fill="#F8BD00"/>
<path d="M23.4464 19.1489H44.3714C45.0872 23.2502 44.8935 27.4682 43.8054 31.4791C42.8042 35.1674 40.8596 38.501 38.1804 41.1214C35.8284 39.2047 33.4659 37.3027 31.114 35.386C32.28 34.5645 33.2753 33.5056 34.0401 32.2727C34.8048 31.0398 35.3234 29.6584 35.5647 28.2111H23.4464C23.4429 25.1928 23.4464 22.1709 23.4464 19.1489Z" fill="#587DBD"/>
<path d="M3.57617 33.9281C6.00664 31.9697 8.43594 30.0016 10.8641 28.0237C11.8035 30.9032 13.5901 33.3989 15.9688 35.1545C17.4524 36.2496 19.1382 37.01 20.9188 37.387C22.6732 37.7277 24.4729 37.7277 26.2273 37.387C27.9767 37.0777 29.6448 36.3898 31.1246 35.3674C33.4766 37.2841 35.8391 39.1862 38.191 41.1029C35.6172 43.5474 32.4796 45.2517 29.0855 46.0489C25.3393 46.9687 21.4353 46.9246 17.709 45.9204C14.7618 45.0985 12.009 43.6497 9.62305 41.6647C7.09764 39.5706 5.035 36.9315 3.57617 33.9281Z" fill="#319F43"/>
</svg>
