<svg width="404" height="570" viewBox="0 0 404 570" fill="none" xmlns="http://www.w3.org/2000/svg">
<path d="M200.993 554.097C306.008 554.097 391.14 484.668 391.14 399.023C391.14 313.378 306.008 243.948 200.993 243.948C95.9782 243.948 10.8467 313.378 10.8467 399.023C10.8467 484.668 95.9782 554.097 200.993 554.097Z" fill="#232531"/>
<path d="M310.193 452.831C297.724 442.662 297.724 426.178 310.193 416.009C322.662 405.84 342.878 405.84 355.347 416.009C367.815 426.178 367.815 442.662 355.347 452.831C342.878 463 322.662 463 310.193 452.831Z" fill="#17161B"/>
<path d="M56.5894 454.245L23.7914 427.5C21.9432 425.995 21.9432 423.544 23.7914 422.04L214.567 266.452C215.604 265.71 216.75 265.323 217.913 265.323C219.075 265.323 220.221 265.71 221.258 266.452L254.064 293.197C255.912 294.702 255.912 297.153 254.064 298.657L63.2879 454.245C62.2496 454.987 61.1023 455.374 59.9387 455.374C58.775 455.374 57.6277 454.987 56.5894 454.245Z" fill="#17161B"/>
<path d="M174.481 406.57L202.679 383.542C205.585 381.17 207.037 378.07 207.037 374.957C207.037 371.845 207.037 369.417 207.037 369.417L177.79 346.115C176.973 345.369 176.293 344.36 175.805 343.172C175.317 341.983 175.035 340.648 174.982 339.275V290.153L125.752 330.349V379.449C125.809 380.82 126.093 382.153 126.581 383.341C127.068 384.529 127.747 385.539 128.561 386.289L153.45 406.535C159.245 411.312 168.671 411.312 174.481 406.57Z" fill="#BA68C8"/>
<g opacity="0.6">
<path d="M174.481 406.57L202.679 383.542C205.585 381.17 207.037 378.07 207.037 374.957C207.037 371.845 207.037 369.417 207.037 369.417L177.79 346.115C176.973 345.369 176.293 344.36 175.805 343.172C175.317 341.983 175.035 340.648 174.982 339.275V290.153L125.752 330.349V379.449C125.809 380.82 126.093 382.153 126.581 383.341C127.068 384.529 127.747 385.539 128.561 386.289L153.45 406.535C159.245 411.312 168.671 411.312 174.481 406.57Z" fill="black"/>
</g>
<path opacity="0.3" d="M137.559 388.147V393.665L128.537 386.312C127.723 385.562 127.045 384.552 126.558 383.364C126.072 382.176 125.79 380.842 125.736 379.472V330.349L135.114 322.7C135.308 326.063 135.518 329.54 135.719 332.96L129.126 338.318V376.679C129.178 378.051 129.46 379.386 129.948 380.575C130.436 381.764 131.117 382.773 131.934 383.519L137.559 388.147Z" fill="black"/>
<path d="M129.126 376.69C129.181 378.062 129.465 379.395 129.952 380.583C130.44 381.772 131.119 382.781 131.934 383.53L153.418 401.018C159.229 405.749 168.655 405.76 174.473 401.018L202.72 377.99C208.539 373.247 208.539 365.564 202.72 360.821L181.22 343.334C180.407 342.583 179.73 341.573 179.244 340.385C178.757 339.197 178.475 337.864 178.42 336.494V298.121L129.191 338.318L129.126 376.69Z" fill="#BA68C8"/>
<path opacity="0.3" d="M129.126 376.69C129.181 378.062 129.465 379.395 129.952 380.583C130.44 381.772 131.119 382.781 131.934 383.53L153.418 401.018C159.229 405.749 168.655 405.76 174.473 401.018L202.72 377.99C208.539 373.247 208.539 365.564 202.72 360.821L181.22 343.334C180.407 342.583 179.73 341.573 179.244 340.385C178.757 339.197 178.475 337.864 178.42 336.494V298.121L129.191 338.318L129.126 376.69Z" fill="black"/>
<path opacity="0.5" d="M186.91 348.019L181.188 343.356C180.375 342.606 179.698 341.595 179.211 340.407C178.725 339.219 178.443 337.887 178.388 336.516V298.121L129.158 338.318V376.69C129.214 378.061 129.497 379.395 129.985 380.583C130.473 381.772 131.152 382.781 131.967 383.53L137.616 388.09L186.91 348.019Z" fill="black"/>
<path d="M207.045 369.428V374.968C207.045 378.08 205.585 381.17 202.687 383.552L174.441 406.569C171.35 408.9 167.898 410.11 164.394 410.091V404.574C167.898 404.592 171.35 403.382 174.441 401.051L202.687 378.012C205.585 375.652 207.045 372.54 207.045 369.428Z" fill="#BA68C8"/>
<path opacity="0.5" d="M207.045 369.428V374.968C207.045 378.08 205.585 381.17 202.687 383.552L174.441 406.569C171.35 408.9 167.898 410.11 164.394 410.091V404.574C167.898 404.592 171.35 403.382 174.441 401.051L202.687 378.012C205.585 375.652 207.045 372.54 207.045 369.428Z" fill="black"/>
<path d="M50.0363 424.376C51.1005 425.102 52.2706 425.465 53.4524 425.435C54.6341 425.406 55.7943 424.984 56.8396 424.205L247.301 268.88C248.322 267.939 249.172 266.672 249.782 265.18C250.392 263.689 250.745 262.016 250.811 260.296V42.6475C250.775 40.9744 250.459 39.3371 249.89 37.8692C249.32 36.4012 248.514 35.144 247.535 34.2001C246.472 33.4732 245.303 33.1108 244.122 33.1425C242.941 33.1742 241.782 33.5991 240.74 34.3825L50.2784 189.753C49.2607 190.7 48.4158 191.973 47.8127 193.469C47.2097 194.965 46.8654 196.64 46.8081 198.36V415.974C46.8441 417.634 47.1549 419.258 47.7155 420.717C48.2761 422.176 49.0709 423.429 50.0363 424.376Z" fill="#BA68C8"/>
<path d="M56.8636 424.195L247.325 268.869C248.347 267.931 249.198 266.664 249.808 265.172C250.419 263.68 250.77 262.006 250.835 260.285V42.6476C250.835 39.4898 249.262 38.2016 247.325 39.7862L56.8636 195.111C55.8419 196.052 54.9916 197.319 54.3816 198.81C53.7717 200.302 53.4193 201.976 53.353 203.696V421.333C53.353 424.491 54.9268 425.779 56.8636 424.195Z" fill="#BA68C8"/>
<path opacity="0.5" d="M56.8636 424.195L247.325 268.869C248.347 267.931 249.198 266.664 249.808 265.172C250.419 263.68 250.77 262.006 250.835 260.285V42.6476C250.835 39.4898 249.262 38.2016 247.325 39.7862L56.8636 195.111C55.8419 196.052 54.9916 197.319 54.3816 198.81C53.7717 200.302 53.4193 201.976 53.353 203.696V421.333C53.353 424.491 54.9268 425.779 56.8636 424.195Z" fill="black"/>
<path d="M56.3473 429.848C55.3486 430.464 54.2671 430.767 53.1776 430.735C52.0881 430.704 51.0163 430.339 50.0363 429.666C49.0688 428.717 48.2726 427.46 47.7119 425.997C47.1512 424.534 46.8416 422.905 46.8081 421.241V401.428L53.3855 406.809V426.622C53.3451 429.506 54.6445 430.817 56.3473 429.848Z" fill="#BA68C8"/>
<path opacity="0.5" d="M56.3473 429.848C55.3486 430.464 54.2671 430.767 53.1776 430.735C52.0881 430.704 51.0163 430.339 50.0363 429.666C49.0688 428.717 48.2726 427.46 47.7119 425.997C47.1512 424.534 46.8416 422.905 46.8081 421.241V401.428L53.3855 406.809V426.622C53.3451 429.506 54.6445 430.817 56.3473 429.848Z" fill="black"/>
<path d="M53.3452 406.809V426.622C53.3452 429.78 54.9593 431.057 56.8558 429.484L247.317 274.159C248.334 273.222 249.181 271.962 249.791 270.479C250.401 268.996 250.756 267.332 250.827 265.62V245.716L53.3452 406.809Z" fill="#BA68C8"/>
<path opacity="0.3" d="M53.353 406.763V426.622C53.353 429.78 54.9671 431.057 56.8636 429.484L247.325 274.159C248.34 273.221 249.186 271.96 249.794 270.477C250.402 268.995 250.756 267.331 250.827 265.62V245.716L53.353 406.763Z" fill="black"/>
<path d="M59.9307 381.9V206.785C59.9682 205.753 60.1779 204.749 60.5425 203.853C60.9072 202.958 61.4165 202.197 62.029 201.632L242.112 54.7202C243.274 53.774 244.218 54.5378 244.218 56.4302V231.637C244.179 232.669 243.968 233.674 243.602 234.57C243.236 235.465 242.725 236.226 242.112 236.79L62.037 383.667C60.8749 384.613 59.9307 383.838 59.9307 381.9Z" fill="#BA68C8"/>
<path d="M59.9307 381.9V206.785C59.9682 205.753 60.1779 204.749 60.5425 203.853C60.9072 202.958 61.4165 202.197 62.029 201.632L242.112 54.7202C243.274 53.774 244.218 54.5378 244.218 56.4302V231.637C244.179 232.669 243.968 233.674 243.602 234.57C243.236 235.465 242.725 236.226 242.112 236.79L62.037 383.667C60.8749 384.613 59.9307 383.838 59.9307 381.9Z" fill="#263238"/>
<path d="M152.086 332.572C151.128 333.453 150.33 334.641 149.758 336.039C149.185 337.438 148.855 339.008 148.793 340.621C148.793 343.585 150.27 344.793 152.086 343.311C153.046 342.429 153.844 341.239 154.417 339.839C154.989 338.438 155.319 336.866 155.379 335.251C155.379 332.287 153.902 331.09 152.086 332.572Z" fill="#BA68C8"/>
<path opacity="0.7" d="M54.3862 198.794C53.7607 200.279 53.4032 201.958 53.3451 203.684V406.809L46.8081 401.429V198.36C46.8504 196.629 47.2061 194.941 47.8411 193.458L54.3862 198.794Z" fill="black"/>
<path opacity="0.3" d="M250.795 41.8266C250.545 39.273 249.084 38.4066 247.317 39.786L56.8555 195.111C55.8229 196.024 54.9705 197.29 54.3779 198.793L47.7925 193.424C48.389 191.921 49.2439 190.655 50.2782 189.742L240.739 34.428C241.784 33.6445 242.944 33.2196 244.126 33.1879C245.308 33.1563 246.478 33.5186 247.543 34.2456C248.438 35.1067 249.191 36.2292 249.752 37.5371C250.313 38.845 250.669 40.3078 250.795 41.8266Z" fill="black"/>
<path d="M261.065 68.6157C260.782 68.4152 260.466 68.3273 260.15 68.3614C259.834 68.3956 259.531 68.5505 259.273 68.8095L79.5623 215.459C78.8531 216.121 78.2645 217.011 77.8438 218.054C77.4232 219.098 77.1825 220.267 77.1411 221.467V395.51C77.116 396.098 77.1986 396.684 77.3809 397.214C77.5633 397.743 77.8393 398.197 78.1822 398.531C78.5777 398.839 80.6921 400.572 81.3216 401.05C81.5443 401.211 81.7932 401.285 82.0427 401.264C82.2922 401.244 82.5335 401.131 82.742 400.936L262.413 254.287C263.122 253.624 263.711 252.735 264.131 251.692C264.552 250.648 264.792 249.479 264.834 248.279V73.3353C264.87 72.8933 264.818 72.4457 264.684 72.043C264.55 71.6402 264.339 71.2982 264.075 71.0553C263.672 70.6791 261.517 68.9919 261.065 68.6157Z" fill="#A022F5"/>
<path d="M82.7053 217.923L262.425 71.3296C263.781 70.1896 264.846 71.1244 264.846 73.336V248.281C264.805 249.48 264.564 250.649 264.143 251.693C263.723 252.737 263.134 253.626 262.425 254.289L82.7053 400.939C81.3495 402.079 80.2842 400.243 80.2842 398.032V223.93C80.3268 222.731 80.5681 221.563 80.9886 220.519C81.4091 219.476 81.9971 218.587 82.7053 217.923Z" fill="#232531"/>
<path d="M263.523 71.9908C263.999 71.9908 264.071 72.8344 264.071 73.336V248.28C264.028 249.285 263.819 250.261 263.462 251.132C263.105 252.003 262.609 252.744 262.013 253.296L82.3179 399.946C82.1973 400.057 82.058 400.12 81.9144 400.128C81.4625 400.128 81.1074 399.148 81.1074 398.031V223.93C81.1463 222.926 81.3486 221.948 81.6985 221.072C82.0484 220.196 82.5365 219.446 83.125 218.88L262.829 72.31C263.036 72.1205 263.276 72.0105 263.523 71.9908ZM263.523 70.8508C263.134 70.8742 262.756 71.0391 262.425 71.3296L82.7053 217.922C81.9971 218.586 81.4091 219.476 80.9886 220.519C80.5681 221.563 80.3268 222.731 80.2842 223.93V398.031C80.2842 399.786 80.9782 401.268 81.8983 401.268C82.1832 401.261 82.4617 401.147 82.7053 400.938L262.417 254.288C263.126 253.626 263.715 252.736 264.135 251.693C264.556 250.649 264.797 249.48 264.838 248.28V73.336C264.838 71.7628 264.289 70.8508 263.482 70.8508H263.523Z" fill="#E0E0E0"/>
<path d="M78.1374 398.533C78.4037 398.726 80.3164 400.265 81.1557 400.949C80.8543 400.596 80.6156 400.148 80.4587 399.642C80.3017 399.135 80.2309 398.583 80.2518 398.031V235.296L77.1044 232.697V395.512C77.0783 396.098 77.1597 396.684 77.3406 397.213C77.5215 397.743 77.796 398.197 78.1374 398.533Z" fill="#F0F0F0"/>
<path d="M264.878 73.3019C264.878 71.1131 263.772 70.2239 262.457 71.3297L82.7053 217.923C81.9971 218.586 81.4091 219.476 80.9886 220.519C80.5681 221.563 80.3268 222.731 80.2842 223.93V235.33L264.878 84.7019V73.3019Z" fill="#A022F5"/>
<g opacity="0.4">
<path d="M262.425 71.3298L82.7053 217.911C81.984 218.554 81.3898 219.444 80.9782 220.499L77.855 217.934C78.2659 216.916 78.855 216.064 79.5659 215.46L259.277 68.8104C259.535 68.5495 259.837 68.3926 260.153 68.3564C260.469 68.3203 260.785 68.4063 261.069 68.6052C261.505 68.9928 263.547 70.623 264.071 71.022C263.8 70.8799 263.508 70.8336 263.221 70.8872C262.934 70.9409 262.661 71.0928 262.425 71.3298Z" fill="#232531"/>
</g>
<path opacity="0.15" d="M77.1045 232.708V221.411C77.1376 220.18 77.3962 218.982 77.855 217.934L80.9864 220.488C80.5341 221.517 80.2809 222.697 80.2519 223.908V235.308L77.1045 232.708Z" fill="#F1F1F3"/>
<path d="M226.98 204.539L119.345 292.319C118.821 292.799 118.385 293.446 118.073 294.209C117.76 294.971 117.579 295.828 117.545 296.708V340.301C117.579 341.181 117.76 342.038 118.073 342.8C118.385 343.563 118.821 344.211 119.345 344.69L122.484 347.244C123.042 347.643 123.658 347.85 124.284 347.85C124.909 347.85 125.525 347.643 126.083 347.244L233.702 259.464C234.226 258.982 234.662 258.332 234.974 257.567C235.287 256.803 235.468 255.945 235.502 255.064V211.458C235.468 210.578 235.287 209.722 234.974 208.96C234.661 208.197 234.226 207.549 233.702 207.069L230.555 204.516C229.999 204.124 229.386 203.921 228.765 203.925C228.144 203.929 227.532 204.139 226.98 204.539Z" fill="#A022F5"/>
<path opacity="0.5" d="M235.502 211.071C235.373 209.76 234.622 209.281 233.718 210.022L126.083 297.802C125.553 298.268 125.116 298.92 124.816 299.694L118.078 294.2C118.38 293.437 118.813 292.794 119.337 292.33L226.979 204.55C227.536 204.151 228.151 203.942 228.775 203.942C229.399 203.942 230.014 204.151 230.571 204.55L233.718 207.104C234.198 207.548 234.605 208.131 234.913 208.816C235.22 209.5 235.421 210.269 235.502 211.071Z" fill="#232531"/>
<path d="M125.777 347.46C125.25 347.754 124.685 347.887 124.119 347.852C123.553 347.816 122.999 347.613 122.492 347.255L119.345 344.701C118.822 344.22 118.387 343.572 118.074 342.81C117.762 342.048 117.58 341.192 117.545 340.312V296.719C117.569 295.829 117.752 294.962 118.078 294.199L124.816 299.694C124.489 300.447 124.305 301.308 124.284 302.191V345.796C124.284 347.244 124.929 347.916 125.777 347.46Z" fill="#232531"/>
<path d="M126.083 297.803L233.718 210.022C234.711 209.213 235.518 209.863 235.518 211.482V255.087C235.484 255.968 235.303 256.826 234.99 257.591C234.677 258.355 234.242 259.005 233.718 259.487L126.099 347.267C125.107 348.077 124.3 347.415 124.3 345.797V302.203C124.332 301.323 124.51 300.467 124.82 299.702C125.13 298.938 125.563 298.287 126.083 297.803Z" fill="#A022F5"/>
<path d="M198.442 227.818L119.353 292.33C118.829 292.794 118.396 293.437 118.094 294.2L124.833 299.695C125.132 298.92 125.569 298.268 126.1 297.802L205.189 233.301L198.442 227.818Z" fill="#455A64"/>
<path d="M205.173 233.301L126.083 297.802C125.56 298.284 125.124 298.934 124.811 299.698C124.499 300.463 124.318 301.32 124.284 302.202V345.784C124.284 347.403 125.091 348.064 126.083 347.255L205.173 282.754V233.301Z" fill="#F1F1F3"/>
<path d="M144.323 292.49L185.135 259.213C186.821 257.834 188.193 258.814 188.193 261.402C188.118 262.856 187.801 264.263 187.268 265.511C186.735 266.759 186.001 267.812 185.126 268.584L144.323 301.872C142.636 303.252 141.256 302.271 141.256 299.683C141.332 298.229 141.649 296.82 142.182 295.57C142.715 294.321 143.448 293.265 144.323 292.49Z" fill="#A022F5"/>
<path d="M152.684 303.514C152.691 303.502 152.701 303.492 152.711 303.485C152.721 303.479 152.733 303.475 152.744 303.475C152.756 303.475 152.767 303.479 152.777 303.485C152.788 303.492 152.797 303.502 152.805 303.514C152.841 303.591 152.858 303.683 152.853 303.776V310.263C152.854 310.889 152.816 311.515 152.74 312.132C152.673 312.696 152.56 313.247 152.401 313.774C152.257 314.256 152.067 314.708 151.836 315.119C151.609 315.5 151.336 315.82 151.029 316.065C150.789 316.286 150.509 316.405 150.222 316.407C150.113 316.395 150.006 316.351 149.909 316.279C149.812 316.206 149.726 316.106 149.657 315.985C149.48 315.65 149.364 315.259 149.318 314.845C149.241 314.294 149.206 313.732 149.213 313.169V306.672C149.213 306.558 149.23 306.445 149.262 306.341C149.282 306.247 149.325 306.166 149.383 306.113L149.891 305.691C149.908 305.669 149.929 305.657 149.952 305.657C149.974 305.657 149.996 305.669 150.012 305.691C150.05 305.768 150.067 305.861 150.061 305.953V312.36C150.055 312.713 150.079 313.065 150.133 313.409C150.156 313.629 150.223 313.835 150.327 314.002C150.363 314.063 150.409 314.111 150.461 314.143C150.513 314.174 150.569 314.189 150.626 314.184C150.764 314.171 150.897 314.108 151.013 314.002C151.157 313.881 151.287 313.731 151.4 313.557C151.526 313.352 151.63 313.122 151.707 312.873C151.798 312.581 151.866 312.275 151.909 311.961C151.956 311.585 151.978 311.203 151.973 310.821V304.403C151.976 304.288 151.995 304.176 152.03 304.072C152.05 303.978 152.093 303.897 152.151 303.844L152.684 303.514Z" fill="#232531"/>
<path d="M155.847 309.647C155.851 309.563 155.837 309.48 155.806 309.408C155.787 309.378 155.763 309.355 155.737 309.341C155.71 309.327 155.681 309.323 155.653 309.328C155.554 309.309 155.454 309.309 155.354 309.328L154.886 309.453C154.735 309.506 154.577 309.506 154.426 309.453C154.308 309.399 154.206 309.291 154.136 309.145C154.057 308.96 154.005 308.755 153.982 308.541C153.904 307.931 153.904 307.305 153.982 306.694C154.043 306.344 154.13 306.004 154.241 305.68C154.351 305.356 154.487 305.05 154.644 304.768C154.797 304.499 154.983 304.271 155.193 304.095C155.363 303.949 155.553 303.856 155.75 303.822C155.893 303.801 156.037 303.844 156.162 303.947C156.28 304.049 156.373 304.2 156.428 304.38C156.493 304.593 156.529 304.821 156.533 305.053C156.541 305.167 156.524 305.283 156.484 305.383C156.465 305.477 156.422 305.558 156.363 305.611L155.879 306.01C155.857 306.028 155.832 306.038 155.806 306.038C155.781 306.038 155.756 306.028 155.734 306.01L155.629 305.896C155.587 305.85 155.537 305.822 155.484 305.817C155.38 305.833 155.28 305.884 155.193 305.965C155.066 306.073 154.954 306.212 154.862 306.375C154.765 306.555 154.713 306.776 154.717 307.002C154.706 307.089 154.706 307.178 154.717 307.264C154.732 307.296 154.753 307.323 154.776 307.343C154.8 307.363 154.827 307.375 154.854 307.378C154.942 307.399 155.032 307.399 155.12 307.378L155.572 307.264C155.952 307.162 156.21 307.264 156.379 307.561C156.557 307.983 156.639 308.473 156.613 308.963C156.611 309.302 156.579 309.639 156.517 309.966C156.453 310.322 156.361 310.666 156.242 310.992C156.124 311.33 155.974 311.644 155.798 311.927C155.631 312.204 155.432 312.439 155.209 312.622C155.032 312.783 154.83 312.88 154.62 312.907C154.468 312.915 154.319 312.855 154.192 312.736C154.068 312.616 153.972 312.445 153.918 312.246C153.853 312.03 153.82 311.797 153.821 311.562C153.814 311.444 153.83 311.325 153.87 311.22C153.889 311.126 153.932 311.045 153.991 310.992L154.475 310.593C154.539 310.593 154.588 310.536 154.62 310.593L154.725 310.753C154.746 310.787 154.772 310.814 154.802 310.834C154.831 310.853 154.862 310.865 154.894 310.867C155.008 310.868 155.119 310.815 155.209 310.719C155.355 310.602 155.486 310.451 155.597 310.274C155.652 310.18 155.698 310.077 155.734 309.966C155.791 309.876 155.83 309.766 155.847 309.647Z" fill="#232531"/>
<path d="M157.493 306.558C157.492 305.965 157.527 305.374 157.598 304.791C157.666 304.241 157.771 303.703 157.913 303.183C158.032 302.717 158.195 302.276 158.397 301.872C158.566 301.525 158.787 301.233 159.043 301.017C159.23 300.84 159.458 300.77 159.68 300.823C159.878 300.888 160.051 301.055 160.165 301.291C160.317 301.6 160.424 301.949 160.479 302.317C160.557 302.795 160.595 303.285 160.592 303.776V304.483C160.595 304.602 160.576 304.72 160.536 304.825C160.516 304.919 160.473 305 160.415 305.053L158.317 306.774C158.312 306.975 158.331 307.175 158.373 307.367C158.404 307.496 158.46 307.61 158.535 307.698C158.601 307.772 158.684 307.808 158.769 307.8C158.866 307.784 158.96 307.737 159.043 307.663C159.165 307.57 159.274 307.446 159.366 307.299C159.448 307.167 159.519 307.022 159.576 306.865C159.61 306.775 159.648 306.688 159.689 306.603C159.723 306.545 159.764 306.495 159.81 306.455L160.31 306.045C160.327 306.025 160.349 306.015 160.371 306.015C160.393 306.015 160.414 306.025 160.431 306.045C160.452 306.081 160.468 306.123 160.476 306.168C160.484 306.213 160.486 306.261 160.479 306.307C160.471 306.529 160.438 306.748 160.383 306.957C160.313 307.273 160.221 307.578 160.108 307.869C159.982 308.202 159.83 308.516 159.656 308.803C159.483 309.097 159.275 309.348 159.043 309.544C158.852 309.721 158.624 309.797 158.397 309.761C158.199 309.694 158.026 309.522 157.913 309.282C157.754 308.936 157.647 308.548 157.598 308.142C157.525 307.62 157.49 307.089 157.493 306.558ZM159.043 302.921C158.919 303.015 158.811 303.148 158.728 303.309C158.639 303.468 158.565 303.645 158.51 303.833C158.454 304.021 158.408 304.216 158.373 304.414C158.345 304.595 158.326 304.777 158.317 304.962L159.737 303.822C159.729 303.664 159.713 303.508 159.689 303.354C159.676 303.216 159.637 303.086 159.576 302.978C159.551 302.929 159.52 302.887 159.484 302.856C159.448 302.824 159.408 302.804 159.366 302.796C159.251 302.782 159.137 302.826 159.043 302.921Z" fill="#232531"/>
<path d="M163.127 299.74C162.882 299.937 162.69 300.241 162.578 300.606C162.453 301.087 162.395 301.599 162.409 302.111V306.226C162.41 306.344 162.393 306.461 162.36 306.568C162.34 306.662 162.298 306.743 162.239 306.796L161.763 307.184C161.755 307.196 161.746 307.206 161.736 307.212C161.725 307.219 161.714 307.223 161.703 307.223C161.691 307.223 161.68 307.219 161.669 307.212C161.659 307.206 161.65 307.196 161.642 307.184C161.606 307.107 161.589 307.014 161.594 306.922V299.546C161.594 299.429 161.61 299.313 161.642 299.204C161.665 299.112 161.707 299.032 161.763 298.976L162.239 298.588C162.256 298.567 162.277 298.555 162.3 298.555C162.322 298.555 162.344 298.567 162.36 298.588C162.398 298.661 162.415 298.75 162.409 298.839V299.204C162.505 298.898 162.624 298.608 162.764 298.338C162.891 298.088 163.057 297.882 163.248 297.733L163.539 297.494C163.554 297.473 163.574 297.461 163.595 297.461C163.616 297.461 163.636 297.473 163.651 297.494C163.69 297.57 163.71 297.662 163.708 297.756V298.794C163.707 298.912 163.687 299.029 163.651 299.136C163.631 299.226 163.592 299.306 163.539 299.364L163.127 299.74Z" fill="#232531"/>
<path d="M169.147 299.193C169.155 299.181 169.164 299.171 169.174 299.164C169.185 299.158 169.196 299.154 169.208 299.154C169.219 299.154 169.23 299.158 169.241 299.164C169.251 299.171 169.261 299.181 169.268 299.193C169.304 299.271 169.321 299.363 169.317 299.455V300.595C169.316 300.713 169.3 300.829 169.268 300.937C169.24 301.022 169.199 301.096 169.147 301.154L166.387 303.434C166.371 303.455 166.349 303.467 166.327 303.467C166.304 303.467 166.282 303.455 166.266 303.434C166.23 303.361 166.213 303.272 166.218 303.183V292.923C166.218 292.806 166.234 292.69 166.266 292.581C166.289 292.492 166.331 292.416 166.387 292.364L166.895 291.943C166.912 291.921 166.934 291.909 166.956 291.909C166.978 291.909 167 291.921 167.017 291.943C167.053 292.016 167.07 292.104 167.065 292.193V300.869L169.147 299.193Z" fill="#232531"/>
<path d="M171.625 290.756C171.807 290.579 172.026 290.494 172.246 290.517C172.435 290.538 172.611 290.66 172.738 290.859C172.889 291.103 172.999 291.391 173.061 291.703C173.148 292.106 173.196 292.524 173.207 292.945C173.207 293.036 173.207 293.162 173.207 293.31V294.188C173.207 294.325 173.207 294.45 173.207 294.553C173.191 295.048 173.142 295.541 173.061 296.023C172.987 296.494 172.879 296.952 172.738 297.391C172.611 297.8 172.445 298.183 172.246 298.531C172.076 298.846 171.865 299.113 171.625 299.318C171.438 299.489 171.218 299.573 170.995 299.557C170.809 299.535 170.636 299.412 170.511 299.215C170.356 298.98 170.245 298.694 170.188 298.383C170.102 297.979 170.053 297.562 170.043 297.14C170.043 297.049 170.043 296.935 170.043 296.787V295.909C170.043 295.761 170.043 295.636 170.043 295.544C170.052 295.045 170.098 294.548 170.18 294.062C170.259 293.589 170.37 293.127 170.511 292.683C170.639 292.277 170.802 291.894 170.995 291.543C171.166 291.225 171.38 290.958 171.625 290.756ZM172.383 293.698C172.383 293.445 172.353 293.195 172.295 292.957C172.265 292.811 172.202 292.683 172.117 292.592C172.048 292.527 171.965 292.498 171.883 292.512C171.791 292.537 171.703 292.587 171.625 292.66C171.53 292.734 171.443 292.826 171.367 292.934C171.274 293.07 171.195 293.223 171.132 293.39C171.051 293.597 170.992 293.82 170.955 294.051C170.902 294.342 170.87 294.64 170.858 294.94C170.858 295.031 170.858 295.134 170.858 295.259V296.069C170.858 296.194 170.858 296.297 170.858 296.365C170.866 296.617 170.898 296.867 170.955 297.106C170.984 297.252 171.047 297.38 171.132 297.471C171.166 297.505 171.204 297.528 171.244 297.54C171.285 297.552 171.326 297.551 171.367 297.539C171.458 297.518 171.546 297.471 171.625 297.403C171.718 297.326 171.805 297.235 171.883 297.129C171.973 296.99 172.052 296.837 172.117 296.673C172.195 296.463 172.254 296.241 172.295 296.012C172.347 295.721 172.377 295.423 172.383 295.123C172.388 295.016 172.388 294.91 172.383 294.803V294.005C172.388 293.903 172.388 293.8 172.383 293.698Z" fill="#232531"/>
<path d="M175.676 297.426C175.779 297.337 175.872 297.225 175.95 297.095C176.047 296.934 176.131 296.759 176.2 296.571C176.281 296.342 176.343 296.101 176.386 295.853C176.436 295.573 176.46 295.286 176.459 294.998V294.416C176.459 294.53 176.378 294.667 176.321 294.827C176.266 294.993 176.201 295.154 176.128 295.306C176.043 295.466 175.952 295.618 175.853 295.762C175.752 295.911 175.635 296.038 175.506 296.138C175.423 296.218 175.33 296.273 175.231 296.3C175.133 296.328 175.031 296.327 174.933 296.297C174.754 296.218 174.6 296.053 174.498 295.83C174.366 295.535 174.27 295.212 174.215 294.872C174.146 294.442 174.108 294.003 174.102 293.561C174.102 293.413 174.102 293.231 174.102 293.014C174.102 292.798 174.102 292.615 174.102 292.456C174.112 291.954 174.15 291.455 174.215 290.962C174.281 290.477 174.376 290 174.498 289.537C174.612 289.135 174.758 288.752 174.933 288.397C175.082 288.083 175.278 287.818 175.506 287.622C175.614 287.531 175.731 287.465 175.853 287.428C175.944 287.404 176.037 287.404 176.128 287.428C176.199 287.457 176.265 287.507 176.321 287.576C176.373 287.632 176.419 287.697 176.459 287.77V287.405C176.459 287.288 176.475 287.172 176.507 287.063C176.53 286.974 176.572 286.898 176.628 286.847L177.104 286.448C177.121 286.426 177.142 286.414 177.165 286.414C177.187 286.414 177.209 286.426 177.225 286.448C177.264 286.524 177.284 286.616 177.282 286.71V294.12C177.304 295.23 177.158 296.333 176.854 297.358C176.616 298.163 176.203 298.841 175.676 299.296C175.496 299.453 175.29 299.544 175.079 299.558C174.911 299.572 174.745 299.512 174.602 299.387C174.466 299.242 174.355 299.055 174.28 298.84C174.201 298.58 174.157 298.301 174.15 298.019C174.143 297.901 174.16 297.782 174.199 297.677C174.219 297.583 174.262 297.502 174.32 297.449L174.748 297.107C174.757 297.092 174.769 297.08 174.783 297.072C174.796 297.064 174.81 297.06 174.824 297.06C174.839 297.06 174.853 297.064 174.866 297.072C174.879 297.08 174.891 297.092 174.901 297.107C174.941 297.166 174.976 297.231 175.006 297.301C175.055 297.423 175.136 297.513 175.232 297.551C175.329 297.654 175.474 297.54 175.676 297.426ZM174.917 291.897C174.917 292.201 174.917 292.497 174.917 292.786C174.894 293.241 174.986 293.694 175.175 294.063C175.247 294.15 175.339 294.198 175.434 294.198C175.528 294.198 175.62 294.15 175.692 294.063C175.926 293.848 176.109 293.538 176.217 293.174C176.363 292.698 176.446 292.188 176.459 291.669C176.459 291.498 176.459 291.293 176.459 291.053C176.459 290.814 176.459 290.609 176.459 290.461C176.475 290.052 176.389 289.649 176.217 289.321C176.145 289.228 176.051 289.176 175.954 289.176C175.857 289.176 175.763 289.228 175.692 289.321C175.462 289.535 175.283 289.84 175.175 290.198C175.01 290.734 174.922 291.312 174.917 291.897Z" fill="#232531"/>
<path d="M179.162 281.774C179.178 281.755 179.198 281.745 179.219 281.745C179.239 281.745 179.259 281.755 179.275 281.774C179.318 281.847 179.338 281.941 179.332 282.036V283.278C179.332 283.397 179.313 283.514 179.275 283.62C179.253 283.706 179.214 283.781 179.162 283.837L178.622 284.282C178.614 284.294 178.605 284.303 178.594 284.31C178.584 284.317 178.573 284.32 178.561 284.32C178.55 284.32 178.538 284.317 178.528 284.31C178.517 284.303 178.508 284.294 178.501 284.282C178.479 284.247 178.464 284.208 178.454 284.164C178.444 284.121 178.441 284.076 178.444 284.031V282.788C178.444 282.669 178.463 282.552 178.501 282.446C178.523 282.357 178.566 282.281 178.622 282.23L179.162 281.774ZM179.3 292.478C179.3 292.592 179.283 292.704 179.251 292.809C179.225 292.898 179.184 292.977 179.13 293.037L178.646 293.424C178.639 293.436 178.63 293.446 178.621 293.452C178.611 293.459 178.6 293.462 178.589 293.462C178.579 293.462 178.568 293.459 178.558 293.452C178.548 293.446 178.54 293.436 178.533 293.424C178.491 293.351 178.47 293.257 178.476 293.162V285.786C178.476 285.668 178.495 285.55 178.533 285.444C178.556 285.356 178.595 285.277 178.646 285.216L179.13 284.829C179.146 284.807 179.168 284.795 179.191 284.795C179.213 284.795 179.235 284.807 179.251 284.829C179.287 284.902 179.304 284.991 179.3 285.08V292.478Z" fill="#232531"/>
<path d="M183.545 289.001C183.544 289.119 183.528 289.235 183.496 289.343C183.474 289.432 183.431 289.508 183.375 289.56L182.891 289.959C182.876 289.98 182.856 289.991 182.835 289.991C182.814 289.991 182.793 289.98 182.778 289.959C182.736 289.885 182.716 289.791 182.722 289.697V285.684C182.746 285.21 182.685 284.735 182.544 284.304C182.431 284.019 182.254 283.974 182.003 284.179C181.754 284.416 181.569 284.766 181.479 285.171C181.344 285.709 181.278 286.276 181.285 286.847V290.871C181.285 290.988 181.268 291.104 181.237 291.213C181.217 291.307 181.174 291.388 181.116 291.441L180.639 291.828C180.632 291.841 180.623 291.85 180.612 291.857C180.602 291.864 180.59 291.867 180.579 291.867C180.567 291.867 180.556 291.864 180.546 291.857C180.535 291.85 180.526 291.841 180.518 291.828C180.481 291.756 180.464 291.667 180.47 291.578V284.202C180.469 284.084 180.485 283.968 180.518 283.86C180.538 283.766 180.581 283.685 180.639 283.632L181.116 283.244C181.123 283.232 181.133 283.222 181.143 283.216C181.153 283.209 181.165 283.206 181.176 283.206C181.188 283.206 181.199 283.209 181.209 283.216C181.22 283.222 181.229 283.232 181.237 283.244C181.273 283.322 181.29 283.414 181.285 283.506V283.86C181.391 283.512 181.521 283.18 181.672 282.868C181.805 282.58 181.985 282.342 182.197 282.173C182.381 281.983 182.609 281.901 182.835 281.945C182.924 281.976 183.007 282.034 183.08 282.115C183.152 282.196 183.212 282.297 183.254 282.412C183.371 282.721 183.448 283.057 183.48 283.404C183.523 283.857 183.545 284.314 183.545 284.772V289.001Z" fill="#232531"/>
<path d="M224.251 255.816L216.415 262.2L217.634 246.673C216.689 245.967 216.092 244.245 216.092 241.771C216.092 237.36 217.997 232.241 220.337 230.371C222.678 228.502 224.574 230.485 224.574 234.931C224.526 237.547 223.997 240.1 223.041 242.341L224.251 255.816Z" fill="#455A64"/>
<path d="M224.26 255.816L217.36 250.196L216.416 262.211L224.26 255.816Z" fill="#F1F1F3"/>
<path d="M220.322 230.337C218.615 231.966 217.342 234.353 216.706 237.12L223.025 242.273C223.982 240.032 224.51 237.479 224.559 234.863C224.575 230.451 222.678 228.433 220.322 230.337Z" fill="#F1F1F3"/>
<path d="M182.229 178.638C179.542 176.449 175.837 176.757 171.738 180.097C163.554 186.778 156.92 203 156.92 216.349C156.92 223.052 158.599 227.749 161.295 229.915L166.516 234.202C169.195 236.39 172.9 236.071 177.008 232.731C185.191 226.062 191.825 209.828 191.825 196.479C191.825 189.81 190.162 185.079 187.483 182.947" fill="#A022F5"/>
<path d="M176.999 184.395C168.816 191.075 162.182 207.309 162.182 220.647C162.182 233.985 168.816 239.411 176.999 232.731C185.183 226.05 191.825 209.828 191.817 196.479C191.808 183.129 185.175 177.726 176.999 184.395Z" fill="#A022F5"/>
<path d="M185.175 214.012V215.54C183.215 220.483 180.403 224.647 177 227.646C173.812 230.234 170.931 230.519 168.816 228.866V225.72C168.925 222.446 169.586 219.257 170.746 216.419C171.906 213.581 173.53 211.176 175.483 209.406L177.637 207.651C179.542 206.1 181.398 205.895 182.851 207.092C184.304 208.289 185.175 210.809 185.175 214.012Z" fill="#A022F5"/>
<path opacity="0.4" d="M182.229 178.638L187.475 182.947C184.796 180.747 181.091 181.055 176.983 184.395C171.625 188.773 166.928 197.243 164.329 206.317L159.075 202.02C161.682 192.9 166.339 184.475 171.73 180.097C175.845 176.769 179.55 176.449 182.229 178.638Z" fill="#232531"/>
<path opacity="0.2" d="M166.33 234.03L161.302 229.915C158.607 227.749 156.928 223.075 156.928 216.349L162.182 220.658C162.214 227.156 163.764 231.784 166.33 234.03Z" fill="#F1F1F3"/>
<path opacity="0.1" d="M159.092 202.02L164.345 206.317C162.999 210.86 162.276 215.723 162.215 220.647L156.961 216.338C157.026 211.418 157.749 206.56 159.092 202.02Z" fill="#F1F1F3"/>
<path d="M175.127 206.932C174.627 206.94 174.133 206.759 173.699 206.408C173.175 205.915 172.755 205.231 172.484 204.428C172.212 203.625 172.1 202.734 172.157 201.848C172.226 199.771 172.645 197.747 173.381 195.947C174.117 194.146 175.147 192.62 176.386 191.497C176.884 190.936 177.49 190.6 178.125 190.533C178.76 190.466 179.394 190.671 179.945 191.122C180.496 191.573 180.938 192.248 181.213 193.059C181.488 193.871 181.584 194.78 181.487 195.669C181.417 197.746 180.997 199.769 180.261 201.569C179.525 203.37 178.496 204.896 177.258 206.02C176.617 206.585 175.882 206.9 175.127 206.932Z" fill="#232531"/>
<path d="M182.851 207.081C181.398 205.884 179.542 206.089 177.637 207.64L175.483 209.395C173.529 211.166 171.904 213.572 170.744 216.413C169.584 219.253 168.923 222.444 168.816 225.72V228.878C170.931 230.531 173.812 230.246 177 227.658C180.403 224.658 183.215 220.494 185.175 215.551V214.024C185.175 210.809 184.336 208.289 182.851 207.081Z" fill="#232531"/>
<path d="M348.762 404.301C348.762 404.301 349.835 390.986 354.524 380.646C359.213 370.307 365.653 363.866 371.665 363.193C377.678 362.52 382.536 370.341 376.104 375.733C369.672 381.125 358.244 386.574 352.983 406.638L348.762 404.301Z" fill="#BA68C8"/>
<path opacity="0.1" d="M348.762 404.301C348.762 404.301 349.835 390.986 354.524 380.646C359.213 370.307 365.653 363.866 371.665 363.193C377.678 362.52 382.536 370.341 376.104 375.733C369.672 381.125 358.244 386.574 352.983 406.638L348.762 404.301Z" fill="black"/>
<path d="M350.529 400.835H350.465C350.386 400.79 350.322 400.702 350.289 400.591C350.256 400.48 350.255 400.354 350.287 400.243C356.63 378.184 368.704 368.961 374.208 367.183C374.249 367.169 374.292 367.167 374.334 367.177C374.375 367.187 374.416 367.209 374.452 367.24C374.488 367.272 374.519 367.313 374.543 367.362C374.568 367.411 374.586 367.466 374.595 367.525C374.605 367.583 374.606 367.643 374.599 367.703C374.592 367.762 374.577 367.818 374.554 367.869C374.532 367.92 374.502 367.964 374.468 367.999C374.433 368.033 374.394 368.058 374.353 368.072C368.962 369.827 357.123 378.879 350.884 400.596C350.853 400.687 350.801 400.76 350.736 400.804C350.672 400.847 350.599 400.858 350.529 400.835Z" fill="white"/>
<path d="M382.634 401.097C382.093 402.83 380.753 403.742 379.51 404.449C378.268 405.156 376.912 405.92 376.234 407.561C374.878 410.867 377.105 415.541 375.653 418.745C375.311 419.39 374.88 419.93 374.386 420.334C373.892 420.737 373.346 420.996 372.78 421.093C371.852 421.332 370.907 421.332 369.971 421.446C369.523 421.438 369.075 421.389 368.632 421.298C367.327 420.887 365.964 421.091 364.75 421.88C362.885 423.362 362.329 426.679 361.183 429.244C360.482 430.754 359.56 432.033 358.477 432.993C357.395 433.953 356.179 434.572 354.912 434.807C354.105 434.955 352.491 435.172 351.684 434.499C351.62 434.456 351.561 434.402 351.506 434.34C351.385 434.157 351.24 433.918 351.175 433.793C351.171 433.766 351.171 433.739 351.175 433.713C350.844 431.991 351.385 430.213 351.409 428.435V428.115C351.353 426.052 351.312 424 351.28 421.948C351.21 418.148 351.183 414.348 351.199 410.548C351.199 408.086 351.006 405.395 351.748 403.081C352.555 400.527 354.589 400.471 355.356 397.974C355.662 396.971 355.824 395.91 356.122 394.896C356.584 393.421 357.323 392.153 358.259 391.23C359.196 390.308 360.293 389.766 361.433 389.663C364.976 389.413 368.147 393.459 371.69 393.083C372.602 392.981 373.498 392.582 374.402 392.354C377.267 391.59 380.584 392.741 382.198 396.173C382.552 396.879 382.777 397.699 382.853 398.558C382.929 399.417 382.854 400.289 382.634 401.097Z" fill="#BA68C8"/>
<path d="M350.82 425.813C350.743 425.781 350.679 425.709 350.64 425.611C350.601 425.513 350.59 425.397 350.61 425.289C355.501 399.365 374.821 395.649 379.365 396.082C379.405 396.085 379.444 396.099 379.48 396.123C379.516 396.148 379.548 396.183 379.574 396.225C379.601 396.268 379.621 396.317 379.633 396.371C379.646 396.425 379.651 396.481 379.647 396.538C379.639 396.649 379.601 396.751 379.541 396.823C379.481 396.895 379.403 396.932 379.324 396.925C374.894 396.481 355.977 400.14 351.191 425.517C351.168 425.624 351.117 425.716 351.048 425.771C350.979 425.826 350.897 425.841 350.82 425.813Z" fill="white"/>
<path d="M372.312 412.68C372.25 412.668 372.194 412.628 372.15 412.566C370.364 410.379 368.258 408.777 365.983 407.872C363.707 406.968 361.319 406.784 358.987 407.334C358.909 407.344 358.83 407.312 358.767 407.245C358.705 407.177 358.662 407.079 358.648 406.969C358.637 406.857 358.656 406.743 358.703 406.652C358.75 406.56 358.82 406.498 358.899 406.479C361.33 405.907 363.821 406.102 366.193 407.05C368.565 407.998 370.759 409.675 372.618 411.962C372.647 412.001 372.669 412.048 372.685 412.1C372.7 412.152 372.708 412.208 372.708 412.264C372.708 412.32 372.7 412.376 372.685 412.428C372.669 412.48 372.647 412.527 372.618 412.566C372.582 412.628 372.533 412.672 372.478 412.692C372.423 412.713 372.365 412.708 372.312 412.68Z" fill="white"/>
<path d="M304.351 91.1998L306.917 92.5906V84.6106C306.917 78.2722 310.492 76.756 314.374 79.9252C318.264 83.0944 321.412 90.7894 321.412 97.1278V98.2678C321.953 98.0343 322.524 97.9766 323.083 98.099C323.642 98.2214 324.174 98.5207 324.64 98.9746C326.114 100.332 327.34 102.162 328.22 104.315C329.099 106.468 329.606 108.884 329.7 111.366V111.891L333.283 114.809C334.253 115.703 335.06 116.907 335.639 118.323C336.218 119.739 336.553 121.327 336.616 122.96C336.616 125.97 335.123 127.19 333.283 125.685L304.351 102.075C303.381 101.184 302.574 99.9802 301.996 98.5636C301.418 97.1469 301.086 95.5572 301.026 93.9244C301.026 90.9262 302.503 89.7064 304.351 91.1998Z" fill="#E6E6E6"/>
<path d="M338.723 84.8843L343.379 88.6806C343.354 88.3931 343.34 88.1038 343.339 87.8142V85.9104C343.339 82.4904 345.017 81.1451 347.1 82.8437C347.994 83.6176 348.76 84.656 349.343 85.8875C349.682 81.6239 352.055 80.0394 354.928 82.3764C356.57 83.8854 357.937 85.9196 358.918 88.3142C359.9 90.7087 360.468 93.3963 360.577 96.159V99.009C360.598 100.148 360.435 101.278 360.101 102.315L363.975 105.461C364.579 106.027 365.08 106.785 365.439 107.674C365.798 108.563 366.004 109.558 366.041 110.58C366.041 112.461 365.105 113.225 363.951 112.29L338.723 91.77C338.112 91.2084 337.605 90.4509 337.242 89.5593C336.878 88.6677 336.67 87.6673 336.632 86.64C336.632 84.7134 337.568 83.9495 338.723 84.8843Z" fill="#E6E6E6"/>
<path d="M320.693 257.902C317.304 265.996 314.043 273.03 311.751 276.404C307.401 279.254 297.184 283.655 293.189 284.384C292.488 284.511 291.777 284.276 291.188 283.723C289.614 282.264 288.395 282.025 286.741 281.215C285.442 280.588 284.893 279.71 284.651 280.075C284.401 280.489 284.275 281.025 284.301 281.568C284.326 282.111 284.501 282.619 284.788 282.982C285.409 283.815 286.097 284.542 286.838 285.148C285.066 285.769 283.217 285.816 281.431 285.285C277.969 283.997 276.338 286.345 278.679 291.658C279.486 293.55 282.811 296.594 289.493 295.773C291.877 295.591 294.251 295.211 296.603 294.633C303.011 292.695 310.137 290.825 314.519 288.933C316.149 288.028 317.608 286.599 318.78 284.761C326.149 272.893 328.594 264.434 331.822 256.751L331.548 244.211C326.318 243.96 323.526 251.131 320.693 257.902Z" fill="#FFA8A7"/>
<path d="M332.444 243.96C330.927 243.659 329.381 243.949 327.973 244.799C326.565 245.649 325.348 247.026 324.454 248.782C320.871 255.269 314.527 270.841 314.527 270.841C314.527 270.841 316.601 278.65 322.202 279.961L331.201 262.793C331.201 262.793 335.462 250.868 332.444 243.96Z" fill="#455A64"/>
<path d="M351.901 418.995H346.034V433.77H351.901V418.995Z" fill="#FFA8A7"/>
<path d="M331.563 418.208L325.704 418.505L325.406 402.864L331.563 402.568V418.208Z" fill="#FFA8A7"/>
<path d="M352.724 291.099C352.724 299.33 351.869 365.643 351.869 365.643C351.998 368.015 353.483 372.392 353.184 381.501C352.74 393.87 352.151 426.383 352.151 426.383C351.144 427.111 350.033 427.505 348.901 427.537C347.77 427.569 346.649 427.236 345.622 426.565C345.622 426.565 340.861 380.965 339.811 368.756C338.891 358.051 336.535 322.62 336.535 322.62L333.363 364.503C334.036 368.997 334.28 373.598 334.09 378.183C333.815 383.883 331.927 413.387 331.927 413.387C330.913 414.231 329.777 414.739 328.603 414.871C327.43 415.004 326.251 414.757 325.156 414.15C325.156 414.15 321.814 369.69 321.75 364.469C321.669 358.541 323.703 291.031 323.703 291.031L352.724 291.099Z" fill="#37474F"/>
<path d="M346.034 429.507V428.275C345.469 428.629 344.169 435.948 341.837 439.071C339.989 441.556 337.471 444.418 336.825 447.188C336.18 449.958 340.336 451.657 342.071 451.212C344.073 450.688 347.559 448.602 348.431 446.652C349.302 444.703 349.714 441.876 350.424 440.462C351.134 439.048 352.772 437.475 353.152 435.834C353.27 434.298 353.157 432.744 352.821 431.274C352.546 429.746 352.256 428.07 351.901 428.218V429.153C351.074 430.112 350.033 430.629 348.963 430.612C348.108 430.715 346.026 430.464 346.034 429.507Z" fill="#263238"/>
<path d="M325.64 415.837C325.333 415.837 325.083 416.487 324.413 417.559C323.417 419.039 322.252 420.272 320.967 421.207C318.772 422.826 314.511 425.311 312.566 426.599C311.355 427.397 311.412 429.54 312.663 430.76C313.914 431.98 316.924 432.858 320.539 431.672C322.509 431.022 325.075 428.343 326.705 428.491C328.335 428.64 331.362 428.594 332.564 427.351C333.767 426.109 333.283 423.532 332.944 421.309C332.572 418.87 332.137 415.074 331.564 415.245V416.1C330.861 417.673 327.222 418.311 325.672 417.16L325.64 415.837Z" fill="#263238"/>
<path d="M336.535 322.62C333.483 321.209 330.693 318.852 328.368 315.723C328.368 315.723 329.982 320.066 334.63 324.113L333.63 361.517L336.535 322.62Z" fill="#263238"/>
<path d="M349.448 245.168C349.448 245.168 354.29 246.741 353.943 259.099L352.934 278.764V308.29C348.625 315.198 329.53 314.697 322.953 307.743C322.953 307.743 323.695 272.802 324.139 259.35C324.454 249.797 326.011 244.986 332.661 243.937L340.837 244.439L349.448 245.168Z" fill="#BA68C8"/>
<path d="M343.282 219.495C343.309 221.15 343.105 222.796 342.681 224.338C342.256 225.88 341.62 227.289 340.808 228.482C339.996 229.675 339.025 230.63 337.951 231.291C336.877 231.951 335.721 232.305 334.549 232.332C329.707 232.332 326.866 226.427 325.817 219.495C323.88 206.807 329.723 206.648 334.549 206.648C336.913 206.717 339.161 208.109 340.799 210.518C342.436 212.927 343.329 216.156 343.282 219.495Z" fill="#263238"/>
<path d="M347.737 224.682C347.737 224.682 346.397 233.939 345.856 235.467C345.516 236.386 344.938 237.084 344.242 237.416L344.339 230.907L347.737 224.682Z" fill="#263238"/>
<path d="M346.05 211.424C346.05 211.424 347.01 211.082 348.035 213.339C348.907 215.266 349.108 219.598 347.736 224.739L345.21 225.173L346.05 211.424Z" fill="#263238"/>
<path d="M346.978 213.305L350.077 213.385C350.098 213.102 350.078 212.816 350.017 212.545C349.956 212.274 349.856 212.023 349.724 211.809C349.591 211.595 349.429 211.422 349.246 211.301C349.064 211.179 348.866 211.113 348.665 211.105C348.241 211.114 347.835 211.343 347.523 211.749C347.212 212.155 347.018 212.709 346.978 213.305Z" fill="#263238"/>
<path d="M347.357 212.268L349.649 209.156C349.517 208.936 349.354 208.757 349.171 208.63C348.987 208.504 348.787 208.432 348.583 208.42C348.379 208.409 348.176 208.457 347.985 208.562C347.795 208.667 347.623 208.826 347.478 209.03C347.174 209.45 346.993 210.016 346.971 210.616C346.948 211.215 347.086 211.805 347.357 212.268Z" fill="#263238"/>
<path d="M344.452 225.115C344.96 225.56 345.679 224.135 346.308 223.166C346.938 222.197 348.891 221.308 349.908 224.454C350.924 227.601 349.189 230.713 347.737 231.739C345.13 233.563 344.307 230.907 344.307 230.907L344.089 245.567C340.425 253.547 332.112 253.296 335.106 245.179V240.722C333.875 241.011 332.624 241.103 331.378 240.996C329.344 240.54 328.069 238.18 327.448 234.942C326.463 229.744 326.084 225.549 326.923 215.323C327.843 204.128 336.704 204.003 341.45 208.483C346.195 212.963 344.452 225.115 344.452 225.115Z" fill="#FFA8A7"/>
<path d="M333.412 213.579C335.526 213.282 337.617 212.667 339.739 212.439C340.197 212.36 340.661 212.391 341.111 212.53C342.725 213.157 342.531 215.824 342.79 217.683C343.234 220.897 343.597 226.335 344.452 226.358C344.71 226.358 345.679 223.998 346.308 223.155C346.654 222.428 346.85 221.579 346.873 220.704C347.035 219.381 347.115 218.025 347.188 216.679C347.253 215.539 347.333 214.399 347.333 213.259C347.37 211.971 347.297 210.681 347.115 209.418C346.913 208.343 346.525 207.355 345.986 206.545L345.824 206.294C344.76 204.723 343.469 203.494 342.039 202.692C339.981 201.603 337.823 200.938 335.631 200.719C333.442 200.501 331.263 200.12 329.102 199.579C328.978 199.529 328.847 199.529 328.723 199.579C328.635 199.648 328.561 199.747 328.508 199.866C328.454 199.986 328.423 200.122 328.416 200.263C328.328 200.972 328.383 201.701 328.576 202.367C328.769 203.033 329.091 203.608 329.506 204.025C328.045 204.185 326.366 203.113 324.962 202.566C324.849 202.498 324.726 202.463 324.603 202.463C324.48 202.463 324.358 202.498 324.244 202.566C324.103 202.705 324.003 202.912 323.961 203.148C323.859 203.683 323.845 204.245 323.921 204.789C324.05 206.439 324.484 208.012 325.18 209.349C326.268 211.35 327.804 212.769 329.538 213.373C330.814 213.721 332.121 213.79 333.412 213.579Z" fill="#263238"/>
<path d="M335.115 240.722C335.115 240.722 339.65 239.377 341.232 238.134C342.174 237.406 342.939 236.294 343.427 234.942C343.189 236.3 342.764 237.578 342.176 238.704C341.022 240.893 335.115 242.489 335.115 242.489V240.722Z" fill="#F28F8F"/>
<path d="M336.204 223.44C336.195 223.792 336.286 224.134 336.455 224.393C336.624 224.651 336.859 224.804 337.108 224.819C337.306 224.842 337.504 224.78 337.676 224.641C337.849 224.503 337.987 224.294 338.074 224.042C338.161 223.79 338.192 223.507 338.163 223.229C338.134 222.952 338.046 222.694 337.911 222.488C337.777 222.283 337.601 222.139 337.408 222.077C337.214 222.015 337.012 222.036 336.827 222.139C336.643 222.242 336.485 222.421 336.373 222.653C336.262 222.885 336.203 223.16 336.204 223.44Z" fill="#263238"/>
<path d="M337.657 217.911L339.602 219.495C339.743 219.105 339.775 218.653 339.692 218.231C339.608 217.808 339.414 217.445 339.15 217.215C339.021 217.113 338.878 217.05 338.731 217.03C338.584 217.01 338.435 217.033 338.295 217.099C338.154 217.164 338.025 217.27 337.915 217.41C337.805 217.55 337.717 217.72 337.657 217.911Z" fill="#263238"/>
<path d="M335.518 232.685L333.444 233.825C333.486 234.026 333.556 234.213 333.651 234.374C333.746 234.535 333.863 234.666 333.996 234.76C334.128 234.854 334.273 234.909 334.421 234.921C334.569 234.932 334.717 234.901 334.856 234.829C335.138 234.657 335.364 234.34 335.487 233.942C335.61 233.544 335.621 233.094 335.518 232.685Z" fill="#F28F8F"/>
<path d="M327.859 219.085L329.635 217.079C329.555 216.903 329.45 216.754 329.327 216.64C329.204 216.526 329.065 216.449 328.92 216.416C328.774 216.383 328.626 216.393 328.483 216.446C328.341 216.5 328.208 216.595 328.093 216.725C327.856 217.009 327.701 217.407 327.658 217.842C327.615 218.277 327.686 218.72 327.859 219.085Z" fill="#263238"/>
<path d="M328.642 223.064C328.656 223.313 328.721 223.551 328.83 223.749C328.938 223.947 329.085 224.096 329.252 224.178C329.42 224.26 329.6 224.271 329.772 224.211C329.944 224.15 330.1 224.02 330.22 223.836C330.34 223.653 330.42 223.424 330.45 223.177C330.48 222.93 330.458 222.677 330.387 222.447C330.317 222.218 330.2 222.022 330.052 221.885C329.904 221.747 329.731 221.674 329.554 221.673C329.429 221.679 329.307 221.719 329.193 221.793C329.08 221.866 328.977 221.97 328.893 222.1C328.808 222.229 328.742 222.381 328.699 222.546C328.656 222.712 328.637 222.888 328.642 223.064Z" fill="#263238"/>
<path d="M333.508 221.992L333.404 230.097L330.143 229.049L333.508 221.992Z" fill="#F28F8F"/>
<path d="M256.082 289.879L261.142 285.752L263.143 282.321L258.091 286.448L256.082 289.879Z" fill="#BA68C8"/>
<path opacity="0.4" d="M256.082 289.879L261.142 285.752L263.143 282.321L258.091 286.448L256.082 289.879Z" fill="black"/>
<path d="M269.841 301.097L274.901 296.97L279.122 291.692L274.07 295.807L269.841 301.097Z" fill="#BA68C8"/>
<path opacity="0.4" d="M269.841 301.097L274.901 296.97L279.122 291.692L274.07 295.807L269.841 301.097Z" fill="black"/>
<path d="M312.824 315.335C314.021 317.601 314.745 320.294 314.915 323.11C313.723 320.841 313 318.15 312.824 315.335ZM324.583 315.552C322.88 299.193 316.658 283.016 309.249 276.963C305.69 274.056 302.397 273.953 299.758 276.131L294.997 280.007L294.731 280.235C294.519 280.4 294.314 280.582 294.117 280.782C293.726 281.162 293.359 281.589 293.02 282.059L292.858 282.275C292.713 282.481 292.56 282.72 292.422 282.948C292.285 283.176 292.075 283.529 291.914 283.837C291.571 284.474 291.261 285.145 290.986 285.844C290.841 286.197 290.703 286.573 290.574 286.984L248.988 253.08L243.936 257.195V261.755L244.363 262.097L244.767 262.428V263.34L243.96 264.013V266.657L250.069 284.897L256.106 289.834L258.115 286.414L263.442 290.917L266.5 298.315L269.874 301.063L274.095 295.773L279.276 300.002L281.019 310.16L289.727 317.273C290.157 319.859 290.696 322.405 291.341 324.9C291.397 325.151 291.47 325.413 291.543 325.698C294.432 336.414 299.024 345.591 304.205 349.82C304.826 350.341 305.477 350.787 306.15 351.154C306.506 351.354 306.87 351.525 307.24 351.667C307.562 351.789 307.885 351.891 308.208 351.975C309.227 352.237 310.272 352.237 311.291 351.975L311.711 351.827C311.911 351.77 312.108 351.69 312.3 351.587L312.752 351.337C312.912 351.255 313.066 351.152 313.212 351.029C313.361 350.938 313.506 350.835 313.648 350.721L313.857 350.539C313.895 350.521 313.931 350.494 313.962 350.459C315.116 349.524 317.957 347.198 318.732 346.583C322.573 343.436 325.059 335.479 325.059 324.227C325.053 321.323 324.893 318.423 324.583 315.552Z" fill="#BA68C8"/>
<path d="M311.347 329.141C309.346 327.511 307.732 322.677 307.732 318.345C307.732 314.013 309.346 311.813 311.347 313.432C313.349 315.051 314.955 319.896 314.955 324.239C314.955 328.582 313.341 330.771 311.347 329.141ZM319.523 319.668C317.828 303.32 311.605 287.132 304.189 281.09C300.751 278.286 297.571 278.08 294.989 280.007L294.722 280.235C294.51 280.4 294.305 280.583 294.109 280.782C293.718 281.162 293.351 281.59 293.011 282.059L292.85 282.276C292.705 282.481 292.551 282.72 292.414 282.948C292.277 283.176 292.067 283.53 291.906 283.837C291.563 284.474 291.253 285.145 290.978 285.844C290.832 286.197 290.695 286.573 290.566 286.984C289.814 289.187 289.271 291.522 288.952 293.926L243.927 257.196V261.756L244.355 262.098L244.758 262.428V263.34L243.951 264.013V266.658L250.061 284.898L256.097 289.834L258.107 286.414L263.433 290.917L266.492 298.315L269.865 301.063L274.086 295.773L279.267 300.003L281.011 310.16L289.727 317.274C290.157 319.859 290.696 322.405 291.341 324.9C291.397 325.151 291.47 325.413 291.542 325.698C294.432 336.414 299.024 345.591 304.205 349.821C304.826 350.341 305.476 350.787 306.15 351.154C306.506 351.354 306.87 351.526 307.239 351.667C307.562 351.789 307.885 351.892 308.208 351.975C309.227 352.238 310.271 352.238 311.291 351.975L311.71 351.827C311.911 351.77 312.108 351.69 312.3 351.588L312.751 351.337C312.911 351.255 313.065 351.152 313.211 351.029C313.361 350.938 313.506 350.835 313.647 350.721L313.857 350.539C313.895 350.521 313.931 350.494 313.962 350.459C317.642 347.176 320.007 339.333 320.007 328.354C319.993 325.446 319.831 322.543 319.523 319.668Z" fill="#BA68C8"/>
<path opacity="0.4" d="M314.955 324.227C314.955 328.571 313.341 330.771 311.347 329.141C309.354 327.51 307.732 322.688 307.732 318.345C307.732 314.001 309.346 311.801 311.347 313.431C311.924 313.927 312.426 314.578 312.824 315.347C312.998 318.162 313.721 320.853 314.915 323.121C314.944 323.489 314.958 323.858 314.955 324.227Z" fill="black"/>
<path opacity="0.4" d="M325.043 324.216C325.043 335.468 322.557 343.425 318.716 346.571C317.909 347.187 315.1 349.513 313.946 350.447C317.626 347.164 319.991 339.321 319.991 328.343C319.982 325.439 319.826 322.54 319.523 319.667C317.828 303.32 311.606 287.132 304.189 281.09C300.751 278.285 297.571 278.08 294.989 280.007L299.75 276.131C302.389 273.953 305.682 274.056 309.241 276.963C316.658 283.016 322.88 299.193 324.575 315.552C324.882 318.42 325.039 321.316 325.043 324.216Z" fill="white"/>
<path d="M319.991 328.32C319.991 339.298 317.626 347.141 313.946 350.424C315.1 349.49 317.941 347.164 318.715 346.548C322.557 343.402 325.043 335.445 325.043 324.193C325.043 323.783 325.043 323.361 325.043 322.939L319.991 327.066C319.982 327.51 319.991 327.921 319.991 328.32Z" fill="#BA68C8"/>
<path opacity="0.1" d="M319.991 328.32C319.991 339.298 317.626 347.141 313.946 350.424C315.1 349.49 317.941 347.164 318.715 346.548C322.557 343.402 325.043 335.445 325.043 324.193C325.043 323.783 325.043 323.361 325.043 322.939L319.991 327.066C319.982 327.51 319.991 327.921 319.991 328.32Z" fill="black"/>
<path opacity="0.15" d="M289.146 298.589V300.903L243.936 264.035L244.767 263.351V262.394L289.146 298.589Z" fill="black"/>
<path opacity="0.15" d="M289.146 299.546V300.903L243.936 264.035L244.767 263.351V263.34L289.146 299.546Z" fill="black"/>
<path opacity="0.15" d="M308.805 346.56C307.092 346.497 305.421 345.793 303.963 344.519C296.595 338.512 290.599 320.636 290.599 304.676C290.599 295.363 292.592 288.409 296.07 285.57C298.491 283.586 301.356 283.837 304.367 286.288C311.727 292.296 317.723 310.228 317.723 326.188C317.723 335.491 315.73 342.456 312.252 345.283C311.202 346.13 310.014 346.57 308.805 346.56ZM299.565 285.399C298.489 285.391 297.431 285.784 296.498 286.539C293.326 289.127 291.43 295.91 291.43 304.665C291.43 320.26 297.241 337.725 304.391 343.516C307.127 345.796 309.717 346.001 311.872 344.246C315.044 341.658 316.94 334.886 316.94 326.131C316.94 310.525 311.13 293.071 303.987 287.269C302.653 286.121 301.127 285.492 299.565 285.445V285.399Z" fill="black"/>
<path opacity="0.4" d="M290.534 286.961C289.781 289.164 289.239 291.499 288.92 293.903L243.895 257.173L248.947 253.057L290.534 286.961Z" fill="white"/>
<path d="M349.052 290.529C351.408 284.225 354.104 270.066 355.444 262.918C357.348 252.772 354.265 246.388 350.763 246.126C348.576 246.605 341.369 283.62 341.369 283.62C340.562 284.521 329.61 292.376 326.092 294.348C325.462 294.684 324.768 294.684 324.139 294.348C322.452 293.481 321.298 293.641 319.643 293.413C318.344 293.231 317.69 292.581 317.521 292.968C317.367 293.449 317.347 293.995 317.465 294.496C317.583 294.996 317.831 295.416 318.158 295.67C318.871 296.256 319.629 296.723 320.418 297.061C319.004 297.667 317.53 297.948 316.052 297.893C312.662 297.791 311.444 299.865 314.075 304.733C315.689 307.766 318.36 308.723 324.324 305.816C326.035 304.973 328.359 303.342 330.53 302.237C335.001 299.957 336.18 299.683 339.585 298.053C344.549 295.682 348.003 293.333 349.052 290.529Z" fill="#FFA8A7"/>
<path d="M349.447 245.168C351.505 245.567 353.483 246.217 354.701 248.588C355.92 250.959 356.896 254.288 355.702 263.351C354.787 269.725 353.563 276.002 352.038 282.139C352.038 282.139 347.244 285.034 342.152 277.692L345.654 258.563C345.654 258.563 346.219 246.126 349.447 245.168Z" fill="#455A64"/>
<path d="M122.533 121.056L119.336 122.909L110.251 117.672C103.515 113.78 91.718 114.265 83.9453 118.774C76.1726 123.283 75.3237 130.075 82.049 133.956L91.1226 139.193L87.9143 141.045C85.1029 142.666 84.8052 145.124 87.2308 146.558L112.247 160.967C113.534 161.559 114.928 161.881 116.344 161.915C117.76 161.949 119.168 161.694 120.482 161.166C135.058 155.554 147.681 148.266 157.383 139.854C157.783 139.566 158.107 139.186 158.329 138.747C158.552 138.308 158.666 137.822 158.662 137.329C158.594 136.855 158.41 136.406 158.125 136.021C157.84 135.636 157.464 135.328 157.031 135.124L132.026 120.682C129.6 119.259 125.345 119.436 122.533 121.056ZM135.896 143.548L126.888 148.752L119.777 142.82C117.493 143.295 115.117 143.001 113.018 141.982C110.339 140.439 110.67 137.748 113.746 135.962C116.822 134.176 121.464 133.989 124.187 135.532C125.918 136.536 126.392 138.024 125.631 139.435L135.896 143.548ZM113.559 126.249L96.9329 135.841L87.8592 130.604C83.8902 128.311 84.3973 124.298 88.9617 121.652C93.5261 119.006 100.505 118.719 104.474 121.012L113.559 126.249Z" fill="#232531"/>
</svg>
