<svg width="46" height="47" viewBox="0 0 46 47" fill="none" xmlns="http://www.w3.org/2000/svg">
<g clip-path="url(#clip0_281_1236)">
<path d="M45.5 23.5C45.5 10.5214 35.4263 0 23 0C10.5737 0 0.5 10.5214 0.5 23.5C0.5 35.2294 8.72797 44.9516 19.4844 46.7145V30.293H13.7715V23.5H19.4844V18.3227C19.4844 12.433 22.8436 9.17969 27.983 9.17969C30.4447 9.17969 33.0195 9.63867 33.0195 9.63867V15.4219H30.1824C27.3873 15.4219 26.5156 17.2334 26.5156 19.0919V23.5H32.7559L31.7583 30.293H26.5156V46.7145C37.272 44.9516 45.5 35.2296 45.5 23.5Z" fill="#1877F2"/>
<path d="M31.7583 30.293L32.7559 23.5H26.5156V19.0919C26.5156 17.2332 27.3873 15.4219 30.1824 15.4219H33.0195V9.63867C33.0195 9.63867 30.4447 9.17969 27.9829 9.17969C22.8436 9.17969 19.4844 12.433 19.4844 18.3227V23.5H13.7715V30.293H19.4844V46.7145C20.6474 46.9048 21.8228 47.0003 23 47C24.1772 47.0003 25.3526 46.9048 26.5156 46.7145V30.293H31.7583Z" fill="white"/>
</g>
<defs>
<clipPath id="clip0_281_1236">
<rect width="45" height="47" fill="white" transform="translate(0.5)"/>
</clipPath>
</defs>
</svg>
