<svg width="255" height="237" viewBox="0 0 255 237" fill="none" xmlns="http://www.w3.org/2000/svg">
<g clip-path="url(#clip0_260_5)">
<path d="M55.5332 187.7L107.709 218.016C108.437 218.439 109.263 218.662 110.105 218.662C110.947 218.662 111.773 218.439 112.501 218.016L207.264 163.326C207.445 163.221 207.595 163.07 207.7 162.888C207.804 162.707 207.859 162.501 207.859 162.291C207.859 162.082 207.804 161.876 207.7 161.694C207.595 161.513 207.445 161.362 207.264 161.257L155.822 131.362C155.097 130.946 154.276 130.727 153.441 130.727C152.605 130.727 151.784 130.946 151.059 131.362L55.5448 185.637C55.3644 185.741 55.2144 185.891 55.1098 186.072C55.0052 186.252 54.9496 186.457 54.9484 186.665C54.9472 186.874 55.0006 187.079 55.1032 187.26C55.2057 187.442 55.354 187.594 55.5332 187.7Z" fill="#E6E6E6"/>
<path d="M167.957 119.106L160.325 114.672L58.6259 165.316L66.2786 169.736L167.957 119.106Z" fill="#455A64"/>
<path d="M217.286 147.775L115.783 198.314L123.994 203.055L225.463 152.523L217.286 147.775Z" fill="#455A64"/>
<path opacity="0.3" d="M167.957 119.106L160.325 114.672L58.6259 165.316L66.2786 169.736L167.957 119.106Z" fill="white"/>
<path d="M115.783 198.314L66.2775 169.735L58.6247 165.315L44.3945 163.443L109.541 201.302L123.994 203.055L115.783 198.314Z" fill="#455A64"/>
<path opacity="0.5" d="M115.783 198.314L66.2775 169.735L58.6247 165.315L44.3945 163.443L109.541 201.302L123.994 203.055L115.783 198.314Z" fill="white"/>
<path opacity="0.3" d="M217.286 147.775L115.783 198.314L123.994 203.055L225.463 152.523L217.286 147.775Z" fill="white"/>
<path d="M109.541 201.302L44.3945 163.443L44.4085 180.62L44.4225 188.189L109.562 226.048L109.541 201.302Z" fill="#455A64"/>
<path d="M50.6925 182.547V176.835C50.6915 176.59 50.7553 176.348 50.8775 176.135C50.9996 175.922 51.1758 175.745 51.3883 175.622C51.6007 175.498 51.8419 175.433 52.0875 175.433C52.3332 175.433 52.5745 175.497 52.7872 175.62L101.469 203.913C101.999 204.219 102.44 204.66 102.746 205.191C103.053 205.722 103.214 206.324 103.214 206.936V212.648C103.215 212.894 103.151 213.135 103.029 213.348C102.907 213.561 102.731 213.738 102.518 213.862C102.306 213.985 102.065 214.05 101.819 214.05C101.574 214.05 101.332 213.986 101.12 213.863L52.459 185.57C51.9244 185.266 51.4795 184.827 51.1693 184.296C50.8591 183.765 50.6946 183.162 50.6925 182.547Z" fill="#37474F"/>
<path d="M109.541 201.302L109.562 226.047L225.491 159.114L225.464 152.522L123.995 203.054L109.541 201.302Z" fill="#455A64"/>
<path opacity="0.1" d="M109.541 201.302L109.562 226.047L225.491 159.114L225.464 152.522L123.995 203.054L109.541 201.302Z" fill="white"/>
<path d="M167.956 119.105L167.949 122.226H161.686L167.956 119.105Z" fill="#455A64"/>
<path d="M162.698 121.725L66.2776 169.736L115.783 198.315L214.389 149.215L167.341 121.872C166.64 121.464 165.849 121.237 165.038 121.211C164.228 121.186 163.423 121.362 162.698 121.725Z" fill="#37474F"/>
<path d="M110.819 125.794C110.264 125.794 109.731 126.015 109.338 126.407C108.945 126.8 108.724 127.333 108.724 127.889V197.496C109.991 198.287 111.427 198.765 112.914 198.893V127.896C112.915 127.62 112.861 127.347 112.757 127.092C112.652 126.837 112.497 126.605 112.303 126.41C112.108 126.215 111.877 126.06 111.622 125.954C111.368 125.848 111.095 125.794 110.819 125.794Z" fill="#E0E0E0"/>
<path opacity="0.2" d="M110.819 125.794C110.264 125.794 109.731 126.015 109.338 126.407C108.945 126.8 108.724 127.333 108.724 127.889V197.496C109.991 198.287 111.427 198.765 112.914 198.893V127.896C112.915 127.62 112.861 127.347 112.757 127.092C112.652 126.837 112.497 126.605 112.303 126.41C112.108 126.215 111.877 126.06 111.622 125.954C111.368 125.848 111.095 125.794 110.819 125.794Z" fill="black"/>
<path opacity="0.3" d="M110.819 125.794C110.264 125.794 109.731 126.015 109.338 126.407C108.945 126.8 108.724 127.333 108.724 127.889V133.915C109.962 134.135 111.217 134.247 112.474 134.25H112.921V127.896C112.922 127.619 112.868 127.346 112.763 127.09C112.658 126.835 112.503 126.603 112.307 126.407C112.112 126.212 111.88 126.057 111.625 125.952C111.369 125.847 111.095 125.793 110.819 125.794Z" fill="black"/>
<path d="M55.6785 96.021C55.1229 96.021 54.5901 96.2417 54.1973 96.6345C53.8044 97.0274 53.5837 97.5602 53.5837 98.1157V166.348C54.8666 167.076 56.3006 167.496 57.7732 167.577V98.1227C57.7741 97.847 57.7206 97.5739 57.6158 97.3189C57.5109 97.064 57.3567 96.8323 57.1621 96.637C56.9675 96.4418 56.7363 96.2868 56.4817 96.1811C56.2271 96.0754 55.9541 96.021 55.6785 96.021Z" fill="#E0E0E0"/>
<path opacity="0.2" d="M55.6785 96.021C55.1229 96.021 54.5901 96.2417 54.1973 96.6345C53.8044 97.0274 53.5837 97.5602 53.5837 98.1157V166.348C54.8666 167.076 56.3006 167.496 57.7732 167.577V98.1227C57.7741 97.847 57.7206 97.5739 57.6158 97.3189C57.5109 97.064 57.3567 96.8323 57.1621 96.637C56.9675 96.4418 56.7363 96.2868 56.4817 96.1811C56.2271 96.0754 55.9541 96.021 55.6785 96.021Z" fill="black"/>
<path opacity="0.3" d="M55.6785 96.021C55.1229 96.021 54.5901 96.2417 54.1973 96.6345C53.8044 97.0274 53.5837 97.5602 53.5837 98.1157V103.583L57.7732 106.013V98.1227C57.7741 97.847 57.7206 97.5739 57.6158 97.3189C57.5109 97.064 57.3567 96.8323 57.1621 96.637C56.9675 96.4418 56.7363 96.2868 56.4817 96.1811C56.2271 96.0754 55.9541 96.021 55.6785 96.021Z" fill="black"/>
<path d="M71.5988 81.8402C71.4582 81.6444 71.2708 81.4869 71.0537 81.382C70.8366 81.2771 70.5968 81.2282 70.356 81.2397L56.8659 84.312C57.1153 84.2869 57.3668 84.3294 57.5941 84.4351C57.8214 84.5408 58.016 84.7056 58.1577 84.9124C58.5787 85.4702 58.8616 86.1198 58.9829 86.808C59.1043 87.4962 59.0608 88.2034 58.8559 88.8715C58.8005 89.1155 58.6805 89.3402 58.5086 89.522C58.3366 89.7038 58.1189 89.836 57.8784 89.9049L71.3056 86.8326C71.5487 86.7659 71.7693 86.6346 71.9439 86.4527C72.1184 86.2707 72.2405 86.0449 72.2971 85.7992C72.498 85.1306 72.5395 84.4243 72.4183 83.7367C72.297 83.0492 72.0164 82.3997 71.5988 81.8402Z" fill="#455A64"/>
<path d="M58.883 88.8722C59.0879 88.2041 59.1314 87.4969 59.01 86.8087C58.8887 86.1205 58.6058 85.4709 58.1847 84.9131C58.0431 84.7063 57.8485 84.5415 57.6212 84.4358C57.3939 84.3301 57.1424 84.2876 56.893 84.3127L56.8092 84.3476C56.5887 84.4286 56.391 84.5618 56.233 84.7356C56.075 84.9094 55.9613 85.1188 55.9015 85.346C55.6977 86.0143 55.6548 86.7212 55.7761 87.4093C55.8975 88.0973 56.1797 88.7469 56.5997 89.3051C56.7393 89.511 56.9314 89.6758 57.156 89.7826C57.3806 89.8894 57.6297 89.9343 57.8775 89.9126H57.9124C58.1526 89.842 58.3694 89.7083 58.5401 89.5252C58.7109 89.3422 58.8293 89.1167 58.883 88.8722Z" fill="#263238"/>
<path d="M137.114 120.389C136.976 120.192 136.79 120.033 136.574 119.927C136.358 119.821 136.118 119.771 135.878 119.782L122.388 122.868C122.638 122.844 122.89 122.888 123.117 122.994C123.345 123.101 123.539 123.268 123.68 123.476C124.099 124.033 124.381 124.681 124.502 125.368C124.624 126.055 124.581 126.761 124.378 127.428C124.318 127.671 124.196 127.894 124.023 128.075C123.85 128.256 123.633 128.389 123.393 128.461L136.821 125.396C137.061 125.325 137.28 125.192 137.453 125.011C137.627 124.829 137.751 124.606 137.812 124.362C138.018 123.692 138.062 122.983 137.941 122.292C137.82 121.601 137.536 120.949 137.114 120.389Z" fill="#455A64"/>
<path d="M122.29 122.867C122.313 122.865 122.335 122.865 122.358 122.867H122.29Z" fill="#455A64"/>
<path d="M124.407 127.414C124.61 126.747 124.653 126.042 124.532 125.355C124.41 124.668 124.129 124.02 123.709 123.462C123.568 123.254 123.374 123.088 123.147 122.981C122.919 122.874 122.667 122.831 122.417 122.855C122.389 122.852 122.361 122.852 122.334 122.855C122.113 122.937 121.916 123.072 121.759 123.247C121.602 123.422 121.49 123.632 121.433 123.86C121.228 124.527 121.184 125.233 121.306 125.921C121.427 126.608 121.71 127.256 122.131 127.812C122.271 128.018 122.463 128.183 122.687 128.29C122.912 128.397 123.161 128.442 123.409 128.42C123.648 128.353 123.866 128.225 124.041 128.049C124.215 127.872 124.342 127.654 124.407 127.414Z" fill="#263238"/>
<g opacity="0.4">
<path d="M71.5989 81.8402C71.4582 81.6444 71.2708 81.4869 71.0538 81.382C70.8367 81.2771 70.5968 81.2282 70.356 81.2397L56.866 84.312C57.1154 84.2869 57.3669 84.3294 57.5942 84.4351C57.8215 84.5408 58.0161 84.7056 58.1577 84.9124C58.5788 85.4702 58.8616 86.1198 58.983 86.808C59.1044 87.4962 59.0608 88.2034 58.856 88.8715C58.8006 89.1155 58.6806 89.3402 58.5086 89.522C58.3367 89.7038 58.119 89.836 57.8784 89.9049L71.3056 86.8326C71.5488 86.7659 71.7694 86.6346 71.9439 86.4527C72.1185 86.2707 72.2406 86.0449 72.2971 85.7992C72.4981 85.1306 72.5396 84.4243 72.4183 83.7367C72.2971 83.0492 72.0164 82.3997 71.5989 81.8402Z" fill="white"/>
</g>
<g opacity="0.4">
<path d="M137.114 120.389C136.976 120.192 136.79 120.033 136.574 119.927C136.358 119.821 136.119 119.771 135.878 119.782L122.388 122.868C122.638 122.844 122.89 122.888 123.118 122.994C123.345 123.101 123.539 123.268 123.68 123.476C124.099 124.033 124.381 124.681 124.503 125.368C124.624 126.055 124.581 126.761 124.378 127.428C124.318 127.671 124.196 127.894 124.023 128.075C123.851 128.256 123.634 128.389 123.394 128.461L136.821 125.396C137.062 125.325 137.28 125.192 137.454 125.011C137.628 124.829 137.751 124.606 137.812 124.362C138.019 123.692 138.063 122.983 137.941 122.292C137.82 121.601 137.536 120.949 137.114 120.389Z" fill="white"/>
<path d="M122.29 122.868C122.313 122.865 122.336 122.865 122.358 122.868H122.29Z" fill="white"/>
</g>
<path d="M122.11 123.929L116.748 125.27C112.346 126.379 107.686 125.725 103.76 123.447L54.6319 95.0848C54.1463 94.8096 53.7543 94.3952 53.5065 93.8951C53.2586 93.3949 53.1663 92.832 53.2415 92.2789C53.3166 91.7259 53.5558 91.208 53.9281 90.7921C54.3003 90.3762 54.7887 90.0814 55.3301 89.9458L57.4807 89.4151C58.2209 88.8146 58.1371 85.5538 56.566 85.3164L54.3107 85.868C52.9515 86.1985 51.7229 86.9296 50.7842 87.9665C49.8454 89.0035 49.2397 90.2985 49.0455 91.6837C48.8514 93.069 49.0778 94.4806 49.6954 95.7356C50.313 96.9907 51.2933 98.0313 52.5092 98.7227L101.666 127.057C104.953 128.966 108.687 129.973 112.488 129.976C114.279 129.961 116.061 129.727 117.795 129.278L123.046 127.972C123.765 127.434 123.681 124.174 122.11 123.929Z" fill="#E0E0E0"/>
<path d="M60.4055 103.583V89.0244L91.9103 107.221V121.772L60.4055 103.583Z" fill="#455A64"/>
<path d="M91.9102 107.221L110.819 116.445V121.773H91.9102V107.221Z" fill="#455A64"/>
<path d="M60.4055 89.0244L91.9102 107.221L110.819 116.444L79.3069 98.2552L60.4055 89.0244Z" fill="#455A64"/>
<path opacity="0.1" d="M91.9102 107.221L110.819 116.445V121.773H91.9102V107.221Z" fill="white"/>
<path opacity="0.3" d="M60.4055 89.0244L91.9102 107.221L110.819 116.444L79.3069 98.2552L60.4055 89.0244Z" fill="white"/>
<path opacity="0.2" d="M162.673 140.669C175.93 148.988 175.999 162.406 162.834 170.7C149.668 178.994 128.243 179.019 114.985 170.7C101.728 162.381 101.667 148.963 114.832 140.669C127.997 132.375 149.423 132.375 162.673 140.669Z" fill="black"/>
<path d="M137.586 46.9389L140.495 33.1877C136.528 33.7893 132.777 35.5107 129.618 38.1791L114.387 51.1566L124.866 54.6589L137.586 46.9389Z" fill="#FFA8A7"/>
<path d="M144.703 108.769L146.829 113.968C147.425 115.433 148.438 116.652 149.72 117.448C151.002 118.243 152.486 118.571 153.953 118.386L171.916 116.164C173.426 115.979 174.954 116.101 176.422 116.522L180.353 117.653V107.671L179.278 108.012C177.211 108.678 175.017 108.735 172.922 108.178L166.374 106.431C163.274 105.606 160.028 105.692 156.97 106.681L156.302 100.791L144.703 108.769Z" fill="#F28F8F"/>
<path d="M193.519 121.919C193.451 119.508 192.517 117.222 190.916 115.547C189.734 114.332 188.245 113.517 187.124 112.219C185.827 110.713 185.289 109.058 184.184 107.352C183.989 107.065 183.723 106.843 183.416 106.712C183.304 106.7 183.191 106.7 183.078 106.712C182.687 106.745 182.306 106.864 181.958 107.061C182.404 107.144 182.804 107.413 183.071 107.81C184.184 109.474 184.967 111.47 186.272 112.943C187.385 114.199 188.874 114.998 190.056 116.187C191.65 117.806 192.586 120.044 192.659 122.41C192.72 124.747 191.93 128.782 190.356 128.782C190.852 128.913 191.376 128.826 191.814 128.541C193.181 127.068 193.557 123.658 193.519 121.919Z" fill="#EBEBEB"/>
<path d="M184.182 107.351C185.288 109.056 185.825 110.678 187.122 112.217C188.243 113.515 189.733 114.33 190.915 115.545C192.516 117.22 193.449 119.507 193.517 121.917C193.517 123.656 193.179 127.067 191.867 128.514C193.54 127.424 194.001 123.573 193.947 121.693C193.873 119.329 192.941 117.092 191.352 115.47C190.17 114.28 188.673 113.482 187.56 112.217C186.255 110.745 185.725 109.123 184.612 107.467C184.474 107.262 184.298 107.089 184.096 106.959C183.894 106.829 183.67 106.744 183.438 106.71C183.736 106.845 183.994 107.067 184.182 107.351Z" fill="#455A64"/>
<path d="M178.878 107.756C178.497 107.937 178.078 108.003 177.665 107.947C177.665 107.947 176.452 107.814 176.053 107.731C175.285 107.573 175.208 108.513 175.208 108.513C175.665 108.565 176.126 108.565 176.583 108.513C176.686 108.686 176.823 108.833 176.983 108.945C177.143 109.057 177.323 109.131 177.511 109.162C177.896 109.243 178.272 109.369 178.632 109.536C178.811 109.624 178.961 109.768 179.065 109.948C179.169 110.129 179.221 110.338 179.216 110.551C179.147 111.017 178.724 111.291 178.448 111.682C178.32 111.91 178.246 112.169 178.236 112.435C178.225 112.701 178.277 112.966 178.387 113.205C178.14 113.09 177.865 113.071 177.608 113.151C177.35 113.232 177.126 113.406 176.974 113.646C176.686 114.149 176.512 114.719 176.467 115.309C176.389 115.703 176.363 116.106 176.391 116.507C176.404 116.71 176.455 116.907 176.54 117.087C176.626 117.267 176.745 117.427 176.89 117.555C177.037 117.68 177.218 117.747 177.404 117.747C177.59 117.747 177.771 117.68 177.918 117.555C178.901 119.286 183.392 119.943 185.641 123.212C187.89 126.482 188.382 128.803 190.377 128.803C191.913 128.803 192.68 124.768 192.68 122.43C192.608 120.064 191.672 117.826 190.078 116.208C188.896 115.018 187.407 114.22 186.294 112.963C184.988 111.491 184.205 109.494 183.092 107.831C182.825 107.434 182.426 107.165 181.979 107.082C181.844 107.065 181.708 107.065 181.572 107.082C180.643 107.122 179.729 107.35 178.878 107.756Z" fill="#BA68C8"/>
<path d="M189.794 128.197L190.3 126.691C190.335 126.594 190.393 126.508 190.468 126.443C190.544 126.379 190.635 126.338 190.73 126.325C192.266 126.125 192.749 125.876 193.417 125.111C193.321 126.045 193.044 126.946 192.603 127.756C192.345 128.242 191.923 128.6 191.426 128.755C190.93 128.91 190.397 128.85 189.94 128.588C189.874 128.555 189.822 128.496 189.795 128.424C189.768 128.351 189.768 128.27 189.794 128.197Z" fill="#455A64"/>
<path d="M180.076 114.189C180.075 114.249 180.063 114.308 180.041 114.362C180.018 114.416 179.986 114.465 179.945 114.505C179.436 114.98 179.087 115.627 178.955 116.341C178.823 117.055 178.915 117.797 179.216 118.448C179.253 118.545 179.255 118.654 179.222 118.753C179.188 118.851 179.121 118.932 179.035 118.98C178.948 119.027 178.848 119.037 178.755 119.008C178.662 118.979 178.583 118.913 178.533 118.823C178.157 118.004 178.041 117.075 178.203 116.177C178.365 115.281 178.8 114.47 179.439 113.873C179.517 113.802 179.617 113.766 179.719 113.774C179.821 113.782 179.916 113.832 179.984 113.915C180.044 113.991 180.077 114.089 180.076 114.189Z" fill="#37474F"/>
<path d="M182.43 115.362C182.43 115.474 182.389 115.582 182.315 115.661C181.83 116.183 181.477 116.831 181.29 117.544C181.103 118.256 181.088 119.009 181.248 119.729C181.26 119.784 181.262 119.84 181.254 119.896C181.246 119.951 181.228 120.005 181.201 120.053C181.174 120.1 181.138 120.142 181.096 120.175C181.055 120.208 181.007 120.232 180.957 120.245C180.906 120.258 180.854 120.26 180.803 120.251C180.751 120.243 180.702 120.223 180.658 120.194C180.614 120.164 180.576 120.126 180.545 120.08C180.515 120.035 180.493 119.983 180.481 119.929C180.292 119.067 180.31 118.168 180.533 117.316C180.756 116.464 181.177 115.688 181.755 115.062C181.791 115.023 181.833 114.992 181.88 114.971C181.927 114.95 181.977 114.939 182.027 114.939C182.078 114.939 182.128 114.95 182.175 114.971C182.222 114.992 182.264 115.023 182.3 115.062C182.34 115.1 182.372 115.145 182.395 115.197C182.417 115.249 182.429 115.305 182.43 115.362Z" fill="#37474F"/>
<path d="M184.511 117.209C184.512 117.272 184.499 117.334 184.473 117.39C184.448 117.446 184.411 117.495 184.366 117.534C183.932 117.919 183.599 118.42 183.398 118.988C183.198 119.555 183.137 120.169 183.222 120.77C183.237 120.879 183.213 120.99 183.155 121.08C183.096 121.17 183.007 121.232 182.907 121.252C182.806 121.269 182.704 121.243 182.621 121.18C182.537 121.116 182.48 121.02 182.462 120.911C182.352 120.162 182.427 119.395 182.677 118.687C182.928 117.979 183.346 117.354 183.89 116.877C183.969 116.809 184.07 116.777 184.171 116.79C184.272 116.802 184.364 116.857 184.427 116.943C184.483 117.018 184.513 117.113 184.511 117.209Z" fill="#37474F"/>
<path d="M186.224 118.996C186.223 119.054 186.211 119.111 186.188 119.164C186.166 119.217 186.134 119.264 186.094 119.303C185.724 119.672 185.441 120.131 185.266 120.641C185.091 121.151 185.03 121.699 185.088 122.24C185.101 122.349 185.074 122.459 185.012 122.547C184.95 122.634 184.859 122.691 184.758 122.706C184.708 122.714 184.657 122.711 184.608 122.697C184.559 122.684 184.513 122.659 184.473 122.626C184.433 122.593 184.399 122.551 184.374 122.503C184.349 122.455 184.334 122.403 184.328 122.348C184.254 121.674 184.328 120.991 184.546 120.354C184.763 119.718 185.118 119.146 185.579 118.688C185.615 118.649 185.657 118.618 185.704 118.597C185.751 118.576 185.801 118.565 185.852 118.565C185.903 118.565 185.953 118.576 185.999 118.597C186.046 118.618 186.089 118.649 186.124 118.688C186.191 118.774 186.227 118.883 186.224 118.996Z" fill="#37474F"/>
<path d="M136.919 73.1675C136.343 82.0022 138.523 92.301 139.222 95.3457L138.017 98.4737C137.717 106.501 148.633 110.886 153.638 107.758C161.484 94.1645 165.46 86.7939 163.917 78.242L136.919 73.1675Z" fill="#263238"/>
<path opacity="0.3" d="M139.875 93.9813L144.704 83.566C140.666 82.2599 137.587 77.0439 137.587 77.0439C138.209 81.4779 142.109 84.2897 142.109 84.2897C140.395 87.1632 139.609 90.5719 139.875 93.9813Z" fill="black"/>
<path d="M153.806 104.795C152.778 99.8036 145.784 94.3714 139.819 96.11L134.246 109.462C133.308 111.711 132.742 114.121 132.573 116.583L130.354 148.819C130.202 151.074 129.827 153.306 129.233 155.474L129.164 155.723L136.918 157.97C136.948 154.246 137.593 150.558 138.821 147.08L144.748 130.326C145.896 127.063 146.418 123.582 146.283 120.093L146.191 117.456L153.806 104.795Z" fill="#FFA8A7"/>
<path d="M124.801 172.109C127.023 172.033 129.13 171.021 130.674 169.289C131.803 168.008 132.555 166.394 133.745 165.188C135.134 163.773 136.67 163.191 138.236 161.993C138.501 161.782 138.706 161.493 138.827 161.161C138.838 161.039 138.838 160.917 138.827 160.795C138.797 160.372 138.69 159.959 138.512 159.581C138.438 160.066 138.19 160.5 137.821 160.787C136.286 161.993 134.451 162.842 133.092 164.256C131.925 165.462 131.188 167.084 130.091 168.357C128.597 170.084 126.532 171.099 124.349 171.177C122.199 171.244 118.468 170.395 118.468 168.681C118.348 169.22 118.428 169.787 118.691 170.262C120.027 171.71 123.189 172.109 124.801 172.109Z" fill="#EBEBEB"/>
<path d="M138.237 161.965C136.701 163.163 135.166 163.745 133.746 165.159C132.556 166.365 131.804 167.979 130.675 169.26C129.131 170.993 127.024 172.005 124.802 172.08C123.19 172.13 120.051 171.714 118.707 170.292C119.713 172.105 123.275 172.605 125.002 172.546C127.184 172.471 129.25 171.459 130.744 169.735C131.842 168.453 132.579 166.84 133.746 165.625C135.104 164.219 136.601 163.637 138.137 162.431C138.327 162.282 138.487 162.092 138.606 161.873C138.725 161.654 138.8 161.41 138.828 161.158C138.703 161.481 138.499 161.76 138.237 161.965Z" fill="#455A64"/>
<path d="M137.869 156.215C137.7 155.806 137.639 155.354 137.693 154.909C137.693 154.909 137.808 153.586 137.885 153.162C138.031 152.33 137.44 152.289 137.44 152.289C137.44 152.289 137.324 152.946 137.225 153.719C137.06 153.834 136.917 153.982 136.805 154.156C136.693 154.331 136.614 154.527 136.572 154.734C136.497 155.151 136.381 155.558 136.227 155.949C136.146 156.143 136.014 156.307 135.847 156.419C135.68 156.532 135.486 156.588 135.29 156.581C134.868 156.515 134.607 156.049 134.254 155.749C134.043 155.61 133.802 155.531 133.555 155.519C133.308 155.508 133.063 155.564 132.841 155.683C132.95 155.418 132.968 155.12 132.894 154.841C132.819 154.563 132.657 154.322 132.434 154.16C131.971 153.844 131.445 153.653 130.899 153.603C130.533 153.521 130.159 153.494 129.786 153.52C129.6 153.533 129.419 153.588 129.254 153.681C129.089 153.774 128.943 153.903 128.826 154.06C128.711 154.219 128.648 154.416 128.648 154.618C128.648 154.82 128.711 155.017 128.826 155.175C127.222 156.24 126.616 161.107 123.599 163.544C120.582 165.982 118.44 166.522 118.44 168.677C118.44 170.341 122.171 171.173 124.32 171.173C126.503 171.094 128.569 170.08 130.062 168.352C131.16 167.08 131.897 165.457 133.064 164.251C134.423 162.837 136.257 161.988 137.793 160.782C138.029 160.589 138.218 160.337 138.343 160.047C138.469 159.757 138.528 159.438 138.514 159.118C138.461 158.117 138.243 157.133 137.869 156.215Z" fill="#BA68C8"/>
<path d="M118.998 168.04L120.388 168.589C120.481 168.625 120.562 168.688 120.624 168.772C120.685 168.856 120.723 168.957 120.733 169.063C120.91 170.727 121.14 171.251 121.846 171.967C120.987 171.867 120.157 171.569 119.413 171.093C118.964 170.812 118.633 170.353 118.49 169.813C118.347 169.274 118.402 168.695 118.645 168.198C118.676 168.13 118.729 168.077 118.794 168.048C118.859 168.019 118.931 168.016 118.998 168.04Z" fill="#455A64"/>
<path d="M131.936 157.52C131.88 157.52 131.825 157.507 131.774 157.481C131.724 157.455 131.679 157.417 131.644 157.371C131.202 156.821 130.606 156.444 129.948 156.297C129.286 156.155 128.599 156.257 127.998 156.589C127.906 156.638 127.8 156.646 127.703 156.611C127.606 156.576 127.525 156.501 127.479 156.401C127.434 156.302 127.426 156.187 127.459 156.082C127.491 155.977 127.561 155.89 127.652 155.84C128.411 155.42 129.278 155.29 130.114 155.469C130.949 155.649 131.705 156.128 132.258 156.83C132.324 156.913 132.356 157.021 132.349 157.13C132.342 157.238 132.295 157.34 132.22 157.412C132.182 157.45 132.137 157.479 132.088 157.498C132.039 157.516 131.987 157.524 131.936 157.52Z" fill="#37474F"/>
<path d="M130.843 160.069C130.739 160.068 130.64 160.023 130.567 159.944C130.087 159.418 129.49 159.036 128.833 158.833C128.177 158.631 127.484 158.615 126.82 158.787C126.771 158.801 126.72 158.804 126.669 158.796C126.619 158.788 126.57 158.769 126.527 158.74C126.483 158.711 126.445 158.674 126.415 158.629C126.385 158.584 126.364 158.533 126.352 158.48C126.34 158.427 126.337 158.373 126.344 158.319C126.351 158.265 126.368 158.214 126.394 158.167C126.419 158.121 126.453 158.08 126.494 158.048C126.534 158.016 126.58 157.993 126.628 157.981C127.423 157.774 128.254 157.793 129.041 158.035C129.827 158.276 130.543 158.733 131.119 159.362C131.172 159.42 131.208 159.494 131.222 159.575C131.236 159.656 131.228 159.739 131.199 159.815C131.169 159.89 131.12 159.955 131.056 160C130.993 160.045 130.919 160.069 130.843 160.069Z" fill="#37474F"/>
<path d="M129.171 162.288C129.112 162.287 129.054 162.272 129.001 162.245C128.948 162.218 128.901 162.178 128.864 162.13C128.509 161.658 128.047 161.295 127.523 161.076C127 160.857 126.432 160.79 125.877 160.882C125.776 160.899 125.671 160.873 125.588 160.807C125.504 160.741 125.448 160.643 125.432 160.532C125.416 160.422 125.441 160.309 125.501 160.219C125.562 160.128 125.653 160.068 125.754 160.05C126.445 159.932 127.151 160.013 127.803 160.285C128.455 160.556 129.03 161.009 129.47 161.597C129.517 161.658 129.547 161.733 129.556 161.811C129.565 161.89 129.553 161.97 129.522 162.042C129.49 162.114 129.44 162.174 129.378 162.216C129.316 162.258 129.244 162.28 129.171 162.279V162.288Z" fill="#37474F"/>
<path d="M127.5 164.179C127.446 164.179 127.393 164.167 127.344 164.142C127.295 164.118 127.251 164.082 127.216 164.037C126.874 163.638 126.449 163.332 125.977 163.145C125.505 162.957 124.998 162.892 124.499 162.956C124.398 162.966 124.297 162.933 124.217 162.865C124.137 162.797 124.084 162.699 124.069 162.59C124.062 162.535 124.066 162.48 124.08 162.426C124.093 162.373 124.116 162.324 124.148 162.28C124.179 162.237 124.218 162.201 124.263 162.174C124.307 162.147 124.356 162.13 124.407 162.124C125.029 162.044 125.659 162.125 126.246 162.361C126.834 162.597 127.361 162.98 127.784 163.48C127.832 163.541 127.863 163.615 127.873 163.693C127.884 163.772 127.874 163.853 127.844 163.926C127.815 163.999 127.767 164.061 127.706 164.106C127.645 164.151 127.574 164.176 127.5 164.179Z" fill="#37474F"/>
<path d="M157.262 32.4616C153.06 32.1039 148.84 32.0705 144.634 32.3617C142.745 32.3921 140.887 32.8751 139.191 33.776C138.111 34.5228 137.179 35.4963 136.451 36.6393C135.724 37.7823 135.214 39.0715 134.954 40.4311C134.453 43.149 134.293 45.9275 134.478 48.6918C134.7 57.7261 135.322 65.4377 136.22 74.4222C144.503 79.6049 155.412 82.0589 164.624 79.2139C164.754 67.5674 164.224 55.2471 162.06 43.8335C161.292 39.7073 160.179 35.2484 157.262 32.4616Z" fill="#455A64"/>
<path opacity="0.3" d="M157.262 32.4616C153.06 32.1039 148.84 32.0705 144.634 32.3617C142.745 32.3921 140.887 32.8751 139.191 33.776C138.111 34.5228 137.179 35.4963 136.451 36.6393C135.724 37.7823 135.214 39.0715 134.954 40.4311C134.453 43.149 134.293 45.9275 134.478 48.6918C134.7 57.7261 135.322 65.4377 136.22 74.4222C144.503 79.6049 155.412 82.0589 164.624 79.2139C164.754 67.5674 164.224 55.2471 162.06 43.8335C161.292 39.7073 160.179 35.2484 157.262 32.4616Z" fill="white"/>
<path d="M182.295 55.6449C182.4 54.4143 182.222 53.1747 181.777 52.0367C181.333 50.8986 180.635 49.8976 179.746 49.1229L164.47 35.7544C162.401 33.9377 159.904 32.785 157.261 32.4268L155.765 32.302C154.398 33.6746 153.799 43.4494 159.956 47.4175L173.237 55.8196L173.106 74.3126L168.561 79.9362C168.479 80.034 168.42 80.1516 168.388 80.2792C168.356 80.4069 168.353 80.5409 168.378 80.6702C168.404 80.7995 168.458 80.9204 168.535 81.0228C168.612 81.1251 168.711 81.2061 168.822 81.2589C169.084 81.3915 169.375 81.4416 169.661 81.4033C169.948 81.365 170.218 81.24 170.442 81.0426L171.916 79.7365C171.003 81.6 170.204 83.7213 169.291 85.5598C169.063 85.9215 168.95 86.3536 168.968 86.791C168.999 86.9757 169.067 87.1506 169.168 87.3032C169.269 87.4557 169.4 87.582 169.552 87.6728C169.851 87.8577 170.184 87.9712 170.527 88.0056C171.727 88.1582 172.942 87.9238 174.02 87.3317C175.094 86.741 176.043 85.9136 176.806 84.9026C178.265 82.9987 179.14 80.649 179.309 78.1809C180.681 70.7332 181.678 63.2101 182.295 55.6449Z" fill="#FFA8A7"/>
<path d="M141.884 28.9283V30.4257C141.849 31.5227 141.663 32.6078 141.332 33.6451C141.193 34.0818 141.193 34.5561 141.332 34.9928C141.474 35.3597 141.69 35.6872 141.965 35.9507C142.241 36.2143 142.567 36.4072 142.921 36.5151C143.622 36.7189 144.358 36.7446 145.07 36.59C147.2 36.1964 149.135 35.0038 150.536 33.2208L150.221 22.9802L141.884 28.9283Z" fill="#FFA8A7"/>
<path opacity="0.2" d="M148.549 27.4324C149.225 26.1517 149.658 24.7375 149.823 23.2729L141.885 28.9215V30.4189C141.878 30.8568 141.839 31.2935 141.77 31.725C142.89 31.5146 143.98 31.1541 145.018 30.6518C146.459 29.975 147.687 28.8559 148.549 27.4324Z" fill="black"/>
<path d="M133.08 12.3143C132.173 12.3462 131.275 12.1078 130.485 11.6252C129.695 11.1427 129.041 10.4343 128.597 9.57736C128.534 9.45163 128.506 9.30867 128.517 9.16614C128.529 9.02361 128.578 8.88776 128.66 8.77537C128.741 8.66299 128.852 8.57899 128.977 8.53376C129.102 8.48853 129.237 8.48405 129.364 8.52087C129.991 8.64144 130.633 8.64144 131.26 8.52087C130.537 7.50059 130.008 6.33442 129.705 5.09039C129.402 3.84635 129.331 2.54937 129.495 1.27507C129.515 1.13337 129.566 0.998809 129.643 0.882238C129.72 0.765668 129.821 0.670348 129.938 0.603967C130.056 0.537586 130.186 0.502002 130.318 0.500082C130.45 0.498162 130.581 0.52997 130.7 0.592924C133.303 1.99172 136.199 2.62567 139.098 2.4314C140.634 2.31494 142.169 1.95722 143.704 1.83244C145.249 1.62492 146.816 1.88403 148.233 2.58115C148.946 2.93567 149.555 3.49411 149.996 4.19631C150.437 4.8985 150.693 5.7178 150.736 6.56591C150.912 6.29432 151.141 6.0674 151.406 5.9008C151.671 5.7342 151.966 5.63188 152.271 5.60091C152.59 5.55915 152.913 5.58855 153.22 5.68727C153.528 5.78599 153.814 5.95195 154.06 6.17492L151.404 7.77215C151.902 7.66446 152.419 7.73823 152.874 7.98197C153.33 8.22571 153.698 8.62575 153.922 9.11983C154.312 10.0879 154.481 11.1439 154.413 12.1978C154.463 13.587 154.407 14.9783 154.244 16.3573C154.07 17.7516 153.565 19.0731 152.778 20.1923C152.086 21.1073 151.163 21.7838 150.122 22.139C148.703 22.5683 147.198 22.516 145.808 21.9892C144.428 21.4675 143.115 20.7575 141.9 19.8762C138.752 17.6538 135.8 15.1226 133.08 12.3143Z" fill="#263238"/>
<path d="M132.912 9.52826C132.022 15.3184 132.611 21.262 134.616 26.7152C134.981 28.0225 135.741 29.1592 136.773 29.9429C137.909 30.65 139.322 30.5003 140.611 30.2923C142.715 30.035 144.766 29.4084 146.683 28.4372C148.617 27.45 150.124 25.6916 150.89 23.529C151.577 23.6808 152.29 23.6138 152.942 23.3363C153.595 23.0588 154.159 22.5825 154.567 21.9651C155.377 20.6834 155.796 19.1589 155.765 17.6059C155.765 16.6243 155.596 15.4597 154.782 15.0271C154.382 14.8947 153.957 14.8828 153.551 14.9927C153.145 15.1026 152.775 15.3302 152.479 15.651C151.387 16.6035 150.584 17.8906 150.176 19.3446C149.578 16.9404 148.641 14.6195 148.042 12.2236C147.907 11.2492 147.449 10.3617 146.753 9.72792C145.824 9.07904 144.611 9.45339 143.536 9.72792C140.037 10.6441 136.379 10.5754 132.912 9.52826Z" fill="#FFA8A7"/>
<path d="M139.368 16.8167L136.781 21.5501L139.867 22.174L139.368 16.8167Z" fill="#F28F8F"/>
<path d="M142.844 23.803L140.495 25.0425C140.696 25.3316 140.979 25.5416 141.3 25.6407C141.622 25.7398 141.964 25.7225 142.276 25.5915C142.547 25.4109 142.752 25.1338 142.856 24.8076C142.959 24.4813 142.955 24.1263 142.844 23.803Z" fill="#F28F8F"/>
<path opacity="0.3" d="M142.844 23.803L140.495 25.0425C140.696 25.3316 140.979 25.5416 141.3 25.6407C141.622 25.7398 141.964 25.7225 142.276 25.5915C142.547 25.4109 142.752 25.1338 142.856 24.8076C142.959 24.4813 142.955 24.1263 142.844 23.803Z" fill="black"/>
<path d="M141.464 25.6995C141.737 25.7573 142.02 25.7284 142.278 25.6163C142.493 25.4852 142.667 25.2881 142.779 25.0498C142.891 24.8115 142.936 24.5426 142.907 24.2769C142.572 24.2732 142.246 24.3969 141.986 24.6263C141.838 24.7588 141.715 24.9219 141.626 25.1061C141.536 25.2904 141.481 25.4921 141.464 25.6995Z" fill="#F28F8F"/>
<path d="M143.825 17.008C143.849 17.1988 143.82 17.3928 143.741 17.5652C143.662 17.7377 143.537 17.8806 143.383 17.9757C143.229 18.0708 143.051 18.1137 142.874 18.0989C142.697 18.0841 142.528 18.0123 142.389 17.8926C142.25 17.773 142.147 17.611 142.094 17.4275C142.04 17.244 142.039 17.0474 142.089 16.8629C142.139 16.6783 142.24 16.5144 142.377 16.392C142.514 16.2696 142.681 16.1945 142.858 16.1761C143.088 16.148 143.319 16.2198 143.5 16.3757C143.682 16.5316 143.798 16.759 143.825 17.008Z" fill="#263238"/>
<path d="M136.403 17.5075C136.426 17.6389 136.423 17.774 136.395 17.9042C136.367 18.0344 136.315 18.1569 136.241 18.2639C136.167 18.3709 136.073 18.4601 135.966 18.5258C135.858 18.5916 135.739 18.6324 135.617 18.6457C135.494 18.659 135.37 18.6445 135.252 18.6031C135.135 18.5618 135.027 18.4945 134.935 18.4054C134.843 18.3164 134.769 18.2076 134.718 18.086C134.667 17.9644 134.639 17.8325 134.638 17.6989C134.634 17.4573 134.715 17.2232 134.864 17.0429C135.012 16.8626 135.217 16.7493 135.439 16.7253C135.661 16.7012 135.883 16.7682 136.062 16.9131C136.24 17.0579 136.362 17.27 136.403 17.5075Z" fill="#263238"/>
<path d="M135.192 13.7937L133.365 15.4575C133.256 15.2031 133.221 14.9187 133.265 14.6423C133.309 14.3659 133.429 14.1106 133.611 13.9102C133.837 13.7314 134.106 13.6256 134.386 13.605C134.666 13.5844 134.945 13.6498 135.192 13.7937Z" fill="#263238"/>
<path d="M142.736 12.8503L144.832 14.1065C144.893 13.8351 144.875 13.5499 144.782 13.2896C144.689 13.0292 144.524 12.8062 144.31 12.6506C144.056 12.5257 143.775 12.4783 143.497 12.5135C143.22 12.5487 142.957 12.6651 142.736 12.8503Z" fill="#263238"/>
<path d="M143.317 69.0263C143.317 68.7933 143.317 68.5687 143.264 68.3441C143.006 66.4253 142.242 64.6282 141.064 63.1686C139.886 61.7091 138.344 60.6493 136.623 60.1167L125.201 52.6297L117.524 48.4702L114.361 51.1739C113.649 51.7734 113.115 52.5862 112.826 53.5115C112.454 54.7465 112.541 56.0899 113.068 57.2565C113.596 58.423 114.522 59.3208 115.651 59.759L134.075 66.7968C135.279 68.162 136.044 69.913 136.255 71.7881C136.303 72.3385 136.404 72.882 136.554 73.4103C136.812 74.0376 137.251 74.5574 137.805 74.8918C138.358 75.2262 138.997 75.3573 139.625 75.2654C140.247 75.1625 140.838 74.9036 141.351 74.5093C141.864 74.115 142.285 73.5963 142.58 72.9944C143.173 71.776 143.429 70.3982 143.317 69.0263Z" fill="#FFA8A7"/>
<path d="M137.164 60.1159V58.9096H136.35V59.3505L134.615 58.2524C134.435 58.1384 134.229 58.0784 134.02 58.0784C133.811 58.0784 133.606 58.1384 133.425 58.2524L130.531 60.0659V59.5418L129.764 59.6167V60.8063C129.764 60.881 129.783 60.9541 129.818 61.0184C129.853 61.0827 129.903 61.1358 129.963 61.1724L132.343 62.6698C132.525 62.7806 132.73 62.8388 132.938 62.8388C133.146 62.8388 133.351 62.7806 133.533 62.6698L137.026 60.4819C137.083 60.447 137.131 60.3963 137.165 60.335C137.198 60.2737 137.217 60.2038 137.218 60.1325L137.164 60.1159Z" fill="#BA68C8"/>
<path d="M133.396 57.2596L130.44 59.1147C130.387 59.1452 130.343 59.1907 130.312 59.2464C130.281 59.3021 130.265 59.3658 130.265 59.4309C130.265 59.4959 130.281 59.5596 130.312 59.6153C130.343 59.671 130.387 59.7165 130.44 59.747L132.467 61.0114C132.62 61.1095 132.795 61.1612 132.973 61.1612C133.152 61.1612 133.327 61.1095 133.48 61.0114L136.443 59.1563C136.494 59.1241 136.536 59.0779 136.566 59.0225C136.595 58.967 136.611 58.9042 136.611 58.8402C136.611 58.7762 136.595 58.7134 136.566 58.6579C136.536 58.6025 136.494 58.5563 136.443 58.5241L134.409 57.2596C134.255 57.1616 134.08 57.1099 133.902 57.1099C133.724 57.1099 133.549 57.1616 133.396 57.2596Z" fill="#BA68C8"/>
<path opacity="0.3" d="M137.164 60.1159V58.9096H136.35V59.3505L134.615 58.2524C134.435 58.1384 134.229 58.0784 134.02 58.0784C133.811 58.0784 133.606 58.1384 133.425 58.2524L130.531 60.0659V59.5418L129.764 59.6167V60.8063C129.764 60.881 129.783 60.9541 129.818 61.0184C129.853 61.0827 129.903 61.1358 129.963 61.1724L132.343 62.6698C132.525 62.7806 132.73 62.8388 132.938 62.8388C133.146 62.8388 133.351 62.7806 133.533 62.6698L137.026 60.4819C137.083 60.447 137.131 60.3963 137.165 60.335C137.198 60.2737 137.217 60.2038 137.218 60.1325L137.164 60.1159Z" fill="black"/>
<path d="M133.388 57.0622L129.91 59.2417C129.85 59.2786 129.799 59.3323 129.764 59.3974C129.729 59.4624 129.71 59.5365 129.71 59.6119C129.71 59.6873 129.729 59.7614 129.764 59.8264C129.799 59.8915 129.85 59.9453 129.91 59.9821L132.313 61.4712C132.495 61.582 132.7 61.6402 132.908 61.6402C133.116 61.6402 133.321 61.582 133.503 61.4712L136.996 59.2833C137.055 59.2448 137.103 59.1905 137.137 59.1256C137.171 59.0608 137.188 58.9876 137.188 58.9131C137.188 58.8387 137.171 58.7655 137.137 58.7006C137.103 58.6358 137.055 58.5814 136.996 58.5429L134.616 57.0622C134.431 56.9402 134.219 56.8757 134.002 56.8757C133.785 56.8757 133.573 56.9402 133.388 57.0622Z" fill="#BA68C8"/>
<path opacity="0.5" d="M133.396 57.2596L130.44 59.1147C130.387 59.1452 130.343 59.1907 130.312 59.2464C130.281 59.3021 130.265 59.3658 130.265 59.4309C130.265 59.4959 130.281 59.5596 130.312 59.6153C130.343 59.671 130.387 59.7165 130.44 59.747L132.467 61.0114C132.62 61.1095 132.795 61.1612 132.973 61.1612C133.152 61.1612 133.327 61.1095 133.48 61.0114L136.443 59.1563C136.494 59.1241 136.536 59.0779 136.566 59.0225C136.595 58.967 136.611 58.9042 136.611 58.8402C136.611 58.7762 136.595 58.7134 136.566 58.6579C136.536 58.6025 136.494 58.5563 136.443 58.5241L134.409 57.2596C134.255 57.1616 134.08 57.1099 133.902 57.1099C133.724 57.1099 133.549 57.1616 133.396 57.2596Z" fill="white"/>
<path d="M132.081 66.0137C131.612 65.5395 131.359 62.9524 132.288 62.1121L129.908 60.623C129.14 61.6795 129.332 63.9506 129.762 65.0986C129.813 65.23 129.889 65.3479 129.986 65.4441C130.083 65.5404 130.198 65.6127 130.323 65.656C130.783 65.8224 131.559 66.1135 131.858 66.2217C131.95 66.2573 132.047 66.2706 132.144 66.2605C132.241 66.2505 132.335 66.2173 132.418 66.1634L132.081 66.0137Z" fill="#455A64"/>
</g>
<defs>
<clipPath id="clip0_260_5">
<rect width="255" height="236" fill="white" transform="translate(0 0.5)"/>
</clipPath>
</defs>
</svg>
