<svg width="257" height="257" viewBox="0 0 257 257" fill="none" xmlns="http://www.w3.org/2000/svg">
<path d="M22.7599 130.798L169.903 215.752L238.434 176.184L91.2966 91.2351L22.7599 130.798Z" fill="#232531"/>
<path d="M35.3734 168.171C40.9033 168.171 45.3862 165.582 45.3862 162.388C45.3862 159.195 40.9033 156.606 35.3734 156.606C29.8436 156.606 25.3607 159.195 25.3607 162.388C25.3607 165.582 29.8436 168.171 35.3734 168.171Z" fill="#232531"/>
<path d="M184.027 123.201C196.941 123.201 207.409 117.158 207.409 109.703C207.409 102.249 196.941 96.2056 184.027 96.2056C171.114 96.2056 160.646 102.249 160.646 109.703C160.646 117.158 171.114 123.201 184.027 123.201Z" fill="#232531"/>
<path d="M204.869 106.118C216.378 94.6086 216.378 75.9475 204.869 64.4377C193.359 52.9279 174.698 52.9279 163.188 64.4377C151.678 75.9475 151.678 94.6086 163.188 106.118C174.698 117.628 193.359 117.628 204.869 106.118Z" fill="#A022F5"/>
<path opacity="0.3" d="M204.869 106.118C216.378 94.6086 216.378 75.9475 204.869 64.4377C193.359 52.9279 174.698 52.9279 163.188 64.4377C151.678 75.9475 151.678 94.6086 163.188 106.118C174.698 117.628 193.359 117.628 204.869 106.118Z" fill="black"/>
<path opacity="0.1" d="M176.559 60.3181C173.804 61.6648 171.085 64.1474 171.347 67.2006C171.461 68.0208 171.735 68.8104 172.155 69.524C172.575 70.2376 173.132 70.8612 173.794 71.3589C175.122 72.3436 176.576 73.1473 178.116 73.749L193.629 80.6006C195.126 81.3419 196.717 81.8778 198.358 82.194C199.18 82.3459 200.025 82.33 200.841 82.1472C201.657 81.9643 202.428 81.6183 203.107 81.13C205.214 79.4338 205.42 76.2881 204.911 73.6307C202.459 60.8527 187.898 54.7669 176.559 60.3181Z" fill="#3A3D4A"/>
<g opacity="0.2">
<path d="M170.447 62.4152C170.73 63.8338 171.938 64.9852 173.845 65.6174C175.967 66.2068 178.198 66.2877 180.358 65.8537C182.517 65.4197 184.544 64.4829 186.274 63.1193C187.785 61.7932 188.458 60.2769 188.175 58.8531C187.913 57.5527 186.87 56.4939 185.235 55.8308C184.603 55.8051 183.971 55.8 183.333 55.8308C183.767 55.9078 184.195 56.016 184.613 56.1546C186.335 56.7355 187.425 57.7378 187.672 58.9714C187.918 60.205 187.302 61.5414 185.934 62.7493C183.03 65.3193 177.679 66.3832 174.01 65.1445C172.282 64.5637 171.198 63.5614 170.926 62.3278C170.653 61.0942 171.29 59.7578 172.658 58.5499C173.085 58.1772 173.546 57.8451 174.035 57.5579C173.403 57.7789 172.786 58.0307 172.18 58.2929C170.797 59.5779 170.17 61.0376 170.447 62.4152Z" fill="black"/>
<path d="M210.473 72.2532C210.519 72.3457 210.56 72.4382 210.606 72.5256L210.473 72.2532Z" fill="black"/>
<path d="M211.989 94.5762C210.818 96.6279 209.299 98.4609 207.502 99.9937C197.89 108.454 180.198 112.016 168.078 107.94C165.825 107.22 163.715 106.112 161.843 104.666C162.383 105.288 162.948 105.879 163.534 106.45C164.922 107.257 166.389 107.918 167.913 108.423C174.081 110.479 181.612 110.634 188.838 109.179C196.065 107.724 202.984 104.687 207.856 100.405C209.066 99.3511 210.164 98.1746 211.131 96.8943C211.439 96.1182 211.727 95.3677 211.989 94.5762Z" fill="black"/>
<path d="M206.798 91.1683C196.682 100.076 178.065 103.813 165.302 99.5003C160.45 97.8657 157.017 95.2752 155.356 92.0575C155.49 92.6384 155.639 93.214 155.809 93.7794C157.736 96.4265 160.918 98.5648 165.138 99.9886C171.599 102.168 179.53 102.317 187.142 100.79C194.755 99.2638 202.017 96.0616 207.137 91.5384C210.483 88.5932 212.59 85.3704 213.341 82.199C213.279 81.6182 213.197 81.0322 213.099 80.4514C212.796 84.0751 210.637 87.7913 206.798 91.1683Z" fill="black"/>
<path d="M213.469 86.7839C213.469 86.9022 213.469 87.0204 213.444 87.1386C213.454 87.0204 213.459 86.9022 213.469 86.7839Z" fill="black"/>
<path d="M165.179 82.2041C170.571 84.0236 177.196 84.147 183.544 82.8723C189.892 81.5975 195.962 78.9299 200.234 75.1623C203.76 72.0783 205.641 68.6036 205.672 65.2626C205.497 65.0724 205.317 64.8925 205.158 64.7126C205.343 68.0691 203.523 71.6002 199.915 74.7768C191.47 82.1938 175.973 85.324 165.343 81.726C160.784 80.184 157.741 77.6397 156.605 74.4684C156.513 74.7048 156.415 74.9412 156.328 75.1828C157.659 78.2411 160.723 80.698 165.179 82.2041Z" fill="black"/>
<path d="M154.714 82.4868C156.004 86.2287 159.551 89.2202 164.845 91.0038C170.864 93.0598 178.265 93.178 185.354 91.7542C192.442 90.3304 199.232 87.3492 203.991 83.1447C208.191 79.4542 210.298 75.3216 210.041 71.369C209.825 70.9681 209.604 70.5723 209.368 70.1816C210.19 74.3245 208.16 78.7911 203.652 82.7644C194.23 91.05 176.893 94.5298 165.009 90.5206C159.314 88.5983 155.716 85.2675 154.873 81.135C154.807 81.5822 154.755 82.0293 154.709 82.4817L154.714 82.4868Z" fill="black"/>
<path d="M154.585 83.8952C154.585 83.7051 154.585 83.5149 154.621 83.3247C154.606 83.5149 154.596 83.7051 154.585 83.8952Z" fill="black"/>
<path d="M167.708 73.3891C171.82 74.782 176.893 74.8746 181.745 73.9031C186.597 72.9316 191.234 70.8911 194.498 68.0178C197.458 65.4067 198.903 62.4769 198.635 59.691C198.445 59.5831 198.265 59.4751 198.075 59.3723C198.502 62.1017 197.124 65.0263 194.158 67.6323C187.749 73.2863 175.958 75.6353 167.872 72.9059C164.13 71.6415 161.704 69.4827 161.072 66.8048C160.939 66.9692 160.805 67.144 160.676 67.3188C161.504 69.9813 163.966 72.1298 167.708 73.3891Z" fill="black"/>
<path d="M159.582 68.8196C159.51 68.9224 159.443 69.0303 159.371 69.1383L159.582 68.8196Z" fill="black"/>
</g>
<path opacity="0.1" d="M176.518 102.152C158.96 95.4087 156.338 82.4611 157.726 72.0166C155.784 75.8704 154.712 80.1037 154.586 84.4173C154.459 88.7309 155.282 93.0196 156.995 96.9805C158.708 100.941 161.27 104.478 164.5 107.339C167.73 110.201 171.55 112.319 175.688 113.543C179.826 114.767 184.183 115.067 188.45 114.422C192.717 113.777 196.79 112.203 200.382 109.811C203.974 107.419 206.997 104.267 209.237 100.579C211.477 96.8903 212.88 92.7548 213.346 88.4646C211.989 97.4904 194.061 108.891 176.518 102.152Z" fill="black"/>
<path d="M22.7599 127.102L169.903 212.056L238.434 172.488L91.2966 87.5342L22.7599 127.102Z" fill="#A022F5"/>
<path opacity="0.8" d="M22.7599 127.102L169.903 212.056L238.434 172.488L91.2966 87.5342L22.7599 127.102Z" fill="#3A3D4A"/>
<path opacity="0.05" d="M176.302 182.727C177.844 183.015 179.545 182.994 180.928 183.755C181.838 184.37 182.698 185.058 183.498 185.811C186.008 188.15 189.319 189.437 192.75 189.409C195.998 189.486 203.508 187.353 203.544 183.123C203.58 180.491 200.645 179.011 198.209 177.983C184.346 172.309 172.193 163.135 162.938 151.358C159.499 146.963 156.333 142.106 151.532 139.248C148.474 137.433 144.958 136.58 141.525 135.65C122.782 130.589 104.894 122.777 88.444 112.468C91.4864 106.473 93.6007 100.05 94.7148 93.4195C90.7158 92.0214 86.8454 95.4755 82.8928 97.0175C79.8088 98.2254 76.7248 98.1842 73.6408 97.7062L60.544 105.267C61.0889 107.19 61.9627 109.06 62.5589 110.978C63.4738 113.897 63.5869 117.511 61.2893 119.551C59.9786 120.723 58.1642 121.093 56.4372 121.448L49.2412 122.877C47.1852 123.283 44.8105 123.936 44.0087 125.873C43.0269 128.243 45.1138 130.772 47.3034 132.113C51.3794 134.617 56.2367 135.424 60.7291 137.063C71.2609 140.903 79.5055 149.194 89.3126 154.621C96.1296 158.391 103.639 160.741 111.389 161.53C119.392 162.347 127.549 161.483 135.439 163.02C141.643 164.228 147.955 165.924 154.035 167.754C157.342 168.688 160.509 170.059 163.452 171.83C164.918 172.738 166.279 173.807 167.507 175.017C168.685 176.194 169.486 177.721 170.519 179.031C172.108 181.092 173.855 182.264 176.302 182.727Z" fill="black"/>
<path d="M22.7599 127.102V128.438L169.903 213.387V212.056L22.7599 127.102Z" fill="#A022F5"/>
<path opacity="0.6" d="M22.7599 127.102V128.438L169.903 213.387V212.056L22.7599 127.102Z" fill="#3A3D4A"/>
<path d="M169.903 212.056L238.434 172.488V173.824L169.903 213.387V212.056Z" fill="#A022F5"/>
<path opacity="0.45" d="M169.903 212.056L238.434 172.488V173.824L169.903 213.387V212.056Z" fill="#3A3D4A"/>
<path d="M42.4204 150.037C42.1317 148.989 41.7392 147.973 41.2485 147.004C41.2023 146.896 41.1457 146.788 41.0892 146.675C40.6225 145.77 40.3863 144.763 40.4015 143.745C40.4168 142.726 40.683 141.727 41.1766 140.836C41.2074 140.774 41.2434 140.713 41.2794 140.651C41.886 139.617 42.1988 138.437 42.184 137.238C42.1478 136.576 41.9498 135.934 41.6075 135.367C41.2652 134.799 40.7889 134.325 40.2205 133.984C39.9276 133.817 39.6237 133.669 39.3107 133.542C39.0201 133.43 38.7703 133.233 38.5941 132.976C38.418 132.719 38.3237 132.415 38.3239 132.103V130.32H32.6236V132.098C32.6229 132.411 32.5272 132.716 32.3491 132.973C32.171 133.23 31.919 133.427 31.6264 133.537C31.3111 133.658 31.0053 133.803 30.7115 133.969C30.141 134.306 29.6614 134.777 29.3147 135.341C28.968 135.905 28.7646 136.546 28.7223 137.207C28.697 138.414 29.0008 139.604 29.6013 140.651C29.6321 140.713 29.6681 140.769 29.6989 140.826C30.1871 141.724 30.4466 142.728 30.4547 143.75C30.4628 144.772 30.2191 145.78 29.7452 146.685C29.6887 146.793 29.6373 146.901 29.5859 147.009C29.0874 147.973 28.6862 148.983 28.3882 150.026C28.1848 151.041 28.0917 152.075 28.1107 153.11L28.0798 161.406C28.0798 162.481 28.7789 163.56 30.1975 164.382C31.4643 165.078 32.8677 165.488 34.3095 165.585C34.9937 165.641 35.6813 165.641 36.3655 165.585C37.8043 165.493 39.2065 165.094 40.4775 164.413C41.9013 163.601 42.6158 162.527 42.6209 161.453V155.454C42.6209 154.709 42.6569 153.912 42.6569 153.146C42.6948 152.104 42.6155 151.061 42.4204 150.037Z" fill="#A022F5"/>
<path opacity="0.3" d="M42.4204 150.037C42.1317 148.989 41.7392 147.973 41.2485 147.004C41.2023 146.896 41.1457 146.788 41.0892 146.675C40.6225 145.77 40.3863 144.763 40.4015 143.745C40.4168 142.726 40.683 141.727 41.1766 140.836C41.2074 140.774 41.2434 140.713 41.2794 140.651C41.886 139.617 42.1988 138.437 42.184 137.238C42.1478 136.576 41.9498 135.934 41.6075 135.367C41.2652 134.799 40.7889 134.325 40.2205 133.984C39.9276 133.817 39.6237 133.669 39.3107 133.542C39.0201 133.43 38.7703 133.233 38.5941 132.976C38.418 132.719 38.3237 132.415 38.3239 132.103V130.32H32.6236V132.098C32.6229 132.411 32.5272 132.716 32.3491 132.973C32.171 133.23 31.919 133.427 31.6264 133.537C31.3111 133.658 31.0053 133.803 30.7115 133.969C30.141 134.306 29.6614 134.777 29.3147 135.341C28.968 135.905 28.7646 136.546 28.7223 137.207C28.697 138.414 29.0008 139.604 29.6013 140.651C29.6321 140.713 29.6681 140.769 29.6989 140.826C30.1871 141.724 30.4466 142.728 30.4547 143.75C30.4628 144.772 30.2191 145.78 29.7452 146.685C29.6887 146.793 29.6373 146.901 29.5859 147.009C29.0874 147.973 28.6862 148.983 28.3882 150.026C28.1848 151.041 28.0917 152.075 28.1107 153.11L28.0798 161.406C28.0798 162.481 28.7789 163.56 30.1975 164.382C31.4643 165.078 32.8677 165.488 34.3095 165.585C34.9937 165.641 35.6813 165.641 36.3655 165.585C37.8043 165.493 39.2065 165.094 40.4775 164.413C41.9013 163.601 42.6158 162.527 42.6209 161.453V155.454C42.6209 154.709 42.6569 153.912 42.6569 153.146C42.6948 152.104 42.6155 151.061 42.4204 150.037Z" fill="black"/>
<path opacity="0.1" d="M41.1766 140.836C41.2074 140.774 41.2434 140.713 41.2793 140.651C41.789 139.765 42.0864 138.772 42.148 137.752C42.0261 138.164 41.8534 138.559 41.634 138.929C40.9331 139.961 40.0645 140.867 39.064 141.612C38.0874 142.409 37.008 143.313 36.8847 144.568C36.7613 145.822 37.6197 146.886 38.5963 147.621C39.5729 148.356 40.7088 148.87 41.5878 149.723C41.9617 150.099 42.2942 150.515 42.5798 150.962C42.5459 150.654 42.4962 150.349 42.4307 150.047C42.1394 148.996 41.7433 147.976 41.2485 147.004C41.2023 146.896 41.1457 146.788 41.0892 146.675C40.6225 145.77 40.3863 144.763 40.4015 143.745C40.4168 142.726 40.683 141.727 41.1766 140.836Z" fill="black"/>
<path d="M31.6624 132.262V133.218C31.6919 133.56 31.8116 133.888 32.0094 134.168C32.2072 134.448 32.476 134.67 32.7881 134.812C33.6378 135.24 34.5761 135.463 35.5277 135.463C36.4793 135.463 37.4176 135.24 38.2673 134.812C38.6018 134.632 38.8916 134.379 39.1154 134.072C39.2974 133.83 39.3981 133.536 39.4033 133.234V132.262C39.4035 132.176 39.3931 132.089 39.3724 132.005C39.2971 131.717 39.1603 131.449 38.9712 131.219C38.7822 130.99 38.5456 130.804 38.2776 130.674L38.2211 130.643C37.3785 130.225 36.4505 130.007 35.5097 130.007C34.5689 130.007 33.6409 130.225 32.7984 130.643C32.5305 130.771 32.293 130.955 32.1016 131.182C31.9102 131.409 31.7692 131.674 31.6881 131.959C31.6702 132.059 31.6616 132.161 31.6624 132.262Z" fill="#A022F5"/>
<path opacity="0.1" d="M31.6624 132.262V133.218C31.6919 133.56 31.8116 133.888 32.0094 134.168C32.2072 134.448 32.476 134.67 32.7881 134.812C33.6378 135.24 34.5761 135.463 35.5277 135.463C36.4793 135.463 37.4176 135.24 38.2673 134.812C38.6018 134.632 38.8916 134.379 39.1154 134.072C39.2974 133.83 39.3981 133.536 39.4033 133.234V132.262C39.4035 132.176 39.3931 132.089 39.3724 132.005C39.2971 131.717 39.1603 131.449 38.9712 131.219C38.7822 130.99 38.5456 130.804 38.2776 130.674L38.2211 130.643C37.3785 130.225 36.4505 130.007 35.5097 130.007C34.5689 130.007 33.6409 130.225 32.7984 130.643C32.5305 130.771 32.293 130.955 32.1016 131.182C31.9102 131.409 31.7692 131.674 31.6881 131.959C31.6702 132.059 31.6616 132.161 31.6624 132.262Z" fill="black"/>
<path opacity="0.2" d="M38.2673 133.856C39.8093 132.992 39.8093 131.574 38.2673 130.7C37.4208 130.266 36.4842 130.038 35.5333 130.034C34.5823 130.029 33.6436 130.249 32.7932 130.674C31.282 131.543 31.2512 132.956 32.7932 133.835C33.6396 134.269 34.5766 134.497 35.5277 134.501C36.4789 134.504 37.4175 134.283 38.2673 133.856Z" fill="black"/>
<path d="M31.6675 131.142V131.717C31.6574 131.808 31.6574 131.899 31.6675 131.99C31.7447 132.276 31.8829 132.543 32.0728 132.771C32.2627 132.999 32.4997 133.183 32.7675 133.311C33.5118 133.716 34.3413 133.94 35.1884 133.964C36.2468 134.041 37.3058 133.822 38.2467 133.331C38.5881 133.158 38.888 132.912 39.1257 132.612C39.2502 132.442 39.3361 132.248 39.3775 132.041C39.4004 131.954 39.4108 131.864 39.4084 131.774V131.183C39.3786 130.842 39.2586 130.515 39.0608 130.236C38.8629 129.957 38.5944 129.736 38.2827 129.595L38.0771 129.482C37.2472 129.101 36.3425 128.912 35.4298 128.928C34.517 128.944 33.6195 129.165 32.8035 129.574C32.4924 129.712 32.2233 129.929 32.0237 130.204C31.8242 130.48 31.7013 130.803 31.6675 131.142Z" fill="#A022F5"/>
<path opacity="0.1" d="M31.6675 131.142V131.717C31.6574 131.808 31.6574 131.899 31.6675 131.99C31.7447 132.276 31.8829 132.543 32.0728 132.771C32.2627 132.999 32.4997 133.183 32.7675 133.311C33.5118 133.716 34.3413 133.94 35.1884 133.964C36.2468 134.041 37.3058 133.822 38.2467 133.331C38.5881 133.158 38.888 132.912 39.1257 132.612C39.2502 132.442 39.3361 132.248 39.3775 132.041C39.4004 131.954 39.4108 131.864 39.4084 131.774V131.183C39.3786 130.842 39.2586 130.515 39.0608 130.236C38.8629 129.957 38.5944 129.736 38.2827 129.595L38.0771 129.482C37.2472 129.101 36.3425 128.912 35.4298 128.928C34.517 128.944 33.6195 129.165 32.8035 129.574C32.4924 129.712 32.2233 129.929 32.0237 130.204C31.8242 130.48 31.7013 130.803 31.6675 131.142Z" fill="black"/>
<path d="M31.6676 131.121C31.6676 132.355 33.3946 133.357 35.5329 133.362C37.6711 133.368 39.4084 132.381 39.4136 131.152C39.4187 129.924 37.6865 128.921 35.5483 128.911C33.4101 128.901 31.6727 129.893 31.6676 131.121Z" fill="#A022F5"/>
<path d="M34.2067 128.839V130.844C34.2019 130.876 34.2019 130.909 34.2067 130.941C34.2338 131.04 34.2818 131.132 34.3474 131.211C34.413 131.29 34.4947 131.354 34.5871 131.399C34.8453 131.538 35.132 131.615 35.4249 131.625C35.7914 131.65 36.1577 131.573 36.4837 131.404C36.5988 131.341 36.6988 131.253 36.7767 131.147C36.821 131.089 36.8526 131.023 36.8692 130.952C36.8718 130.921 36.8718 130.89 36.8692 130.859V128.849C36.8593 128.731 36.8178 128.618 36.7491 128.521C36.6804 128.424 36.587 128.348 36.4786 128.299L36.4066 128.258C36.1193 128.127 35.8065 128.062 35.4908 128.068C35.1751 128.073 34.8646 128.149 34.5819 128.289C34.4771 128.34 34.3874 128.418 34.3216 128.515C34.2558 128.611 34.2162 128.723 34.2067 128.839Z" fill="#A022F5"/>
<path opacity="0.1" d="M34.2067 128.839V130.844C34.2019 130.876 34.2019 130.909 34.2067 130.941C34.2338 131.04 34.2818 131.132 34.3474 131.211C34.413 131.29 34.4947 131.354 34.5871 131.399C34.8453 131.538 35.132 131.615 35.4249 131.625C35.7914 131.65 36.1577 131.573 36.4837 131.404C36.5988 131.341 36.6988 131.253 36.7767 131.147C36.821 131.089 36.8526 131.023 36.8692 130.952C36.8718 130.921 36.8718 130.89 36.8692 130.859V128.849C36.8593 128.731 36.8178 128.618 36.7491 128.521C36.6804 128.424 36.587 128.348 36.4786 128.299L36.4066 128.258C36.1193 128.127 35.8065 128.062 35.4908 128.068C35.1751 128.073 34.8646 128.149 34.5819 128.289C34.4771 128.34 34.3874 128.418 34.3216 128.515C34.2558 128.611 34.2162 128.723 34.2067 128.839Z" fill="black"/>
<path d="M34.2067 128.834C34.2067 129.261 34.8029 129.605 35.5482 129.61C36.2935 129.615 36.8897 129.271 36.8897 128.844C36.8897 128.418 36.2935 128.068 35.5533 128.068C34.8132 128.068 34.2118 128.407 34.2067 128.834Z" fill="#A022F5"/>
<path opacity="0.5" d="M35.0753 128.839C35.0753 128.988 35.2861 129.111 35.5482 129.111C35.8103 129.111 36.0262 128.993 36.0262 128.839C36.0262 128.685 35.8155 128.567 35.5482 128.567C35.2809 128.567 35.0753 128.685 35.0753 128.839Z" fill="#A022F5"/>
<path opacity="0.3" d="M35.0753 128.839C35.0753 128.988 35.2861 129.111 35.5482 129.111C35.8103 129.111 36.0262 128.993 36.0262 128.839C36.0262 128.685 35.8155 128.567 35.5482 128.567C35.2809 128.567 35.0753 128.685 35.0753 128.839Z" fill="black"/>
<path d="M100.127 114.766C100.127 114.766 103.679 85.8996 102.872 75.3575C102.461 69.9553 99.8496 68.7269 95.8507 69.0353C91.8518 69.3437 68.9788 81.4998 68.9788 81.4998L72.217 89.364L91.2709 83.3861C91.2709 83.3861 89.3332 94.617 88.886 96.7501C88.4388 98.8832 87.4982 101.756 86.758 104.332C86.3931 105.596 85.8842 107.246 85.8842 108.043C85.8842 109.924 100.127 114.766 100.127 114.766Z" fill="#FFA8A7"/>
<path d="M91.271 83.3861C93.9181 82.8721 96.5704 81.3301 97.403 80.0605C96.9722 81.4651 96.0243 82.6537 94.7508 83.3861C93.5418 84.1672 92.2614 84.8315 90.9266 85.3702L91.271 83.3861Z" fill="#F28F8F"/>
<path d="M136.128 114.257C135.727 112.787 133.147 111.24 125.457 109.944C117.768 108.649 110.772 109.944 110.736 110.854C110.7 111.764 112.633 117.85 121.494 118.955C130.356 120.06 136.94 117.48 136.128 114.257Z" fill="#232531"/>
<path d="M112.998 126.752C112.998 126.752 107.986 94.2417 108.706 87.606C109.451 80.7492 112.052 77.5675 116.416 77.1204C122.116 80.4357 125.154 88.3461 128.798 96.1384C132.442 103.931 136.395 120.661 136.601 128.654C136.806 136.647 130.494 142.337 123.329 143.38C116.164 144.424 112.998 126.752 112.998 126.752Z" fill="#FFA8A7"/>
<path d="M120.872 101.304C118.558 99.4448 116.995 96.81 116.472 93.8872L123.622 91.3943L128.459 95.4189C128.505 95.5217 128.551 95.6245 128.603 95.7273L128.788 96.1334C128.927 96.4263 129.065 96.7399 129.204 97.0637L129.328 97.3413L129.646 98.1123L129.754 98.3795C129.893 98.7393 130.037 99.0991 130.176 99.4795C130.314 99.8547 130.458 100.24 130.597 100.636C130.597 100.718 130.654 100.806 130.685 100.888C130.808 101.243 130.931 101.597 131.055 101.967C131.055 102.019 131.091 102.07 131.106 102.127C131.399 102.995 131.682 103.9 131.964 104.83L132.011 104.979C132.144 105.437 132.283 105.899 132.417 106.362C132.417 106.362 125.776 105.406 120.872 101.304Z" fill="#F28F8F"/>
<path d="M114.925 77.4032C117.644 76.3238 120.965 78.8424 122.717 79.9732C126.274 82.2553 148.058 99.2276 153.136 103.206C154.236 103.869 155.356 104.512 156.498 105.118L150.515 114.473C150.022 113.128 149.251 111.902 148.253 110.875C142.825 106.999 132.319 104.887 125.555 102.255C120.297 100.199 119.197 99.0477 117.418 96.0408C116.041 93.6816 111.142 79.1816 114.925 77.4032Z" fill="#FFA8A7"/>
<path d="M112.885 126.927L110.736 110.854C110.736 110.854 112.664 115.29 122.615 116.452C132.566 117.613 136.38 115.938 136.128 114.257C136.128 114.257 138.729 124.316 137.721 130.859C136.714 137.402 126.737 144.357 126.737 144.357L112.885 126.927Z" fill="#37474F"/>
<path opacity="0.15" d="M117.29 129.112C116.38 129.112 115.522 129.168 114.72 129.219L125.781 143.139H128.351C131.214 140.856 136.971 135.742 137.721 130.859C138.456 126.063 137.259 119.381 136.565 116.154C136.961 119.854 128.665 128.89 117.29 129.112Z" fill="black"/>
<path d="M167.112 91.5227C163.514 90.8545 161.843 93.445 160.512 95.5884C159.181 97.7318 156.965 101.664 155.978 102.332C154.992 103 154.436 102.332 153.018 103.396C151.599 104.46 150.571 106.48 151.008 107.215L152.036 108.999C151.445 108.937 150.848 109.014 150.292 109.224C149.736 109.434 149.237 109.77 148.834 110.207C147.292 111.749 148.094 112.011 148.962 112.879C149.831 113.748 151.872 117.701 153.917 118.78C153.917 118.78 159.422 117.125 163.421 110.88C167.42 104.635 167.112 91.5227 167.112 91.5227Z" fill="#A022F5"/>
<path d="M155.043 119.608C154.832 119.57 154.631 119.488 154.454 119.368C154.276 119.248 154.125 119.093 154.011 118.911C153.897 118.73 153.822 118.527 153.791 118.315C153.76 118.103 153.773 117.887 153.83 117.68C154.443 115.753 155.361 113.936 156.549 112.299C157.937 110.34 160.527 106.645 160.964 104.63C161.401 102.615 162.342 96.9505 163.879 94.581C165.415 92.2115 166.993 90.8442 169.019 91.6049C171.044 92.3657 164.65 107.539 162.773 110.109C160.897 112.679 155.043 119.608 155.043 119.608Z" fill="#37474F"/>
<path d="M156.225 119.279C161.288 116.58 162.959 113.954 164.449 110.541C165.94 107.128 169.44 103.967 170.34 100.898C171.239 97.8294 171.342 89.96 167.862 91.867C164.382 93.7739 163.658 100.811 162.126 104.876C160.594 108.942 151.26 121.926 156.225 119.279Z" fill="#232531"/>
<path d="M125.796 127.605C128.115 127.256 132.561 128.212 136.59 133.845C140.923 139.895 141.73 150.453 139.016 151.321C139.016 151.321 132.71 150.576 128.387 148.314C124.064 146.053 116.786 130.71 125.796 127.605Z" fill="#232531"/>
<path d="M199.72 177.957C193.002 175.32 187.512 170.792 182.758 165.724C178.939 160.527 162.552 138.297 159.705 135.166C158.677 134.056 156.246 131.203 152.869 130.484C140.908 127.945 118.775 128.299 118.775 128.299L110.263 126.865L93.3013 142.83C95.64 145.318 98.58 147.492 102.867 149.733C107.154 151.974 111.805 153.588 118.061 153.059C130.592 152 138.107 148.458 144.819 146.891C146.762 146.438 148.777 146.022 150.304 149.209C151.83 152.396 151.954 153.989 156.472 157.381C162.27 161.73 171.83 166.592 176.004 171.773C176.692 173.043 177.102 174.445 177.207 175.885C177.602 181.344 182.187 180.275 185.883 182.65C187.893 183.94 189.394 185.513 191.82 186.052C194.029 186.507 196.311 186.465 198.502 185.929C200.47 185.456 203.302 184.037 204.269 182.115C205.533 179.561 201.642 178.718 199.72 177.957Z" fill="#FFA8A7"/>
<path d="M199.72 177.957C193.002 175.32 187.512 170.792 182.758 165.724C178.939 160.527 162.552 138.297 159.705 135.166C158.677 134.056 156.246 131.203 152.869 130.484C140.908 127.945 118.775 128.299 118.775 128.299L110.263 126.865L93.3013 142.83C95.64 145.318 98.58 147.492 102.867 149.733C107.154 151.974 111.805 153.588 118.061 153.059C130.592 152 138.107 148.458 144.819 146.891C146.762 146.438 148.777 146.022 150.304 149.209C151.83 152.396 151.954 153.989 156.472 157.381C162.27 161.73 171.83 166.592 176.004 171.773C176.692 173.043 177.102 174.445 177.207 175.885C177.602 181.344 182.187 180.275 185.883 182.65C187.893 183.94 189.394 185.513 191.82 186.052C194.029 186.507 196.311 186.465 198.502 185.929C200.47 185.456 203.302 184.037 204.269 182.115C205.533 179.561 201.642 178.718 199.72 177.957Z" fill="#FFA8A7"/>
<path d="M156.071 154.796C154.795 153.386 153.829 151.724 153.234 149.918C152.773 148.412 152.179 146.95 151.46 145.549C149.374 141.951 135.526 146.541 129.394 148.422C129.05 148.936 127.616 150.478 127.097 151.758C134.529 150.247 139.875 148.037 144.794 146.891C146.737 146.438 148.752 146.022 150.278 149.209C151.805 152.396 151.928 153.989 156.446 157.381C158.8 159.144 161.782 160.979 164.768 162.922C161.427 160.337 158.908 157.741 156.071 154.796Z" fill="#F28F8F"/>
<path d="M111.564 126.865C111.564 126.865 123.735 127.456 125.796 127.605C125.796 127.605 121.222 128.844 126.794 140.101C132.365 151.357 139.022 151.306 139.022 151.306C130.284 154.097 125.745 157.237 114.607 155.932C101.33 154.015 93.2756 144.074 93.2756 144.074L111.564 126.865Z" fill="#455A64"/>
<path opacity="0.15" d="M138.986 151.306L138.682 151.28C137.69 151.162 134.745 150.52 131.435 146.999C128.819 147.709 126.164 148.266 123.483 148.669C113.558 150.124 106.105 148.376 95.0129 142.46L93.2961 144.069C97.7015 149.037 103.353 152.738 109.667 154.791C110.053 154.914 110.443 155.027 110.844 155.141C111.219 155.243 111.595 155.336 111.98 155.428L112.078 155.454C112.432 155.536 112.792 155.608 113.152 155.675L113.342 155.716C113.758 155.793 114.185 155.865 114.617 155.927C115.311 156.009 115.984 156.076 116.632 156.122C117.279 156.169 117.901 156.205 118.503 156.22H119.397H120.255C121.104 156.22 121.911 156.153 122.687 156.076C123.201 156.025 123.715 155.963 124.229 155.886C125.415 155.706 126.591 155.459 127.75 155.146C128.202 155.022 128.649 154.894 129.096 154.76C130.212 154.421 131.312 154.035 132.442 153.629L133.815 153.115C135.434 152.519 137.145 151.892 139.058 151.28L138.986 151.306Z" fill="black"/>
<path d="M70.8857 111.538C65.941 113.26 61.2636 116.256 65.2009 125.046C70.8857 137.726 96.4829 151.815 109.646 154.806C102.964 144.696 108.526 133.979 112.885 126.937L111.738 118.354C111.738 118.354 107.786 116.457 101.248 111.399C94.7096 106.341 92.006 104.969 82.2657 107.94C75.5837 109.955 70.8857 111.538 70.8857 111.538Z" fill="#A022F5"/>
<path opacity="0.05" d="M90.9112 140.199C77.4547 132.489 73.2244 125.621 67.9457 119.027L64.4916 123.247C64.5841 123.517 64.6869 123.795 64.8 124.079V124.126C64.9182 124.424 65.0416 124.722 65.1803 125.036C67.6681 130.582 73.9646 136.4 81.3662 141.442C82.425 142.162 83.5027 142.864 84.5993 143.55C85.1492 143.894 85.6992 144.228 86.2492 144.578C90.018 146.842 93.9175 148.881 97.9273 150.684C101.69 152.418 105.606 153.794 109.626 154.796C108.161 152.622 107.183 150.157 106.758 147.569C102.086 146.145 97.074 143.735 90.9112 140.199Z" fill="black"/>
<path d="M67.1695 113.249C67.1695 113.249 50.5725 104.378 47.9459 103.185L62.451 94.658L59.367 86.655C59.367 86.655 37.779 94.3291 33.667 96.5341C31.5133 97.6958 30.583 98.6621 30.583 100.317C30.583 103.072 33.2095 106.655 36.8435 109.754C44.5844 116.349 55.0802 122.486 65.2986 128.119C67.6424 129.857 70.0839 132.041 70.0839 132.041C72.7978 133.372 76.7042 120.939 67.1695 113.249Z" fill="#FFA8A7"/>
<path d="M82.7078 82.4198C82.1945 81.2281 81.4514 80.1492 80.5211 79.2446C79.5908 78.3401 78.4915 77.6276 77.2858 77.1479C76.0802 76.6683 74.7919 76.4308 73.4944 76.449C72.197 76.4672 70.9159 76.7408 69.7242 77.2541C68.5325 77.7674 67.4535 78.5105 66.549 79.4408C65.6444 80.3711 64.932 81.4704 64.4523 82.6761C63.9726 83.8817 63.7351 85.17 63.7533 86.4675C63.7715 87.7649 64.0451 89.046 64.5585 90.2377C64.6304 90.3971 64.7127 90.5513 64.7898 90.7055L62.2763 96.1642L58.5961 89.3331C58.5964 88.794 58.397 88.2739 58.0362 87.8733C57.6755 87.4727 57.1791 87.22 56.6429 87.164C56.3711 87.1416 56.0977 87.1746 55.8391 87.2609C55.5805 87.3472 55.3421 87.4852 55.1383 87.6663C54.9346 87.8475 54.7697 88.0681 54.6537 88.3149C54.5377 88.5616 54.473 88.8293 54.4635 89.1018L57.2956 89.3434C56.6777 89.7582 56.2036 90.3544 55.9387 91.0499C55.2602 92.8077 57.604 96.3903 60.7497 99.536C60.7497 99.536 65.1958 105.812 66.2701 106.696C66.9656 107.225 67.8374 107.468 68.7064 107.374L68.9737 95.0385C70.779 96.0128 72.843 96.4007 74.8789 96.1481C76.9147 95.8956 78.8214 95.0152 80.3339 93.6293C81.8465 92.2434 82.8897 90.4207 83.3189 88.4146C83.748 86.4086 83.5416 84.3186 82.7284 82.4352L82.7078 82.4198Z" fill="#232531"/>
<path d="M64.4659 98.3076C64.0547 98.8782 62.8005 98.1534 61.8085 97.7319C60.8165 97.3105 58.154 97.2899 58.0512 100.122C57.9484 102.954 61.4333 105.262 63.4328 105.051C66.8766 104.697 66.5168 102.558 66.5168 102.558L71.6002 113.738C77.4547 116.95 88.3515 111.903 81.8134 108.732L80.3691 105.401C81.6177 105.064 82.8247 104.588 83.9671 103.982C86.0231 102.677 86.6913 100.312 86.3315 97.6034C85.7455 93.255 84.7895 89.9448 80.6004 82.6974C75.9744 74.7716 66.2084 78.8733 62.3996 84.445C58.5909 90.0168 64.4659 98.3076 64.4659 98.3076Z" fill="#FFA8A7"/>
<path d="M64.8668 99.243C64.5892 99.3664 62.7696 98.0608 61.7828 97.7318C60.4464 97.2692 58.2824 88.8448 58.2824 88.8448C58.2824 88.8448 56.5194 87.3028 57.4857 84.4552C58.2876 82.1319 61.2276 80.5848 63.2631 79.5568C66.933 77.7012 71.0348 75.5836 72.8389 71.6977C72.9777 71.3945 73.1884 71.0398 73.5225 71.0347C73.7367 71.058 73.9337 71.1629 74.0725 71.3277C74.9168 72.2788 75.3943 73.4999 75.4192 74.7715C75.4192 74.8948 75.4552 75.0387 75.5682 75.0747C75.6813 75.1107 75.779 75.013 75.8458 74.9308C76.2209 74.475 76.5053 73.9515 76.6836 73.3888C76.9355 72.6229 78.2256 74.571 78.3233 74.8383C78.6265 75.6847 78.7572 76.5833 78.7078 77.4811C78.6583 78.3788 78.4297 79.2576 78.0354 80.0657C77.2336 81.6693 75.5785 82.6716 74.0725 83.5506C70.7058 85.5141 64.949 87.3799 64.1472 87.606C63.0575 87.9093 63.2631 88.999 63.885 91.9699C64.4556 94.5759 65.792 98.8164 64.8668 99.243Z" fill="#232531"/>
<path d="M80.3434 105.401C80.3434 105.401 74.3296 106.675 72.1862 106.501C70.9328 106.405 69.7368 105.936 68.7527 105.154C69.4533 106.058 70.327 106.812 71.3227 107.375C73.2964 108.454 80.9036 106.727 80.9036 106.727L80.3434 105.401Z" fill="#F28F8F"/>
<path d="M70.932 89.7546L69.1279 91.7026C68.8702 91.452 68.7193 91.1115 68.7069 90.7523C68.6944 90.3931 68.8213 90.043 69.061 89.7751C69.1802 89.6469 69.3241 89.5442 69.4842 89.4734C69.6443 89.4026 69.8171 89.365 69.9921 89.3631C70.1671 89.3612 70.3407 89.3949 70.5023 89.4622C70.6639 89.5295 70.8101 89.629 70.932 89.7546Z" fill="#232531"/>
<path d="M76.7042 99.7159L79.3513 99.5874C79.3682 99.7619 79.3496 99.9381 79.2967 100.105C79.2438 100.272 79.1576 100.427 79.0433 100.56C78.929 100.693 78.789 100.802 78.6317 100.879C78.4744 100.957 78.3031 101.002 78.128 101.011C77.7693 101.021 77.4205 100.892 77.1551 100.65C76.8896 100.409 76.728 100.074 76.7042 99.7159Z" fill="#F28F8F"/>
<path d="M81.8339 86.655L79.2639 85.992C79.2982 85.8211 79.3669 85.659 79.466 85.5157C79.5651 85.3724 79.6924 85.2508 79.8402 85.1584C79.9879 85.066 80.153 85.0047 80.3252 84.9784C80.4975 84.952 80.6733 84.9611 80.8419 85.0051C81.1865 85.1017 81.4811 85.3264 81.6655 85.6331C81.8499 85.9398 81.9101 86.3054 81.8339 86.655Z" fill="#232531"/>
<path d="M76.3496 90.6797L78.1024 96.9865L81.1812 95.1155L76.3496 90.6797Z" fill="#F28F8F"/>
<path d="M71.4461 93.5017C71.445 93.7307 71.512 93.9548 71.6385 94.1456C71.7649 94.3365 71.9452 94.4855 72.1564 94.5738C72.3676 94.6622 72.6003 94.6858 72.825 94.6417C73.0497 94.5977 73.2562 94.488 73.4185 94.3264C73.5807 94.1649 73.6914 93.9588 73.7364 93.7344C73.7815 93.5099 73.7589 93.2771 73.6715 93.0655C73.5841 92.8538 73.4359 92.6729 73.2456 92.5456C73.0553 92.4183 72.8315 92.3503 72.6026 92.3503C72.2967 92.3503 72.0033 92.4715 71.7866 92.6873C71.5699 92.903 71.4474 93.1959 71.4461 93.5017Z" fill="#232531"/>
<path d="M79.8036 90.2428C79.8036 90.4624 79.8687 90.677 79.9907 90.8596C80.1127 91.0422 80.2861 91.1845 80.489 91.2685C80.6918 91.3526 80.9151 91.3746 81.1304 91.3317C81.3458 91.2889 81.5436 91.1831 81.6989 91.0279C81.8542 90.8726 81.9599 90.6748 82.0027 90.4594C82.0456 90.244 82.0236 90.0208 81.9396 89.8179C81.8555 89.6151 81.7132 89.4417 81.5306 89.3197C81.3481 89.1977 81.1334 89.1326 80.9138 89.1326C80.6194 89.1326 80.337 89.2495 80.1288 89.4577C79.9206 89.666 79.8036 89.9484 79.8036 90.2428Z" fill="#232531"/>
<path d="M176.523 177.032C176.086 177.33 176.759 179.216 177.155 179.674C177.978 180.478 178.997 181.052 180.111 181.339C182.135 181.962 184.027 182.952 185.693 184.259C187.739 185.923 190.122 187.122 192.678 187.774C195.716 188.448 199.216 187.584 202.28 185.775C205.487 183.873 205.189 182.059 204.747 180.84L176.523 177.032Z" fill="#37474F"/>
<path d="M183.462 166.474C184.49 167.569 190.082 173.094 194.374 174.508C197.787 175.628 202.238 176.692 204.181 178.779C206.206 180.948 203.194 183.724 199.041 185.312C194.713 186.972 191.773 185.631 188.9 184.192C186.88 183.164 183.904 181.108 182.408 180.28C180.913 179.453 178.142 178.995 176.986 177.767C176.348 177.093 175.891 175.197 175.613 173.542C175.361 172 174.344 170.602 174.863 170.519L175.701 171.439C179.617 172.19 183.688 168.556 183.462 166.474Z" fill="#A022F5"/>
<path d="M47.946 103.185C45.4908 104.512 42.8394 105.439 40.092 105.93C40.092 105.93 44.4508 107.045 49.6627 104.018L47.946 103.185Z" fill="#F28F8F"/>
</svg>
