<svg width="257" height="257" viewBox="0 0 257 257" fill="none" xmlns="http://www.w3.org/2000/svg">
<path d="M226.196 128.104L221.298 125.277C221.298 125.277 220.1 114.792 220.897 106.67C222.017 95.2545 229.388 81.5256 238.182 84.7483C246.977 87.9711 234.148 99.5978 231.295 109.276C228.442 118.955 226.196 128.104 226.196 128.104Z" fill="#BA68C8"/>
<path opacity="0.15" d="M226.196 128.104L221.298 125.277C221.298 125.277 220.1 114.792 220.897 106.67C222.017 95.2545 229.388 81.5256 238.182 84.7483C246.977 87.9711 234.148 99.5978 231.295 109.276C228.442 118.955 226.196 128.104 226.196 128.104Z" fill="black"/>
<path d="M223.621 126.912C223.698 126.908 223.771 126.874 223.824 126.817C223.876 126.761 223.905 126.686 223.904 126.608C223.045 101.248 235.669 88.4953 235.797 88.3668C235.843 88.3098 235.867 88.2379 235.863 88.1647C235.859 88.0916 235.829 88.0223 235.778 87.9702C235.726 87.9181 235.657 87.8868 235.584 87.8822C235.511 87.8776 235.439 87.9001 235.381 87.9454C235.248 88.0739 222.444 101.011 223.312 126.629C223.314 126.668 223.323 126.706 223.339 126.742C223.355 126.777 223.379 126.809 223.407 126.835C223.436 126.861 223.47 126.882 223.506 126.895C223.543 126.908 223.582 126.914 223.621 126.912Z" fill="white"/>
<path d="M229.275 129.867L225.79 127.852C225.79 127.852 225.194 120.656 228.725 111.918C231.809 104.306 239.416 97.994 243.251 99.3201C247.085 100.646 246.987 103.365 245.116 106.213C243.245 109.06 231.881 115.861 229.275 129.867Z" fill="#BA68C8"/>
<path d="M227.435 129.101C227.514 129.101 227.59 129.07 227.646 129.014C227.701 128.958 227.733 128.882 227.733 128.803C227.661 112.772 242.716 101.937 242.87 101.829C242.902 101.806 242.929 101.777 242.949 101.743C242.97 101.71 242.984 101.673 242.99 101.634C242.996 101.596 242.995 101.556 242.985 101.518C242.976 101.48 242.96 101.444 242.937 101.412C242.915 101.38 242.887 101.353 242.854 101.332C242.821 101.311 242.784 101.297 242.746 101.291C242.707 101.285 242.668 101.286 242.63 101.296C242.592 101.305 242.557 101.322 242.526 101.345C242.372 101.453 227.07 112.468 227.137 128.808C227.139 128.886 227.172 128.96 227.227 129.015C227.283 129.069 227.357 129.1 227.435 129.101Z" fill="white"/>
<path d="M39.172 123.571L43.284 121.186C43.284 121.186 45.746 110.978 44.7797 101.772C43.4022 88.8552 34.8955 83.9979 31.6624 85.1081C28.4294 86.2183 27.4939 89.9808 32.8446 97.6754C35.98 102.229 39.8813 111.687 39.172 123.571Z" fill="#BA68C8"/>
<g opacity="0.15">
<path d="M39.172 123.571L43.284 121.186C43.284 121.186 45.746 110.978 44.7797 101.772C43.4022 88.8552 34.8955 83.9979 31.6624 85.1081C28.4294 86.2183 27.4939 89.9808 32.8446 97.6754C35.98 102.229 39.8813 111.687 39.172 123.571Z" fill="black"/>
</g>
<path d="M40.8836 118.554H40.8424C40.8046 118.548 40.7682 118.535 40.7356 118.515C40.703 118.495 40.6748 118.469 40.6527 118.438C40.6306 118.406 40.615 118.371 40.607 118.334C40.599 118.296 40.5986 118.257 40.606 118.22C42.8676 106.305 38.7042 92.9208 33.5488 87.3491C33.5022 87.2924 33.479 87.22 33.4839 87.1468C33.4889 87.0736 33.5216 87.005 33.5755 86.9551C33.6293 86.9053 33.7001 86.8778 33.7735 86.8784C33.8469 86.879 33.9173 86.9077 33.9703 86.9584C39.2182 92.6124 43.4638 106.239 41.1663 118.312C41.1574 118.381 41.1236 118.443 41.0714 118.488C41.0191 118.532 40.9522 118.556 40.8836 118.554Z" fill="white"/>
<path d="M28.3574 129.816C27.7046 130.15 25.9673 128.664 25.4841 128.305C24.6555 127.677 24.0023 126.847 23.5875 125.894C23.1283 124.812 23.0134 123.615 23.2585 122.466C23.3883 121.858 23.5601 121.261 23.7725 120.677C23.973 120.096 24.1683 119.52 24.3688 118.945C24.6016 118.386 24.7188 117.787 24.7131 117.182C24.6206 115.974 23.5978 115.079 22.6571 114.303C21.6291 113.445 20.5652 112.33 20.6423 110.88C20.7907 109.766 21.304 108.732 22.102 107.94C22.837 107.097 23.6954 106.362 24.3688 105.473C24.887 104.842 25.1752 104.053 25.186 103.237C25.1431 102.737 24.9998 102.251 24.7645 101.808C24.2242 100.882 23.7584 99.9141 23.3716 98.9141C23.0683 97.8861 23.1814 96.6268 24.009 95.9432C24.6874 95.3829 25.6538 95.3469 26.5327 95.4292C27.3482 95.5719 28.1232 95.8892 28.8046 96.3595C31.0405 97.7525 32.2124 100.543 34.5974 101.649C35.5529 102.005 36.5297 102.302 37.522 102.538C38.4935 102.846 39.4649 103.396 39.871 104.327C40.678 106.156 38.9047 108.279 39.4392 110.207C39.9121 111.913 41.4952 112.638 42.3485 114.195C42.6886 114.883 42.8003 115.661 42.6672 116.416C42.5219 117.697 42.1439 118.941 41.5518 120.086C40.8872 121.259 40.1508 122.39 39.3467 123.473L28.3574 129.816Z" fill="#BA68C8"/>
<path d="M34.6745 126.526C34.5976 126.52 34.5265 126.483 34.4764 126.424C34.4264 126.366 34.4015 126.29 34.4072 126.213C35.4352 114.879 30.7373 102.055 27.0313 98.2357C26.9776 98.1818 26.9475 98.1088 26.9475 98.0327C26.9475 97.9566 26.9776 97.8836 27.0313 97.8297C27.0853 97.776 27.1583 97.7458 27.2343 97.7458C27.3104 97.7458 27.3834 97.776 27.4374 97.8297C31.2153 101.772 36.0366 114.771 34.9521 126.264C34.9469 126.335 34.9156 126.401 34.8642 126.449C34.8128 126.498 34.7452 126.525 34.6745 126.526Z" fill="white"/>
<path d="M33.5487 112.566C33.5215 112.571 33.4937 112.571 33.4665 112.566C30.8141 111.689 28.0735 111.104 25.2939 110.823C25.256 110.82 25.2192 110.81 25.1855 110.792C25.1518 110.774 25.1219 110.75 25.0975 110.721C25.0732 110.692 25.0548 110.658 25.0435 110.622C25.0322 110.586 25.0282 110.548 25.0318 110.51C25.0335 110.472 25.0432 110.434 25.0604 110.4C25.0775 110.366 25.1016 110.336 25.1312 110.311C25.1608 110.287 25.1951 110.27 25.232 110.259C25.2689 110.249 25.3075 110.247 25.3453 110.253C28.1741 110.538 30.963 111.132 33.6618 112.026C33.7245 112.051 33.7764 112.097 33.8084 112.157C33.8405 112.216 33.8507 112.285 33.8372 112.351C33.8238 112.417 33.7875 112.476 33.7348 112.519C33.682 112.561 33.6162 112.583 33.5487 112.581V112.566Z" fill="white"/>
<path d="M187.723 170.304C186.757 167.153 182.825 164.547 179.144 165.575C178.565 165.738 178.008 165.974 177.489 166.279C173.917 168.335 171.028 173.347 171.028 177.469C171.017 178.165 171.114 178.859 171.316 179.525C172.277 182.676 176.215 185.266 179.895 184.233C180.474 184.07 181.031 183.834 181.55 183.529C185.117 181.473 188.011 176.456 188.011 172.334C188.019 171.647 187.922 170.962 187.723 170.304Z" fill="#455A64"/>
<path d="M181.545 183.524C185.112 181.468 188.006 176.451 188.006 172.329C188.006 168.207 185.112 166.536 181.545 168.592C177.978 170.648 175.084 175.66 175.084 179.782C175.084 183.904 177.978 185.585 181.545 183.524Z" fill="#37474F"/>
<path d="M181.545 173.167C182.917 172.375 184.027 173.018 184.027 174.606C183.981 175.468 183.732 176.306 183.3 177.054C182.869 177.801 182.268 178.437 181.545 178.908C180.172 179.7 179.062 179.057 179.062 177.474C179.109 176.611 179.358 175.772 179.789 175.024C180.22 174.275 180.822 173.639 181.545 173.167Z" fill="#455A64"/>
<path d="M182.393 175.546C182.377 175.842 182.293 176.129 182.145 176.385C181.998 176.642 181.792 176.86 181.545 177.022C181.463 177.08 181.369 177.118 181.269 177.132C181.17 177.145 181.068 177.134 180.974 177.099L180.913 177.063C180.838 177 180.779 176.921 180.741 176.832C180.703 176.743 180.686 176.646 180.692 176.549C180.709 176.253 180.795 175.966 180.943 175.71C181.091 175.454 181.297 175.236 181.545 175.074C181.627 175.015 181.721 174.978 181.821 174.966C181.921 174.953 182.022 174.965 182.115 175.002L182.177 175.032C182.251 175.095 182.309 175.174 182.346 175.264C182.384 175.353 182.4 175.45 182.393 175.546Z" fill="#37474F"/>
<path d="M196.045 183.426C196.029 183.721 195.944 184.009 195.796 184.265C195.649 184.521 195.444 184.739 195.197 184.901C195.086 184.973 194.958 185.012 194.827 185.014C194.727 185.012 194.629 184.984 194.544 184.932L180.974 177.099L180.913 177.063C180.838 177 180.779 176.921 180.741 176.832C180.703 176.743 180.686 176.646 180.692 176.549C180.709 176.253 180.795 175.966 180.943 175.71C181.091 175.454 181.297 175.236 181.545 175.074C181.627 175.015 181.721 174.978 181.821 174.966C181.921 174.953 182.022 174.965 182.115 175.002L182.177 175.032L195.747 182.866C195.844 182.922 195.924 183.004 195.976 183.103C196.029 183.202 196.053 183.314 196.045 183.426Z" fill="#FAFAFA"/>
<path d="M209.362 182.794C208.401 179.643 204.464 177.037 200.784 178.07C200.203 178.234 199.645 178.47 199.124 178.774C195.556 180.83 192.663 185.847 192.663 189.969C192.653 190.665 192.751 191.359 192.95 192.025C193.917 195.176 197.849 197.767 201.529 196.739C202.109 196.577 202.666 196.341 203.184 196.035C206.751 193.979 209.645 188.962 209.645 184.845C209.657 184.151 209.562 183.459 209.362 182.794Z" fill="#455A64"/>
<path d="M203.189 196.014C206.756 193.958 209.65 188.941 209.65 184.824C209.65 180.707 206.756 179.031 203.189 181.087C199.622 183.143 196.723 188.16 196.728 192.282C196.733 196.405 199.617 198.075 203.189 196.014Z" fill="#37474F"/>
<path d="M203.189 185.662C204.562 184.871 205.672 185.508 205.672 187.096C205.625 187.958 205.376 188.797 204.945 189.544C204.514 190.292 203.912 190.927 203.189 191.398C201.817 192.19 200.702 191.547 200.702 189.964C200.749 189.102 200.999 188.263 201.431 187.516C201.863 186.768 202.466 186.133 203.189 185.662Z" fill="#455A64"/>
<path d="M204.058 188.037C204.042 188.332 203.957 188.619 203.81 188.875C203.662 189.132 203.457 189.35 203.21 189.512C203.128 189.571 203.034 189.608 202.934 189.622C202.835 189.635 202.733 189.624 202.639 189.589C202.617 189.581 202.596 189.569 202.578 189.553C202.503 189.491 202.444 189.412 202.406 189.322C202.368 189.233 202.351 189.136 202.357 189.039C202.373 188.743 202.458 188.454 202.607 188.197C202.755 187.94 202.961 187.721 203.21 187.559C203.291 187.502 203.385 187.465 203.484 187.453C203.582 187.44 203.682 187.452 203.775 187.487L203.837 187.523C203.912 187.584 203.972 187.663 204.01 187.753C204.049 187.842 204.065 187.94 204.058 188.037Z" fill="#37474F"/>
<path d="M206.114 189.229C206.098 189.524 206.014 189.811 205.866 190.066C205.719 190.321 205.513 190.538 205.266 190.699C205.155 190.771 205.027 190.81 204.896 190.812C204.796 190.813 204.697 190.785 204.613 190.73L202.639 189.589C202.617 189.581 202.596 189.569 202.578 189.553C202.503 189.491 202.444 189.412 202.406 189.322C202.368 189.233 202.351 189.136 202.357 189.039C202.373 188.743 202.458 188.454 202.607 188.197C202.755 187.94 202.961 187.721 203.21 187.559C203.291 187.502 203.385 187.465 203.484 187.453C203.582 187.44 203.682 187.452 203.775 187.487L203.837 187.523L205.816 188.659C205.914 188.716 205.995 188.8 206.048 188.901C206.1 189.002 206.123 189.116 206.114 189.229Z" fill="#FAFAFA"/>
<path d="M206.114 189.219C206.099 189.515 206.014 189.803 205.867 190.06C205.719 190.318 205.514 190.536 205.266 190.699C205.184 190.756 205.089 190.793 204.989 190.805C204.89 190.818 204.789 190.806 204.695 190.771L204.634 190.735C204.559 190.673 204.499 190.594 204.461 190.505C204.422 190.416 204.406 190.318 204.413 190.221C204.429 189.926 204.515 189.638 204.664 189.382C204.812 189.126 205.018 188.908 205.266 188.746C205.347 188.687 205.442 188.65 205.541 188.636C205.641 188.623 205.742 188.634 205.836 188.669L205.898 188.705C205.972 188.768 206.03 188.847 206.067 188.936C206.105 189.025 206.121 189.122 206.114 189.219Z" fill="#E0E0E0"/>
<path d="M211.573 145.262C211.252 144.105 210.819 142.982 210.277 141.91C210.221 141.787 210.159 141.664 210.098 141.545C209.582 140.541 209.32 139.425 209.336 138.296C209.352 137.166 209.646 136.058 210.19 135.069L210.308 134.863C210.984 133.708 211.331 132.389 211.311 131.05C211.269 130.318 211.049 129.608 210.67 128.981C210.291 128.353 209.765 127.828 209.136 127.452C208.806 127.256 208.463 127.084 208.108 126.938C207.787 126.811 207.511 126.591 207.316 126.306C207.12 126.021 207.015 125.684 207.014 125.339V123.365H200.696V125.339C200.693 125.684 200.586 126.02 200.389 126.304C200.192 126.587 199.914 126.804 199.591 126.927C199.236 127.06 198.893 127.222 198.563 127.41C197.93 127.784 197.397 128.307 197.013 128.935C196.628 129.562 196.404 130.274 196.358 131.008C196.328 132.346 196.664 133.667 197.33 134.827L197.438 135.018C197.98 136.012 198.268 137.125 198.277 138.257C198.286 139.39 198.015 140.507 197.489 141.509C197.427 141.633 197.366 141.751 197.309 141.874C196.757 142.94 196.314 144.06 195.988 145.215C195.762 146.335 195.659 147.476 195.68 148.618L195.675 157.798C195.675 158.991 196.451 160.188 198.019 161.098C199.427 161.87 200.986 162.326 202.588 162.434C203.347 162.496 204.111 162.496 204.87 162.434C206.46 162.335 208.01 161.893 209.414 161.139C210.992 160.24 211.783 159.052 211.789 157.86V151.209C211.789 150.381 211.825 149.518 211.83 148.639C211.866 147.507 211.78 146.375 211.573 145.262Z" fill="#BA68C8"/>
<path opacity="0.3" d="M211.573 145.262C211.252 144.105 210.819 142.982 210.277 141.91C210.221 141.787 210.159 141.664 210.098 141.545C209.582 140.541 209.32 139.425 209.336 138.296C209.352 137.166 209.646 136.058 210.19 135.069L210.308 134.863C210.984 133.708 211.331 132.389 211.311 131.05C211.269 130.318 211.049 129.608 210.67 128.981C210.291 128.353 209.765 127.828 209.136 127.452C208.806 127.256 208.463 127.084 208.108 126.938C207.787 126.811 207.511 126.591 207.316 126.306C207.12 126.021 207.015 125.684 207.014 125.339V123.365H200.696V125.339C200.693 125.684 200.586 126.02 200.389 126.304C200.192 126.587 199.914 126.804 199.591 126.927C199.236 127.06 198.893 127.222 198.563 127.41C197.93 127.784 197.397 128.307 197.013 128.935C196.628 129.562 196.404 130.274 196.358 131.008C196.328 132.346 196.664 133.667 197.33 134.827L197.438 135.018C197.98 136.012 198.268 137.125 198.277 138.257C198.286 139.39 198.015 140.507 197.489 141.509C197.427 141.633 197.366 141.751 197.309 141.874C196.757 142.94 196.314 144.06 195.988 145.215C195.762 146.335 195.659 147.476 195.68 148.618L195.675 157.798C195.675 158.991 196.451 160.188 198.019 161.098C199.427 161.87 200.986 162.326 202.588 162.434C203.347 162.496 204.111 162.496 204.87 162.434C206.46 162.335 208.01 161.893 209.414 161.139C210.992 160.24 211.783 159.052 211.789 157.86V151.209C211.789 150.381 211.825 149.518 211.83 148.639C211.866 147.507 211.78 146.375 211.573 145.262Z" fill="black"/>
<path opacity="0.1" d="M210.19 135.069L210.308 134.863C210.882 133.878 211.218 132.773 211.29 131.635C211.145 132.094 210.943 132.533 210.689 132.941C209.912 134.082 208.952 135.086 207.846 135.912C206.762 136.796 205.559 137.798 205.425 139.191C205.292 140.584 206.243 141.761 207.322 142.573C208.401 143.386 209.666 143.961 210.637 144.902C211.051 145.319 211.42 145.779 211.737 146.274C211.701 145.929 211.646 145.586 211.573 145.246C211.253 144.089 210.82 142.966 210.277 141.895C210.221 141.772 210.159 141.648 210.098 141.53C209.584 140.527 209.324 139.414 209.34 138.288C209.357 137.162 209.648 136.057 210.19 135.069Z" fill="black"/>
<path d="M199.653 125.56V126.624C199.653 127.256 200.064 127.894 200.907 128.387C201.846 128.865 202.886 129.115 203.94 129.115C204.994 129.115 206.033 128.865 206.972 128.387C207.345 128.19 207.669 127.91 207.918 127.57C208.118 127.302 208.229 126.979 208.237 126.645V125.565C208.239 125.468 208.229 125.371 208.206 125.277C208.12 124.96 207.967 124.665 207.758 124.411C207.549 124.158 207.288 123.952 206.993 123.807L206.931 123.771C205.998 123.307 204.969 123.066 203.927 123.066C202.884 123.066 201.856 123.307 200.923 123.771C200.625 123.912 200.361 124.115 200.149 124.367C199.937 124.619 199.782 124.914 199.694 125.231C199.665 125.338 199.651 125.449 199.653 125.56Z" fill="#BA68C8"/>
<path opacity="0.1" d="M199.653 125.56V126.624C199.653 127.256 200.064 127.894 200.907 128.387C201.846 128.865 202.886 129.115 203.94 129.115C204.994 129.115 206.033 128.865 206.972 128.387C207.345 128.19 207.669 127.91 207.918 127.57C208.118 127.302 208.229 126.979 208.237 126.645V125.565C208.239 125.468 208.229 125.371 208.206 125.277C208.12 124.96 207.967 124.665 207.758 124.411C207.549 124.158 207.288 123.952 206.993 123.807L206.931 123.771C205.998 123.307 204.969 123.066 203.927 123.066C202.884 123.066 201.856 123.307 200.923 123.771C200.625 123.912 200.361 124.115 200.149 124.367C199.937 124.619 199.782 124.914 199.694 125.231C199.665 125.338 199.651 125.449 199.653 125.56Z" fill="black"/>
<path opacity="0.2" d="M206.972 127.333C208.648 126.372 208.658 124.804 206.972 123.828C206.033 123.349 204.994 123.1 203.94 123.1C202.886 123.1 201.846 123.349 200.907 123.828C199.226 124.789 199.221 126.357 200.907 127.328C201.846 127.807 202.885 128.057 203.939 128.058C204.993 128.059 206.033 127.811 206.972 127.333Z" fill="black"/>
<path d="M199.658 124.321V124.964C199.658 125.064 199.67 125.164 199.694 125.262C199.78 125.579 199.934 125.874 200.144 126.127C200.354 126.38 200.616 126.584 200.912 126.727C201.736 127.176 202.653 127.424 203.59 127.451C204.764 127.535 205.939 127.291 206.983 126.747C207.351 126.547 207.672 126.27 207.923 125.935C208.063 125.746 208.16 125.528 208.206 125.298C208.231 125.202 208.243 125.104 208.242 125.005V124.347C208.242 123.709 207.831 123.077 206.998 122.589L206.767 122.466C205.848 122.044 204.847 121.834 203.836 121.851C202.826 121.868 201.832 122.111 200.928 122.563C200.08 123.052 199.658 123.684 199.658 124.321Z" fill="#BA68C8"/>
<path opacity="0.1" d="M199.658 124.321V124.964C199.658 125.064 199.67 125.164 199.694 125.262C199.78 125.579 199.934 125.874 200.144 126.127C200.354 126.38 200.616 126.584 200.912 126.727C201.736 127.176 202.653 127.424 203.59 127.451C204.764 127.535 205.939 127.291 206.983 126.747C207.351 126.547 207.672 126.27 207.923 125.935C208.063 125.746 208.16 125.528 208.206 125.298C208.231 125.202 208.243 125.104 208.242 125.005V124.347C208.242 123.709 207.831 123.077 206.998 122.589L206.767 122.466C205.848 122.044 204.847 121.834 203.836 121.851C202.826 121.868 201.832 122.111 200.928 122.563C200.08 123.052 199.658 123.684 199.658 124.321Z" fill="black"/>
<path d="M199.658 124.301C199.658 125.663 201.57 126.773 203.94 126.783C206.309 126.794 208.232 125.699 208.237 124.337C208.242 122.975 206.325 121.859 203.955 121.849C201.586 121.839 199.663 122.939 199.658 124.301Z" fill="#BA68C8"/>
<path d="M202.47 121.772V123.992C202.465 124.026 202.465 124.061 202.47 124.095C202.499 124.206 202.552 124.309 202.624 124.398C202.697 124.487 202.788 124.559 202.891 124.609C203.176 124.767 203.496 124.853 203.822 124.861C204.227 124.888 204.633 124.803 204.993 124.614C205.121 124.545 205.233 124.451 205.322 124.337C205.37 124.27 205.403 124.195 205.42 124.116C205.423 124.081 205.423 124.047 205.42 124.013V121.782C205.408 121.652 205.362 121.527 205.286 121.421C205.21 121.314 205.107 121.23 204.988 121.176L204.906 121.134C204.589 120.987 204.242 120.913 203.893 120.918C203.543 120.924 203.199 121.008 202.886 121.165C202.77 121.222 202.671 121.308 202.598 121.414C202.526 121.52 202.481 121.643 202.47 121.772Z" fill="#BA68C8"/>
<path opacity="0.1" d="M202.47 121.772V123.992C202.465 124.026 202.465 124.061 202.47 124.095C202.499 124.206 202.552 124.309 202.624 124.398C202.697 124.487 202.788 124.559 202.891 124.609C203.176 124.767 203.496 124.853 203.822 124.861C204.227 124.888 204.633 124.803 204.993 124.614C205.121 124.545 205.233 124.451 205.322 124.337C205.37 124.27 205.403 124.195 205.42 124.116C205.423 124.081 205.423 124.047 205.42 124.013V121.782C205.408 121.652 205.362 121.527 205.286 121.421C205.21 121.314 205.107 121.23 204.988 121.176L204.906 121.134C204.589 120.987 204.242 120.913 203.893 120.918C203.543 120.924 203.199 121.008 202.886 121.165C202.77 121.222 202.671 121.308 202.598 121.414C202.526 121.52 202.481 121.643 202.47 121.772Z" fill="black"/>
<path d="M202.47 121.761C202.47 122.234 203.133 122.62 203.955 122.625C204.778 122.63 205.441 122.245 205.446 121.777C205.451 121.309 204.783 120.919 203.96 120.913C203.138 120.908 202.475 121.304 202.47 121.761Z" fill="#BA68C8"/>
<path opacity="0.5" d="M203.431 121.767C203.431 121.936 203.667 122.07 203.945 122.07C204.222 122.07 204.459 121.936 204.459 121.772C204.459 121.607 204.222 121.468 203.945 121.463C203.667 121.458 203.431 121.597 203.431 121.767Z" fill="#BA68C8"/>
<path opacity="0.3" d="M203.431 121.767C203.431 121.936 203.667 122.07 203.945 122.07C204.222 122.07 204.459 121.936 204.459 121.772C204.459 121.607 204.222 121.468 203.945 121.463C203.667 121.458 203.431 121.597 203.431 121.767Z" fill="black"/>
<path d="M174.647 35.2606L137.361 56.7921C137.194 56.9014 137.055 57.0487 136.955 57.2219C136.855 57.3952 136.797 57.5895 136.786 57.7892V73.2915C136.796 73.4911 136.855 73.6854 136.956 73.8579C137.057 74.0305 137.198 74.1764 137.367 74.2835L139.423 75.44C139.602 75.5287 139.799 75.5749 139.998 75.5749C140.198 75.5749 140.395 75.5287 140.574 75.44L177.844 53.8982C178.012 53.7903 178.151 53.644 178.251 53.4716C178.352 53.2991 178.409 53.1053 178.42 52.9062V37.3988C178.409 37.1997 178.352 37.0059 178.251 36.8335C178.151 36.661 178.012 36.5148 177.844 36.4068L175.788 35.2555C175.61 35.1688 175.415 35.1241 175.217 35.125C175.019 35.1259 174.824 35.1723 174.647 35.2606Z" fill="#BA68C8"/>
<path d="M140.003 75.1007V59.6241C140.009 59.419 140.065 59.2183 140.165 59.0393C140.265 58.8603 140.407 58.7082 140.579 58.5961L177.844 37.0698C178.163 36.8848 178.42 37.0338 178.42 37.3988V52.9062C178.409 53.1053 178.352 53.299 178.251 53.4715C178.151 53.644 178.012 53.7902 177.844 53.8982L140.559 75.4348C140.26 75.6147 140.003 75.4708 140.003 75.1007Z" fill="#BA68C8"/>
<path opacity="0.2" d="M140.579 75.4347C140.4 75.5223 140.203 75.5679 140.003 75.5679C139.804 75.5679 139.607 75.5223 139.428 75.4347L137.372 74.2782C137.204 74.1716 137.063 74.0265 136.962 73.8549C136.861 73.6833 136.802 73.4901 136.791 73.2913V57.7891C136.799 57.5808 136.863 57.3785 136.976 57.2031L140.178 59.033C140.074 59.2037 140.015 59.3984 140.009 59.5984V75.1006C140.003 75.4347 140.24 75.63 140.579 75.4347Z" fill="black"/>
<path opacity="0.4" d="M178.435 37.2959C178.389 37.0029 178.152 36.9001 177.865 37.0646L140.579 58.5961C140.408 58.7015 140.268 58.8505 140.173 59.0278L136.966 57.198C137.062 57.0304 137.198 56.8892 137.361 56.7868L174.652 35.2605C174.83 35.1693 175.028 35.1218 175.228 35.1218C175.428 35.1218 175.625 35.1693 175.803 35.2605L177.859 36.4118C178.013 36.5098 178.143 36.6394 178.243 36.7918C178.342 36.9442 178.407 37.1161 178.435 37.2959Z" fill="white"/>
<path d="M135.213 69.9041C134.848 69.6882 132.129 68.1668 132.057 68.1154C131.986 68.077 131.925 68.0224 131.878 67.9559C131.832 67.8895 131.803 67.8131 131.792 67.7329C131.781 67.6528 131.789 67.5712 131.815 67.4947C131.842 67.4183 131.886 67.3492 131.944 67.293L136.837 63.2427L140.003 65.0417L135.115 69.0971C135.064 69.1544 135.025 69.222 135.002 69.2954C134.979 69.3688 134.972 69.4464 134.981 69.5228C134.99 69.5992 135.016 69.6728 135.056 69.7386C135.096 69.8043 135.149 69.8608 135.213 69.9041Z" fill="#BA68C8"/>
<path opacity="0.1" d="M135.213 69.9041C134.848 69.6882 132.129 68.1668 132.057 68.1154C131.986 68.077 131.925 68.0224 131.878 67.9559C131.832 67.8895 131.803 67.8131 131.792 67.7329C131.781 67.6528 131.789 67.5712 131.815 67.4947C131.842 67.4183 131.886 67.3492 131.944 67.293L136.837 63.2427L140.003 65.0417L135.115 69.0971C135.064 69.1544 135.025 69.222 135.002 69.2954C134.979 69.3688 134.972 69.4464 134.981 69.5228C134.99 69.5992 135.016 69.6728 135.056 69.7386C135.096 69.8043 135.149 69.8608 135.213 69.9041Z" fill="black"/>
<path d="M140.003 65.021L135.11 69.0713C135.039 69.141 134.99 69.2296 134.969 69.3266C134.948 69.4235 134.955 69.5245 134.99 69.6174C135.024 69.7104 135.085 69.7912 135.165 69.8503C135.245 69.9094 135.34 69.9441 135.439 69.9503L140.003 69.4363V65.021Z" fill="#BA68C8"/>
<path d="M142.933 63.582C142.901 63.513 142.889 63.4365 142.897 63.3609C142.907 63.2713 142.933 63.1842 142.974 63.1039L144.408 60.3181L144.537 60.0765C144.579 59.9967 144.641 59.9294 144.717 59.8812L145.529 59.4134C145.537 59.4045 145.547 59.3974 145.558 59.3926C145.569 59.3878 145.581 59.3853 145.593 59.3853C145.605 59.3853 145.617 59.3878 145.628 59.3926C145.639 59.3974 145.649 59.4045 145.657 59.4134C145.697 59.4706 145.715 59.5396 145.709 59.6087V67.2725C145.709 67.3607 145.692 67.4482 145.657 67.5295C145.635 67.5974 145.589 67.6554 145.529 67.694L144.655 68.208C144.638 68.2246 144.615 68.2339 144.591 68.2339C144.567 68.2339 144.544 68.2246 144.527 68.208C144.487 68.1508 144.469 68.0817 144.475 68.0126V62.8212L143.678 64.3632C143.667 64.3945 143.649 64.4229 143.626 64.4469C143.603 64.4708 143.576 64.4896 143.545 64.502C143.499 64.502 143.457 64.502 143.427 64.4506L142.933 63.582Z" fill="#FAFAFA"/>
<path d="M148.058 65.9359C148.058 66.0242 148.041 66.1116 148.006 66.1929C147.984 66.2608 147.938 66.3189 147.878 66.3574L147.004 66.8714C146.994 66.8782 146.983 66.8829 146.971 66.8853C146.959 66.8876 146.946 66.8876 146.934 66.8852C146.923 66.8828 146.911 66.8781 146.901 66.8713C146.891 66.8646 146.882 66.8558 146.876 66.8457C146.837 66.7903 146.818 66.723 146.824 66.6555V65.1135C146.824 65.0253 146.841 64.9378 146.876 64.8565C146.898 64.7886 146.944 64.7306 147.004 64.692L147.878 64.178C147.895 64.1614 147.918 64.1521 147.942 64.1521C147.966 64.1521 147.989 64.1614 148.006 64.178C148.046 64.2352 148.064 64.3043 148.058 64.3734V65.9359Z" fill="#FAFAFA"/>
<path d="M150.309 64.6356C150.308 64.7243 150.289 64.8118 150.253 64.8926C150.228 64.9596 150.185 65.0184 150.129 65.0622L149.25 65.5762C149.234 65.5925 149.212 65.6017 149.189 65.6017C149.165 65.6017 149.143 65.5925 149.127 65.5762C149.085 65.52 149.065 65.4507 149.07 65.3809V63.8389C149.071 63.7503 149.091 63.6628 149.127 63.5819C149.148 63.5134 149.192 63.4539 149.25 63.4123L150.129 62.8983C150.146 62.882 150.168 62.8728 150.191 62.8728C150.214 62.8728 150.236 62.882 150.253 62.8983C150.294 62.9546 150.314 63.0238 150.309 63.0936V64.6356Z" fill="#FAFAFA"/>
<path d="M152.555 63.3403C152.556 63.4286 152.538 63.516 152.504 63.5973C152.481 63.6652 152.436 63.7232 152.375 63.7618L151.501 64.2758C151.484 64.2924 151.461 64.3017 151.437 64.3017C151.413 64.3017 151.39 64.2924 151.373 64.2758C151.334 64.2186 151.315 64.1496 151.322 64.0805V62.5385C151.321 62.4502 151.338 62.3626 151.373 62.2815C151.397 62.2131 151.442 62.1539 151.501 62.1118L152.375 61.5978C152.393 61.5823 152.416 61.5737 152.44 61.5737C152.463 61.5737 152.486 61.5823 152.504 61.5978C152.543 61.6552 152.561 61.7241 152.555 61.7932V63.3403Z" fill="#FAFAFA"/>
<path d="M157.284 55.3014C157.283 55.5299 157.269 55.7581 157.243 55.985C157.215 56.2226 157.17 56.4579 157.109 56.6892C157.039 56.9427 156.953 57.1916 156.852 57.4345C156.749 57.6915 156.621 57.9485 156.472 58.2518L155.536 60.0456L157.212 59.0793C157.228 59.063 157.251 59.0538 157.274 59.0538C157.297 59.0538 157.319 59.063 157.335 59.0793C157.376 59.136 157.396 59.205 157.392 59.2746V60.5339C157.39 60.6225 157.371 60.7099 157.335 60.7909C157.313 60.8574 157.269 60.9149 157.212 60.9554L153.686 63.0114C153.669 63.0281 153.646 63.0374 153.622 63.0374C153.598 63.0374 153.575 63.0281 153.558 63.0114C153.52 62.9533 153.502 62.885 153.506 62.8161V61.7881C153.507 61.6532 153.523 61.5188 153.552 61.3872C153.578 61.2442 153.628 61.1067 153.701 60.9811L155.696 57.2855C155.824 57.0558 155.923 56.8105 155.989 56.5556C156.027 56.3868 156.047 56.2146 156.05 56.0416C156.054 55.968 156.054 55.8942 156.05 55.8206C156.036 55.7335 156.01 55.6487 155.973 55.5687C155.939 55.4974 155.878 55.4422 155.804 55.4145C155.753 55.4016 155.699 55.4005 155.648 55.4112C155.596 55.4219 155.547 55.4441 155.506 55.4762C155.382 55.5457 155.278 55.6445 155.202 55.764C155.129 55.8769 155.069 55.9976 155.022 56.1238C154.979 56.2354 154.947 56.3507 154.925 56.4682C154.925 56.5813 154.894 56.6584 154.884 56.7149C154.871 56.8142 154.836 56.9092 154.781 56.9925C154.736 57.0525 154.68 57.1032 154.616 57.1415L153.794 57.6144C153.78 57.6271 153.762 57.6341 153.743 57.6341C153.724 57.6341 153.705 57.6271 153.691 57.6144C153.661 57.567 153.647 57.5112 153.65 57.4551C153.656 57.0975 153.696 56.7413 153.768 56.3911C153.845 56.0171 153.961 55.6519 154.113 55.3014C154.262 54.9492 154.455 54.6175 154.688 54.3145C154.907 54.0252 155.182 53.7823 155.495 53.6001C155.726 53.4462 155.999 53.3689 156.277 53.3791C156.494 53.4019 156.694 53.5067 156.837 53.672C157.005 53.871 157.123 54.1071 157.181 54.3608C157.254 54.669 157.288 54.9849 157.284 55.3014Z" fill="#FAFAFA"/>
<path d="M159.582 59.2796C159.583 59.3679 159.565 59.4554 159.53 59.5366C159.507 59.6058 159.462 59.6655 159.402 59.7062L158.528 60.2202C158.511 60.2369 158.488 60.2462 158.464 60.2462C158.44 60.2462 158.417 60.2369 158.399 60.2202C158.36 60.1631 158.342 60.094 158.348 60.0249V58.4829C158.347 58.3946 158.365 58.3071 158.399 58.2259C158.426 58.1584 158.47 58.0997 158.528 58.0563L159.402 57.5423C159.419 57.5257 159.442 57.5164 159.466 57.5164C159.49 57.5164 159.513 57.5257 159.53 57.5423C159.57 57.5994 159.588 57.6685 159.582 57.7376V59.2796Z" fill="#FAFAFA"/>
<path d="M161.833 57.9843C161.831 58.0729 161.812 58.1603 161.776 58.2413C161.754 58.3077 161.71 58.3653 161.653 58.4058L160.779 58.9198C160.769 58.9266 160.758 58.9313 160.746 58.9336C160.734 58.936 160.722 58.936 160.71 58.9336C160.698 58.9312 160.686 58.9265 160.676 58.9197C160.666 58.9129 160.657 58.9042 160.651 58.8941C160.611 58.837 160.593 58.7679 160.599 58.6988V57.1568C160.599 57.0685 160.616 56.9811 160.651 56.8998C160.675 56.8314 160.72 56.7722 160.779 56.7302L161.653 56.2162C161.669 56.1998 161.692 56.1907 161.715 56.1907C161.738 56.1907 161.76 56.1998 161.776 56.2162C161.817 56.2728 161.837 56.3418 161.833 56.4115V57.9843Z" fill="#FAFAFA"/>
<path d="M164.079 56.6839C164.08 56.7722 164.062 56.8597 164.028 56.9409C164.003 57.0093 163.958 57.0685 163.899 57.1105L163.025 57.6245C163.009 57.6408 162.987 57.65 162.964 57.65C162.941 57.65 162.918 57.6408 162.902 57.6245C162.861 57.5679 162.841 57.4989 162.846 57.4292V55.8872C162.847 55.8002 162.866 55.7144 162.902 55.6353C162.922 55.5659 162.965 55.5058 163.025 55.4657L163.899 54.9517C163.916 54.9351 163.939 54.9258 163.963 54.9258C163.987 54.9258 164.01 54.9351 164.028 54.9517C164.067 55.0089 164.085 55.0779 164.079 55.147V56.6839Z" fill="#FAFAFA"/>
<path d="M168.561 46.1161C168.578 46.0997 168.6 46.0906 168.623 46.0906C168.646 46.0906 168.668 46.0997 168.685 46.1161C168.724 46.1732 168.742 46.2423 168.736 46.3114V47.5707C168.735 47.66 168.72 47.7486 168.69 47.8328C168.659 47.9202 168.633 47.9973 168.607 48.059L167.795 49.9762C167.951 49.9489 168.112 49.963 168.261 50.0171C168.409 50.0712 168.541 50.1635 168.643 50.2846C168.901 50.6666 169.017 51.1265 168.972 51.585C168.994 52.3882 168.817 53.1843 168.458 53.9032C168.132 54.5461 167.627 55.0814 167.004 55.4452C166.747 55.6095 166.454 55.7084 166.151 55.733C165.93 55.7502 165.71 55.6902 165.529 55.5634C165.353 55.4316 165.218 55.2536 165.138 55.0494C165.043 54.8016 164.994 54.5386 164.994 54.2732C164.995 54.2011 165.009 54.1296 165.035 54.0625C165.057 54.0084 165.093 53.9607 165.138 53.9237L165.981 53.4406C166.073 53.384 166.145 53.384 166.197 53.4406L166.356 53.5896C166.424 53.6453 166.506 53.6824 166.593 53.6976C166.74 53.704 166.885 53.6605 167.004 53.5742C167.213 53.4451 167.389 53.2691 167.518 53.0602C167.66 52.8457 167.734 52.5929 167.729 52.3355C167.729 52.0579 167.657 51.8986 167.518 51.8523C167.429 51.8351 167.337 51.8362 167.249 51.8557C167.161 51.8751 167.077 51.9124 167.004 51.9654L166.449 52.2892C166.431 52.3058 166.408 52.3151 166.384 52.3151C166.36 52.3151 166.337 52.3058 166.32 52.2892C166.281 52.2321 166.263 52.163 166.269 52.0939V51.0659C166.269 50.9765 166.285 50.8878 166.315 50.8037C166.346 50.7112 166.377 50.629 166.408 50.557L167.112 48.83L165.369 49.858C165.352 49.8746 165.329 49.8839 165.305 49.8839C165.281 49.8839 165.258 49.8746 165.241 49.858C165.201 49.8008 165.183 49.7318 165.189 49.6627V48.3828C165.188 48.2945 165.206 48.207 165.241 48.1258C165.264 48.0566 165.309 47.9969 165.369 47.9562L168.561 46.1161Z" fill="#FAFAFA"/>
<path d="M171.162 52.5875C171.163 52.6758 171.145 52.7633 171.111 52.8445C171.086 52.9128 171.041 52.9721 170.982 53.0141L170.108 53.5281C170.092 53.5444 170.07 53.5536 170.047 53.5536C170.024 53.5536 170.001 53.5444 169.985 53.5281C169.943 53.4718 169.923 53.4026 169.929 53.3328V51.7908C169.929 51.7021 169.949 51.6146 169.985 51.5338C170.007 51.4653 170.05 51.4057 170.108 51.3642L170.982 50.8502C170.999 50.8335 171.022 50.8242 171.046 50.8242C171.07 50.8242 171.093 50.8335 171.111 50.8502C171.15 50.9073 171.168 50.9764 171.162 51.0455V52.5875Z" fill="#FAFAFA"/>
<path d="M173.424 51.2922C173.421 51.3802 173.404 51.4672 173.372 51.5492C173.348 51.6162 173.303 51.6737 173.244 51.7137L172.37 52.2277C172.362 52.2366 172.352 52.2436 172.341 52.2485C172.33 52.2533 172.318 52.2558 172.306 52.2558C172.294 52.2558 172.282 52.2533 172.271 52.2485C172.26 52.2436 172.25 52.2366 172.241 52.2277C172.202 52.1705 172.184 52.1015 172.19 52.0324V50.4904C172.189 50.4021 172.207 50.3145 172.241 50.2334C172.266 50.165 172.311 50.1058 172.37 50.0637L173.244 49.5497C173.261 49.5342 173.284 49.5256 173.308 49.5256C173.332 49.5256 173.354 49.5342 173.372 49.5497C173.409 49.6081 173.427 49.6763 173.424 49.7451V51.2922Z" fill="#FAFAFA"/>
<path d="M175.67 49.9918C175.671 50.0801 175.653 50.1676 175.618 50.2488C175.594 50.3158 175.551 50.3746 175.495 50.4184L174.616 50.9324C174.6 50.9487 174.578 50.9579 174.554 50.9579C174.531 50.9579 174.509 50.9487 174.493 50.9324C174.452 50.8758 174.432 50.8068 174.436 50.7371V49.1951C174.438 49.1065 174.457 49.0191 174.493 48.9381C174.516 48.8717 174.559 48.8141 174.616 48.7736L175.495 48.2596C175.511 48.2433 175.534 48.2341 175.557 48.2341C175.58 48.2341 175.602 48.2433 175.618 48.2596C175.658 48.3168 175.676 48.3858 175.67 48.4549V49.9918Z" fill="#FAFAFA"/>
<g opacity="0.3">
<path d="M77.0024 142.743C76.9787 142.748 76.9541 142.748 76.9304 142.743L73.9852 141.91C73.9323 141.896 73.8828 141.871 73.8398 141.838C73.7969 141.804 73.7613 141.761 73.7353 141.713C73.7093 141.665 73.6934 141.612 73.6887 141.558C73.6839 141.503 73.6903 141.448 73.7076 141.396C73.7224 141.344 73.7475 141.295 73.7814 141.252C73.8154 141.209 73.8575 141.173 73.9053 141.147C73.9532 141.121 74.0058 141.104 74.0601 141.098C74.1144 141.093 74.1693 141.098 74.2216 141.114L77.1668 141.946C77.267 141.972 77.3537 142.034 77.4094 142.121C77.465 142.208 77.4854 142.313 77.4664 142.415C77.4474 142.516 77.3905 142.607 77.3071 142.668C77.2238 142.729 77.1203 142.755 77.0178 142.743H77.0024Z" fill="black"/>
<path d="M73.9852 145.025C73.8919 145.012 73.8058 144.968 73.7412 144.9C73.6765 144.831 73.6373 144.743 73.6301 144.649C73.6229 144.555 73.6481 144.462 73.7015 144.384C73.7549 144.307 73.8333 144.25 73.9235 144.223L76.8842 143.478C76.9371 143.461 76.9931 143.455 77.0484 143.461C77.1038 143.466 77.1573 143.484 77.2057 143.511C77.254 143.539 77.2961 143.576 77.3293 143.621C77.3624 143.665 77.3859 143.717 77.3982 143.771C77.4144 143.824 77.4197 143.88 77.4136 143.935C77.4075 143.99 77.3902 144.043 77.3628 144.091C77.3353 144.139 77.2983 144.181 77.254 144.215C77.2097 144.248 77.1591 144.272 77.1052 144.285L74.1394 145.035C74.0878 145.039 74.0359 145.035 73.9852 145.025Z" fill="black"/>
<path d="M75.4757 147.759C75.3786 147.749 75.288 147.705 75.2187 147.636C75.1434 147.559 75.1012 147.456 75.1012 147.348C75.1012 147.241 75.1434 147.137 75.2187 147.06L77.4135 144.932C77.4508 144.895 77.4952 144.865 77.5442 144.844C77.5932 144.824 77.6457 144.813 77.6988 144.813C77.7519 144.813 77.8044 144.824 77.8534 144.844C77.9024 144.865 77.9468 144.895 77.9841 144.932C78.022 144.97 78.0521 145.015 78.0726 145.064C78.0931 145.114 78.1037 145.167 78.1037 145.22C78.1037 145.274 78.0931 145.327 78.0726 145.376C78.0521 145.426 78.022 145.47 77.9841 145.508L75.7893 147.641C75.7481 147.682 75.6989 147.713 75.6449 147.733C75.591 147.754 75.5333 147.763 75.4757 147.759Z" fill="black"/>
<path d="M78.1281 149.379H78.0561C78.0036 149.364 77.9545 149.339 77.9117 149.305C77.8689 149.271 77.8333 149.229 77.807 149.181C77.7807 149.133 77.7642 149.081 77.7584 149.026C77.7526 148.972 77.7577 148.917 77.7734 148.865L78.6061 145.925C78.6197 145.872 78.6436 145.823 78.6765 145.78C78.7093 145.737 78.7503 145.701 78.7972 145.675C78.8441 145.648 78.8959 145.63 78.9496 145.624C79.0032 145.617 79.0576 145.621 79.1096 145.636C79.1616 145.651 79.2101 145.676 79.2524 145.71C79.2946 145.743 79.3297 145.785 79.3556 145.833C79.3814 145.88 79.3976 145.932 79.4031 145.986C79.4085 146.04 79.4032 146.094 79.3874 146.146L78.5547 149.086C78.5297 149.177 78.4731 149.257 78.395 149.31C78.3169 149.364 78.2224 149.388 78.1281 149.379Z" fill="black"/>
</g>
<path d="M158.43 103.735L151.085 107.976L134.951 110.309C134.951 110.309 123.159 92.6175 121.355 89.8368C119.551 87.056 117.444 85.2725 112.551 85.2776L113.476 99.392C113.63 99.8444 123.381 111.862 129.811 118.41C132.083 120.718 133.481 121.304 137.032 120.322C146.094 117.809 157.078 110.361 157.962 108.5C159.124 106.069 158.343 103.782 158.43 103.735Z" fill="#FFA8A7"/>
<path d="M155.403 94.7866C156.369 91.6409 160.301 89.035 163.981 90.063C164.563 90.2284 165.12 90.4667 165.642 90.7723C169.209 92.8283 172.103 97.8398 172.103 101.962C172.113 102.658 172.014 103.352 171.81 104.018C170.843 107.169 166.911 109.759 163.231 108.726C162.65 108.564 162.094 108.325 161.576 108.017C158.009 105.961 155.115 100.949 155.115 96.8272C155.106 96.1363 155.203 95.4482 155.403 94.7866Z" fill="#455A64"/>
<path d="M161.581 108.007C158.014 105.951 155.12 100.939 155.12 96.8169C155.12 92.6947 158.014 91.0242 161.581 93.0853C165.148 95.1465 168.042 100.153 168.042 104.275C168.042 108.397 165.148 110.068 161.581 108.007Z" fill="#37474F"/>
<path d="M161.581 97.6599C160.209 96.8684 159.098 97.5109 159.098 99.094C159.145 99.9565 159.394 100.796 159.825 101.544C160.257 102.292 160.858 102.929 161.581 103.401C162.953 104.193 164.069 103.55 164.069 101.967C164.022 101.104 163.772 100.264 163.34 99.516C162.908 98.7675 162.305 98.1316 161.581 97.6599Z" fill="#455A64"/>
<path d="M160.733 100.035C160.748 100.33 160.833 100.617 160.981 100.874C161.128 101.13 161.334 101.348 161.581 101.51C161.663 101.567 161.758 101.604 161.857 101.618C161.956 101.631 162.057 101.62 162.152 101.587L162.213 101.551C162.287 101.488 162.345 101.409 162.384 101.32C162.422 101.231 162.439 101.134 162.434 101.037C162.417 100.741 162.331 100.454 162.183 100.198C162.035 99.9419 161.828 99.724 161.581 99.5617C161.5 99.503 161.405 99.4652 161.305 99.4518C161.206 99.4384 161.105 99.4496 161.01 99.4846L160.949 99.5206C160.876 99.5838 160.818 99.6631 160.781 99.7522C160.743 99.8414 160.727 99.938 160.733 100.035Z" fill="#37474F"/>
<path d="M147.081 107.94C147.097 108.235 147.183 108.522 147.33 108.778C147.477 109.034 147.682 109.252 147.929 109.415C148.041 109.484 148.168 109.523 148.299 109.528C148.399 109.527 148.497 109.498 148.582 109.446L162.152 101.612L162.213 101.576C162.287 101.514 162.345 101.434 162.384 101.345C162.422 101.256 162.439 101.159 162.434 101.062C162.417 100.767 162.331 100.48 162.183 100.224C162.034 99.9675 161.828 99.7496 161.581 99.5873C161.5 99.5286 161.405 99.4909 161.305 99.4774C161.206 99.464 161.105 99.4752 161.01 99.5102L160.949 99.5462L147.384 107.38C147.286 107.434 147.204 107.516 147.151 107.615C147.097 107.715 147.073 107.827 147.081 107.94Z" fill="#FAFAFA"/>
<path d="M133.763 107.277C134.724 104.131 138.662 101.525 142.342 102.553C142.922 102.716 143.478 102.953 143.997 103.257C147.564 105.313 150.458 110.325 150.458 114.447C150.467 115.143 150.37 115.836 150.17 116.503C149.209 119.654 145.272 122.245 141.592 121.211C141.014 121.048 140.459 120.811 139.942 120.507C136.369 118.451 133.481 113.435 133.481 109.312C133.471 108.623 133.567 107.937 133.763 107.277Z" fill="#455A64"/>
<path d="M139.942 120.502C136.369 118.446 133.481 113.429 133.481 109.307C133.481 105.185 136.369 103.519 139.942 105.575C143.514 107.631 146.403 112.643 146.403 116.765C146.403 120.888 143.509 122.558 139.942 120.502Z" fill="#37474F"/>
<path d="M139.942 110.145C138.569 109.353 137.454 109.996 137.454 111.584C137.501 112.446 137.751 113.285 138.184 114.033C138.616 114.78 139.218 115.415 139.942 115.886C141.314 116.678 142.424 116.035 142.424 114.452C142.378 113.59 142.129 112.75 141.697 112.002C141.266 111.254 140.665 110.617 139.942 110.145Z" fill="#455A64"/>
<path d="M139.088 112.525C139.105 112.82 139.19 113.107 139.337 113.363C139.484 113.619 139.69 113.837 139.936 114C140.019 114.059 140.114 114.096 140.215 114.11C140.315 114.123 140.417 114.112 140.512 114.077L140.574 114.041C140.646 113.977 140.703 113.898 140.741 113.809C140.778 113.72 140.795 113.624 140.79 113.527C140.773 113.232 140.687 112.944 140.539 112.688C140.391 112.431 140.184 112.214 139.936 112.052C139.856 111.993 139.762 111.955 139.663 111.942C139.565 111.929 139.464 111.94 139.371 111.975L139.309 112.011C139.235 112.073 139.176 112.152 139.137 112.241C139.099 112.331 139.082 112.428 139.088 112.525Z" fill="#37474F"/>
<path d="M137.032 113.712C137.048 114.007 137.133 114.295 137.281 114.551C137.428 114.807 137.633 115.025 137.88 115.187C137.991 115.259 138.119 115.298 138.25 115.3C138.35 115.298 138.448 115.27 138.533 115.218L140.512 114.077L140.574 114.041C140.646 113.977 140.703 113.898 140.741 113.809C140.778 113.72 140.795 113.624 140.79 113.527C140.773 113.232 140.687 112.944 140.539 112.688C140.391 112.431 140.184 112.214 139.936 112.052C139.856 111.993 139.762 111.955 139.663 111.942C139.565 111.929 139.464 111.94 139.371 111.975L139.309 112.011L137.33 113.152C137.233 113.208 137.153 113.29 137.101 113.389C137.048 113.488 137.024 113.6 137.032 113.712Z" fill="#FAFAFA"/>
<path d="M137.032 113.707C137.048 114.002 137.133 114.289 137.281 114.546C137.428 114.802 137.633 115.02 137.88 115.182C137.962 115.241 138.057 115.279 138.156 115.292C138.256 115.305 138.357 115.294 138.451 115.259L138.513 115.223C138.587 115.161 138.646 115.082 138.684 114.992C138.723 114.903 138.74 114.806 138.734 114.709C138.717 114.414 138.631 114.126 138.483 113.87C138.334 113.614 138.128 113.396 137.88 113.234C137.8 113.176 137.706 113.139 137.607 113.126C137.508 113.114 137.408 113.126 137.315 113.162L137.248 113.198C137.175 113.26 137.118 113.339 137.08 113.427C137.043 113.515 137.026 113.611 137.032 113.707Z" fill="#E0E0E0"/>
<path d="M153.727 112.119C156.842 109.734 159.833 109.754 159.294 103.931C158.836 101.361 158.204 101.181 155.696 100.204C154.591 99.7776 153.126 99.4538 152.247 100.461C152.148 100.586 152.04 100.703 151.923 100.811C151.665 100.978 151.367 101.074 151.059 101.088C150.473 101.12 149.916 101.356 149.487 101.757C149.194 102.085 149.081 102.548 148.793 102.882C148.518 103.144 148.222 103.383 147.909 103.597C147.682 103.792 147.499 104.034 147.371 104.304C147.244 104.575 147.175 104.87 147.168 105.169C147.191 105.512 147.288 105.845 147.452 106.146C147.616 106.447 147.844 106.708 148.119 106.912L149.661 106.007C150.309 105.56 151.635 107.138 151.065 107.976C150.18 109.302 153.727 112.119 153.727 112.119Z" fill="#FFA8A7"/>
<path d="M117.382 123.818C118.379 119.783 118.667 109.713 118.667 109.713L89.4823 110.592L91.0706 116.951C91.3341 118.387 91.4751 119.844 91.492 121.304C91.492 121.304 94.3242 126.552 102.718 127.472C107.88 127.962 113.054 126.672 117.382 123.818Z" fill="#FFA8A7"/>
<path d="M118.667 109.713C118.703 110.037 118.503 113.085 118.503 113.085C114.766 116.226 102.795 117.814 90.2327 113.635L87.5702 103.355C87.5702 103.355 96.6063 99.3869 90.5051 86.0743L97.0638 85.5603L108.716 85.2673H112.566C115.711 88.318 118.368 91.8336 120.446 95.6913C121.957 98.5491 123.905 102.718 118.667 109.713Z" fill="#455A64"/>
<path d="M102.168 109.806C96.9147 108.464 95.5937 105.18 95.2185 102.764C95.2185 102.764 94.2264 109.806 101.741 111.451C109.667 113.178 112.926 106.902 112.926 106.902C112.926 106.902 108.516 111.425 102.168 109.806Z" fill="#37474F"/>
<path d="M57.4087 188.17C55.8667 189.296 52.3149 189.568 49.1847 188.098C46.0544 186.628 44.7437 182.444 45.3297 179.211C46.039 175.269 47.987 173.11 48.4856 170.741C48.9842 168.371 48.4856 165.087 49.2309 162.969C49.5417 162.156 50.024 161.419 50.6448 160.809C51.2656 160.199 52.0105 159.729 52.8289 159.433C53.3512 159.231 53.9128 159.151 54.4706 159.2C55.0283 159.249 55.5675 159.426 56.0466 159.715L56.9769 160.26L57.4087 188.17Z" fill="#263238"/>
<path d="M61.0889 173.136L58.6525 180.44C58.6525 180.44 60.1945 185.657 59.3259 187.04C58.0409 189.096 55.7895 189.46 51.9911 188.299C47.6426 186.978 46.6198 183.046 46.8511 179.993C47.1543 175.639 51.179 172.365 50.7164 168.171C50.4953 166.115 50.7729 163.812 51.8986 162.049C53.1579 160.07 55.2241 159.7 57.3727 160.347C59.2076 160.903 60.8216 162.059 62.379 163.144C62.8273 163.427 63.2324 163.773 63.5818 164.172C63.8617 164.541 64.0709 164.959 64.1986 165.405C64.4804 166.304 64.5645 167.252 64.4453 168.186C64.3322 169.06 63.7771 169.569 63.258 170.242L61.0889 173.136Z" fill="#37474F"/>
<path d="M71.5899 169.677C71.4357 169.615 63.993 164.855 63.1911 164.501C62.3893 164.146 60.4207 163.632 58.5086 168.042C57.1465 171.188 59.1048 172.349 59.1048 172.349L67.8428 177.541L71.5899 169.677Z" fill="#FFA8A7"/>
<path d="M58.6525 180.44C57.0767 179.656 55.3337 179.268 53.5742 179.309C53.4431 179.322 53.3108 179.303 53.189 179.253C53.0671 179.202 52.9595 179.123 52.8757 179.021C52.7919 178.92 52.7343 178.799 52.7083 178.67C52.6822 178.541 52.6883 178.407 52.7261 178.281C52.7754 178.131 52.868 177.998 52.9924 177.9C53.1168 177.802 53.2674 177.743 53.4252 177.731C54.6022 177.644 57.4601 177.608 59.3567 179.17C59.8604 180.188 58.6525 180.44 58.6525 180.44Z" fill="#BA68C8"/>
<path d="M59.5418 177.104C58.0104 176.237 56.2896 175.758 54.5303 175.711C54.3976 175.716 54.2655 175.689 54.1459 175.632C54.0262 175.574 53.9227 175.488 53.8444 175.38C53.7661 175.273 53.7154 175.148 53.697 175.017C53.6786 174.885 53.6929 174.751 53.7387 174.626C53.7939 174.479 53.8918 174.351 54.02 174.259C54.1482 174.168 54.3008 174.117 54.4583 174.112C55.6405 174.081 58.4983 174.195 60.3128 175.855C60.7651 176.908 59.5418 177.104 59.5418 177.104Z" fill="#BA68C8"/>
<path opacity="0.3" d="M58.6525 180.44C57.0767 179.656 55.3337 179.268 53.5742 179.309C53.4431 179.322 53.3108 179.303 53.189 179.253C53.0671 179.202 52.9595 179.123 52.8757 179.021C52.7919 178.92 52.7343 178.799 52.7083 178.67C52.6822 178.541 52.6883 178.407 52.7261 178.281C52.7754 178.131 52.868 177.998 52.9924 177.9C53.1168 177.802 53.2674 177.743 53.4252 177.731C54.6022 177.644 57.4601 177.608 59.3567 179.17C59.8604 180.188 58.6525 180.44 58.6525 180.44Z" fill="black"/>
<path opacity="0.3" d="M59.5418 177.104C58.0104 176.237 56.2896 175.758 54.5303 175.711C54.3976 175.716 54.2655 175.689 54.1459 175.632C54.0262 175.574 53.9227 175.488 53.8444 175.38C53.7661 175.273 53.7154 175.148 53.697 175.017C53.6786 174.885 53.6929 174.751 53.7387 174.626C53.7939 174.479 53.8918 174.351 54.02 174.259C54.1482 174.168 54.3008 174.117 54.4583 174.112C55.6405 174.081 58.4983 174.195 60.3128 175.855C60.7651 176.908 59.5418 177.104 59.5418 177.104Z" fill="black"/>
<path d="M135.398 188.962L145.061 185.127C144.897 182.635 144.285 179.314 144.922 172.791L133.959 170.699V181.684L135.398 188.962Z" fill="#FFA8A7"/>
<path d="M162.979 197.448C163.238 198.228 163.191 199.077 162.845 199.823C162.517 200.516 158.893 202.557 154.005 202.228C150.388 201.972 146.906 200.752 143.92 198.697C142.054 197.463 140.116 197.232 137.695 197.093C135.275 196.954 132.098 195.747 131.563 194.616C131.029 193.485 131.646 191.532 131.646 191.532L162.979 197.448Z" fill="#263238"/>
<path d="M143.257 182.198L143.642 182.115C143.852 182.06 144.071 182.048 144.285 182.079C144.524 182.153 144.735 182.296 144.891 182.49C145.37 183.102 145.788 183.757 146.14 184.449C147.168 186.119 149.312 187.502 151.661 188.766C153.259 189.625 154.822 190.308 156.472 191.033C158.122 191.758 160.383 192.251 161.699 193.135C163.622 194.431 163.868 197.679 161.699 198.959C159.813 200.064 154.853 201.267 149.651 199.792C146.819 198.99 143.673 195.962 139.952 195.68C137.587 195.495 133.116 194.832 131.589 193.038C131.029 192.241 131.779 189.712 132.396 187.533C133.069 185.153 133.321 180.959 134.108 181.17C134.108 181.17 133.892 181.761 134.2 182.079C134.509 182.398 135.598 183.03 135.912 183.303C136.46 183.844 136.905 184.482 137.223 185.184C137.352 185.5 137.591 185.76 137.896 185.914C138.292 186.063 138.59 185.811 138.924 185.652C139.364 185.456 139.859 185.422 140.322 185.554C140.276 185.084 140.193 184.618 140.075 184.161C140.02 184.017 140.008 183.86 140.039 183.709C140.099 183.565 140.206 183.445 140.343 183.369C141.221 182.779 142.214 182.38 143.257 182.198Z" fill="#37474F"/>
<path d="M149.456 187.481C149.285 187.156 149.036 186.878 148.731 186.674C148.426 186.469 148.074 186.344 147.708 186.309C146.629 186.109 144.732 186.906 143.55 187.851C143.438 187.943 143.349 188.06 143.293 188.193C143.237 188.326 143.214 188.471 143.226 188.615C143.239 188.76 143.287 188.898 143.366 189.02C143.445 189.141 143.552 189.241 143.678 189.311C143.84 189.403 144.026 189.442 144.211 189.422C144.396 189.402 144.569 189.323 144.706 189.198C146.006 188.03 147.71 187.415 149.456 187.481Z" fill="#BA68C8"/>
<path d="M152.792 189.347C152.558 189.02 152.249 188.752 151.892 188.567C151.534 188.382 151.138 188.285 150.736 188.283C150.736 188.283 147.924 188.36 146.187 189.985C146.079 190.073 145.995 190.186 145.941 190.314C145.887 190.442 145.864 190.581 145.876 190.72C145.888 190.858 145.933 190.992 146.008 191.109C146.082 191.226 146.184 191.324 146.305 191.393C146.459 191.477 146.635 191.512 146.809 191.492C146.983 191.471 147.146 191.397 147.276 191.28C147.993 190.566 148.86 190.022 149.815 189.687C150.769 189.353 151.786 189.237 152.792 189.347Z" fill="#BA68C8"/>
<path d="M156.472 191.033C156.204 190.727 155.874 190.483 155.503 190.316C155.132 190.149 154.73 190.064 154.323 190.067C154.323 190.067 151.702 190.165 149.965 191.789C149.858 191.878 149.775 191.991 149.721 192.119C149.668 192.247 149.646 192.386 149.658 192.524C149.669 192.662 149.714 192.795 149.788 192.912C149.862 193.03 149.963 193.127 150.083 193.197C150.236 193.282 150.413 193.317 150.587 193.297C150.761 193.277 150.925 193.202 151.054 193.084C151.735 192.344 152.58 191.774 153.52 191.418C154.461 191.061 155.472 190.93 156.472 191.033Z" fill="#BA68C8"/>
<path opacity="0.3" d="M149.456 187.481C149.285 187.156 149.036 186.878 148.731 186.674C148.426 186.469 148.074 186.344 147.708 186.309C146.629 186.109 144.732 186.906 143.55 187.851C143.438 187.943 143.349 188.06 143.293 188.193C143.237 188.326 143.214 188.471 143.226 188.615C143.239 188.76 143.287 188.898 143.366 189.02C143.445 189.141 143.552 189.241 143.678 189.311C143.84 189.403 144.026 189.442 144.211 189.422C144.396 189.402 144.569 189.323 144.706 189.198C146.006 188.03 147.71 187.415 149.456 187.481Z" fill="black"/>
<path opacity="0.3" d="M152.792 189.347C152.558 189.02 152.249 188.752 151.892 188.567C151.534 188.382 151.138 188.285 150.736 188.283C150.736 188.283 147.924 188.36 146.187 189.985C146.079 190.073 145.995 190.186 145.941 190.314C145.887 190.442 145.864 190.581 145.876 190.72C145.888 190.858 145.933 190.992 146.008 191.109C146.082 191.226 146.184 191.324 146.305 191.393C146.459 191.477 146.635 191.512 146.809 191.492C146.983 191.471 147.146 191.397 147.276 191.28C147.993 190.566 148.86 190.022 149.815 189.687C150.769 189.353 151.786 189.237 152.792 189.347Z" fill="black"/>
<path opacity="0.3" d="M156.472 191.033C156.204 190.727 155.874 190.483 155.503 190.316C155.132 190.149 154.73 190.064 154.323 190.067C154.323 190.067 151.702 190.165 149.965 191.789C149.858 191.878 149.775 191.991 149.721 192.119C149.668 192.247 149.646 192.386 149.658 192.524C149.669 192.662 149.714 192.795 149.788 192.912C149.862 193.03 149.963 193.127 150.083 193.197C150.236 193.282 150.413 193.317 150.587 193.297C150.761 193.277 150.925 193.202 151.054 193.084C151.735 192.344 152.58 191.774 153.52 191.418C154.461 191.061 155.472 190.93 156.472 191.033Z" fill="black"/>
<path d="M142.003 133.825C134.668 132.175 117.099 128.5 117.099 128.5L117.382 123.812C111.024 127.107 97.66 126.177 91.492 121.304L90.5154 126.274C88.1776 129.074 86.154 132.121 84.481 135.362C83.0675 138.153 80.7134 142.506 83.0572 152.648C84.4348 158.6 86.2749 174.282 86.2749 174.282L68.2849 167.656C68.2849 167.656 66.7429 167.919 65.4373 171.285C64.6715 173.285 64.4093 175.202 65.1906 176.194C71.7698 181.385 82.4302 189.877 93.2036 194.636C100.4 197.391 104.224 191.342 104.578 189.101C105.925 180.517 107.488 152.936 107.488 152.936L131.512 152.144C130.72 156.698 133.959 174.493 133.959 174.493C133.959 174.493 139.875 177.063 144.778 174.431C144.778 174.431 148.058 153.953 148.376 147.122C148.721 139.52 149.111 135.418 142.003 133.825Z" fill="#BA68C8"/>
<path opacity="0.15" d="M131.512 152.144C131.512 150.916 132.329 146.619 135.11 144.336C135.11 144.336 131.296 145.02 129.554 152.206L131.512 152.144Z" fill="black"/>
<path opacity="0.15" d="M86.2749 174.272C86.2749 174.272 86.7889 181.046 88.0791 184.341C88.0791 184.341 84.8357 178.481 84.4811 173.609L86.2749 174.272Z" fill="black"/>
<path opacity="0.15" d="M117.094 128.5L117.382 123.817C111.024 127.107 97.66 126.177 91.492 121.304L90.5154 126.274C90.5616 126.326 94.5194 130.386 104.81 130.947C115.1 131.507 117.094 128.5 117.094 128.5Z" fill="black"/>
<path opacity="0.15" d="M107.503 152.925C107.417 150.381 106.814 147.88 105.731 145.576C104.649 143.272 103.11 141.211 101.207 139.52C101.207 139.52 106.737 142.09 108.588 150.227C108.588 150.227 112.7 148.309 114.848 142.563C114.848 142.563 114.19 148.309 110.88 151.573L120.862 152.499L107.503 152.925Z" fill="black"/>
<path d="M104.265 48.9688C100.005 48.9688 95.9193 50.661 92.907 53.6733C89.8947 56.6857 88.2024 60.7712 88.2024 65.0312C88.2024 69.2918 89.8945 73.3779 92.9067 76.391C95.9188 79.4041 100.004 81.0975 104.265 81.0989C108.526 81.0975 112.612 79.4043 115.625 76.3913C118.638 73.3783 120.331 69.2922 120.333 65.0312C120.331 60.7707 118.638 56.6852 115.625 53.673C112.611 50.6609 108.525 48.9687 104.265 48.9688Z" fill="#263238"/>
<path d="M87.5085 58.7553C88.0895 58.7287 88.6716 58.7614 89.2459 58.8529C89.4399 58.8639 89.623 58.9463 89.7599 59.0842C89.8375 59.2026 89.8835 59.3388 89.8935 59.48C90.0199 60.3726 89.9372 61.2823 89.6519 62.1374C89.4206 62.7285 88.7164 63.0369 88.2693 63.4687C86.5319 65.1494 86.3932 67.9456 87.0768 70.2637C87.7604 72.5819 89.1328 74.6482 90.022 76.8841C90.9112 79.12 91.3841 81.8287 90.1248 84.0801C89.6108 84.9487 88.7473 85.6221 88.8552 86.6501C88.9786 87.9094 90.0785 89.1173 90.5514 90.2481C91.0676 91.5963 91.2441 93.0509 91.0654 94.4834C90.9218 96.2592 90.2525 97.9519 89.1431 99.3459C88.2971 100.33 87.2057 101.073 85.9798 101.499C84.7539 101.925 83.437 102.019 82.163 101.772C81.6258 101.678 81.1175 101.462 80.6775 101.14C79.9219 100.533 79.6238 99.5412 79.2126 98.6622C77.8865 95.8198 75.1006 93.7535 74.2473 90.7364C73.353 87.5444 74.8847 84.1829 76.766 81.4535C77.6449 80.1788 78.6266 78.9246 79.0584 77.4392C79.6392 75.4294 79.1303 73.2861 78.9967 71.1992C78.8614 69.1553 79.0894 67.1035 79.67 65.1392C80.0967 63.7205 80.7443 62.086 81.8545 61.0683C83.4112 59.6606 85.4116 58.8423 87.5085 58.7553Z" fill="#263238"/>
<path d="M114.334 56.3188C116.097 57.3725 118.256 61.8186 118.004 71.122C117.788 79.0068 115.223 80.9446 113.938 81.4997C112.653 82.0548 110.181 81.7053 107.77 81.2941V86.028C107.77 86.028 111.081 89.9036 110.854 92.0727C110.628 94.2418 106.043 94.7403 102.939 92.5867C99.8343 90.433 97.2232 86.3519 97.2232 86.3519L97.3208 75.4654C97.3208 75.4654 95.897 76.8377 93.5069 74.7252C91.528 72.9827 90.8753 70.0581 92.4275 68.4955C93.9798 66.9329 96.8325 67.375 97.9171 69.616C97.9171 69.616 101.751 69.7702 106.876 66.9844C108.872 65.9204 110.588 64.3996 111.884 62.546C113.18 60.6925 114.02 58.5587 114.334 56.3188Z" fill="#FFA8A7"/>
<path d="M109.21 69.1072C109.21 69.3021 109.154 69.4929 109.047 69.6558C108.94 69.8188 108.788 69.9466 108.609 70.0234C108.43 70.1002 108.232 70.1226 108.04 70.0877C107.848 70.0529 107.671 69.9623 107.531 69.8274C107.39 69.6924 107.292 69.519 107.25 69.3289C107.207 69.1388 107.221 68.9403 107.291 68.7582C107.36 68.5762 107.482 68.4186 107.64 68.3051C107.799 68.1917 107.987 68.1274 108.182 68.1204C108.447 68.1201 108.703 68.2228 108.894 68.4068C109.086 68.5908 109.199 68.8418 109.21 69.1072Z" fill="#263238"/>
<g style="mix-blend-mode:multiply" opacity="0.5">
<path d="M109.446 75.7893L111.744 76.5346C111.702 76.6888 111.629 76.8331 111.53 76.9586C111.432 77.0841 111.308 77.1884 111.168 77.2652C111.028 77.342 110.874 77.3897 110.715 77.4055C110.556 77.4213 110.395 77.4048 110.243 77.357C109.933 77.2491 109.678 77.0256 109.529 76.7334C109.381 76.4412 109.351 76.1029 109.446 75.7893Z" fill="#F28F8F"/>
</g>
<path d="M117.351 66.0952L115.352 64.692C115.437 64.5576 115.548 64.4418 115.679 64.3516C115.809 64.2615 115.957 64.1989 116.113 64.1677C116.269 64.1364 116.429 64.1372 116.585 64.1699C116.74 64.2026 116.887 64.2665 117.017 64.3579C117.286 64.5487 117.471 64.8359 117.533 65.1595C117.595 65.4831 117.53 65.8183 117.351 66.0952Z" fill="#263238"/>
<path d="M116.878 68.4185C116.879 68.6134 116.823 68.8042 116.716 68.9671C116.609 69.1301 116.457 69.2579 116.277 69.3347C116.098 69.4115 115.901 69.4339 115.709 69.399C115.517 69.3641 115.34 69.2736 115.199 69.1386C115.059 69.0037 114.961 68.8303 114.918 68.6402C114.876 68.4501 114.89 68.2516 114.96 68.0695C115.029 67.8874 115.15 67.7299 115.309 67.6164C115.467 67.503 115.656 67.4387 115.85 67.4316C116.116 67.4314 116.372 67.5341 116.563 67.7181C116.755 67.902 116.868 68.1531 116.878 68.4185Z" fill="#263238"/>
<g style="mix-blend-mode:multiply" opacity="0.5">
<path d="M112.201 67.8325L112.335 73.8052L115.48 72.844L112.201 67.8325Z" fill="#F28F8F"/>
</g>
<g style="mix-blend-mode:multiply" opacity="0.5">
<path d="M107.775 81.2941C105.241 80.9498 100.03 79.4335 99.2225 77.3672C99.5455 78.4113 100.181 79.3315 101.042 80.004C102.584 81.3455 107.765 82.8721 107.765 82.8721L107.775 81.2941Z" fill="#F28F8F"/>
</g>
<path d="M90.5154 86.0796C85.5399 86.4291 83.4839 87.0665 80.7134 93.2139C78.2256 98.7394 72.2581 113.034 70.7675 116.226C69.2769 119.418 68.9942 120.692 70.2535 124.028C71.2815 126.747 79.6751 142.368 80.5952 144.645C81.5152 146.922 81.9213 149.224 83.489 151.877C85.0567 154.529 87.5342 157.12 89.4925 157.731C92.3966 158.641 96.1745 157.377 96.2876 155.624C96.4007 153.871 92.0265 150.946 90.8341 147.055C91.6242 147.575 92.4563 148.027 93.3218 148.407C94.504 148.89 95.8147 148.782 96.2054 148.114C96.596 147.446 95.4189 147.035 94.3704 145.997C93.7433 145.375 92.6331 143.977 91.2144 142.743C90.2584 141.91 88.6804 141.664 87.9762 140.749C87.5907 140.26 85.8637 136.03 84.5684 132.257C82.9596 127.59 80.847 121.371 80.847 121.371L89.4925 103.381C89.4925 103.381 96.2773 96.632 90.5154 86.0796Z" fill="#FFA8A7"/>
<path d="M80.5849 144.645C80.5849 144.645 82.5741 140.62 87.966 140.749L86.5422 137.582C86.5422 137.582 81.2788 137.952 79.0635 141.509L80.5849 144.645Z" fill="#37474F"/>
<path d="M80.0041 141.227L81.176 142.866C81.2596 142.986 81.3666 143.087 81.4904 143.164C81.6143 143.241 81.7524 143.292 81.8965 143.314C82.0406 143.336 82.1877 143.329 82.3289 143.292C82.4701 143.256 82.6024 143.192 82.718 143.103L84.774 141.561C85.012 141.377 85.1714 141.11 85.22 140.813C85.2687 140.516 85.203 140.212 85.0362 139.962L83.9619 138.379C83.8821 138.256 83.7777 138.15 83.6552 138.069C83.5328 137.988 83.3949 137.932 83.2502 137.907C83.1055 137.881 82.9571 137.886 82.8143 137.92C82.6714 137.955 82.5371 138.018 82.4199 138.107L80.2354 139.649C79.9962 139.828 79.8375 140.094 79.7942 140.39C79.7508 140.686 79.8263 140.986 80.0041 141.227Z" fill="#263238"/>
<path d="M79.6186 141.185L80.7905 142.825C80.8743 142.944 80.9811 143.045 81.1048 143.122C81.2284 143.199 81.3663 143.251 81.5102 143.273C81.6542 143.296 81.8011 143.289 81.9424 143.254C82.0837 143.218 82.2164 143.155 82.3325 143.067L84.3885 141.525C84.6273 141.342 84.7877 141.075 84.8373 140.778C84.887 140.481 84.8221 140.177 84.6558 139.926L83.5816 138.343C83.5002 138.221 83.3952 138.118 83.2727 138.038C83.1502 137.958 83.0127 137.903 82.8687 137.878C82.7246 137.852 82.5769 137.856 82.4344 137.89C82.2919 137.923 82.1576 137.984 82.0396 138.071L79.8602 139.638C79.6259 139.814 79.4695 140.074 79.4243 140.363C79.3792 140.652 79.4489 140.947 79.6186 141.185Z" fill="#455A64"/>
<path d="M84.44 140.646C84.4288 140.747 84.3971 140.845 84.3467 140.933C84.2963 141.022 84.2283 141.099 84.147 141.16L82.091 142.702C81.9434 142.811 81.7586 142.857 81.577 142.83C81.4894 142.817 81.4055 142.786 81.3303 142.739C81.2552 142.693 81.1904 142.631 81.1401 142.558L79.9682 140.913C79.868 140.775 79.8223 140.605 79.8397 140.435C79.848 140.334 79.8781 140.236 79.9277 140.147C79.9774 140.058 80.0455 139.981 80.1275 139.921L82.3069 138.379C82.3798 138.325 82.463 138.287 82.5515 138.266C82.64 138.246 82.7317 138.244 82.8209 138.261C82.9093 138.275 82.9938 138.308 83.069 138.356C83.1442 138.405 83.2085 138.469 83.2578 138.544L84.332 140.127C84.4329 140.278 84.4766 140.46 84.4554 140.641L84.44 140.646Z" fill="#BA68C8"/>
</svg>
